<?xml version="1.0" encoding="utf-8"?>
<!-- Generator: Adobe Illustrator 23.0.0, SVG Export Plug-In . SVG Version: 6.00 Build 0)  -->
<svg version="1.1" id="Layer_1" xmlns="http://www.w3.org/2000/svg" xmlns:xlink="http://www.w3.org/1999/xlink" x="0px" y="0px"
	 viewBox="0 0 2400 2400" style="enable-background:new 0 0 2400 2400;" xml:space="preserve">
<style type="text/css">
	.st0{display:none;fill:none;}
	.st1{fill:none;stroke:#FF0000;stroke-width:0.5;}
</style>
<g id="prop_2_18_1" transform="translate(1716, 328)">
	<rect x="-26" y="-66" class="st0" width="426" height="308"/>
	<title  style="display:none">Leaves 1</title>
	
		<image style="overflow:visible;enable-background:new    ;" width="425" height="307" xlink:href="../../_common/prop_sprites//backleaves_2_18_1_leaves_1.png"  transform="matrix(1.0027 0 0 1.0027 -6.591517e-02 9.118259e-02)">
	</image>
	<path class="st1" d="M253.6,8.1l-7.7-3.9h-6.1L229.4,9l-8.2,8.2v2.9l-7.5,12l-20,0.1l-8.7,4h-5.6l-5.9,4.9l-7.8-4l-7,0.4l-10.9-3.3
		h-6.4l-5.9,4.9l-7.7-3.9h-6.1L111.4,40l-8.2,8.2v4l-2.8,3.8l-21.5-9.8h-3.2L65.1,57.1L50.8,62l9,3.6l-9.6,1.6L39.4,78.4l-3.1,6.1
		l3.2-1.2l8.3-1.1l-9.7,4l-4,3.6l-3.6,7.1L27.3,109v5.2l11.9-6h8.6l-4.3,3.5l-3.7,8l-7,1.1l-4.9,2.7l-15.1,5.6l6.9,0.7L8.3,151.3
		v4.4l5.5-5.2l2.5,1l-5.1,5l-5.7,11.3L3,180.6L5.3,197l10.1-5.6l-0.3,15.7l4.2,11.3l7.5,7.3l1.1,11.4l2,3.5l1.8-6.8l2-0.6L33,246.6
		l2.5,11.2l4.6,9l8.5,10.6l5.8-10.2l5.3,10.6l8.2,8.1l8.9,5.1h6.1l1.5-10.6l3-8.6l0.6-10.3l11.6,14.7l16.2-19l9.2,11.4l2.9-9.5
		l0.1,16.2l1.7,7.3l14.5-13.2l1.8-17.6l10.3,6.6l4.1-11.8v-7.7l3.4,4.1l-0.7-17.2l4,4.8l0.8-6.7l-1.7-8.1l-7.3-10.8l7.4-4.3
		l-1.9,9.5l11.4-3.5l8.6-7.9l1.9,2.9l1.3,6.5l9.3-11.2l2.4,5.8l14.9,14.6l1.6-15.2l2.9-5.1l5.6,9.9l11.5,8.7l-1.3-4.2l17.1,6.6
		l8.3,4.9l10.5,11l1.1-3.7l8,9.6l5.8-10.9l2.7,6.3l5.7,9.1l10.3,6.9l9.4,1.7l3.1-2.5l-1.5,15.8l8.4,2.1l8.9,6.9l5,11.1l3.5-7.5
		l7.7,16.1l4.4,12.4l4.5-24.3l4.6-4.2l2.8-6.8l3.3,5.2l1.4,10.9l6.2-8.3l6.1-11.5l0.4-6.9l5.3,6.2V257l-7.1-22.2l-6.5-8.3l4.8-0.2
		l-5.4-4.2l-1.8-4.3l5.8,5.4l2.1-6.9l8.2,0.1l-0.2-9.6l4.2-11.9l0.5-7.3l4.8,5.5l7.7-15.8l-1.3-27.1l-4.6-11.4l6.8,2.3l-6.2-10.5
		l-11.2-8.8l11.1-0.5l-6.3-6.3l31,1.4l-19.4-14.2l-2.2-6.8l-3.8-4.3l7.4-0.8l8.6,2.4L402.9,75l-6.9-4.7l10.5-2l-9.7-4.4l-28.3-3.7
		h-4.3L353.9,49l-20.7-13.9l-2.9,2.4l2,2.4l-16.5-1L304.1,31l-2.9,2.5l2.2,2.7h-3.1l-2.3-2.5l-4.4-8l-11.5-7.6l-1.8-4.4l-1.1-5.3
		l-8.9-4.3L259.6,3L253.6,8.1z"/>
</g>
<g id="prop_2_18_2" transform="translate(5, 1452)">
	<rect x="5" y="39" class="st0" width="387" height="271"/>
	<title  style="display:none">Leaves 2</title>
	
		<image style="overflow:visible;enable-background:new    ;" width="386" height="270" xlink:href="../../_common/prop_sprites//backleaves_2_18_2_leaves_2.png"  transform="matrix(1.003 0 0 1.003 -7.059990e-02 0.1009)">
	</image>
	<path class="st1" d="M206.6,8.1l-7.7-3.9h-6.1L182.4,9l-8.2,8.2l-0.1,3.5l-2.6,3.5h-6.1l-5.9,4.9l-7.7-3.9h-6.1L135.4,30l-8.6,9
		v2.8l-8.1,13.4L107,54.7l-5.5,4.5l-8.3-3.4h-6.1L77.4,60L69,68.6l-0.5,3.9l-9.3,15l-3.8,11.2l-7.3,1.2l-8.4,6.4l-6.8,8.9l8.5-2.6
		L35,123l-1,16.8l3.8-2.7l-1.7,8.2l-6.3,0.5l-9.8,4.9L3.2,173l7.4-4.6L11,188l2.1,9.4l2.8-8l2.4-0.6L17,202.6l2.5,11.2l4.6,9
		l8.5,10.6l5.8-10.2l5.3,10.6l7.6,8.4l9,4.4l6.5,0.8l1.5-10.5l4-12.7l-0.4-6.1l4.6,5.8l8.2-16l0.3-9.4l-1.6-9.1l11.7,8l4.6,11l3.3-7
		l10.3,20.8l1.9,7.5l4.5-24.8l4.6-4.2l2.8-6.6l3.3,5.2l1.4,9.5l6.4-7.7l6.1-11.5V184l6,5.8v-8.5l11.3-10.4l2.7-6.4v-12.2l11.2,5.9
		l-5,8.7l-3.2,9.5l-1.3,9.2l12.8-13.6l-5.6,14.1l0.4,8.1l3.5-4.1l0.1,10.8l5.9,13L192,225l16.1-19.2l8.8,11.8l3.3-8.8l0.3,17.3
		l1.2,5.6l10.7-8.9l5.1-7.9l0.4-13.8l10.5,6l2-5.9l4.3-4.7l2.3,5.3l5.7,5.6l12.8,8l-0.6,8.6l5.6-6.3l3.7,0.9l-2.6,6.1l-0.2,8.1
		l3.9-2.9l0.3,10.8l8.7,16.8l5.5,6.5l16.6-18.7l8.3,11.4l4-8.2l-0.2,16.4l1.9,6.1l12.6-11.5l2.7-6.5l0.6-12.9l10.6,6.3l3.8-11.8
		l-0.4-6.5l3.6,2.5l-0.5-15.8l4.6,4.3l-1-12.9l7.8,10.6l5.4-14.6l-0.4-9.3l-5.9-10.8l12.3,0.1l-2-9.5l-3.9-8.3l4.5,1.1l-8.8-14.6
		l6.5,2.5l-5.1-9.1l-12.1-8.9l-14.7-0.2l-5.6-6.8l-11.4-0.1l-10.3,5.4l-2.6,6.9l-2.4,0.1l-7.8-8.4l-8.8-4.3l-3.2-5.6l-12.6-8.4
		l-0.3-7.3l-10.1-5.7l-10.9-0.1l-5.9,4.1l-5.7-3.3h-6.1l-5-9.1l-11-7.2l0.7-14.4l10.9,5.7l3.9-12.2V59l3,2.4l0.1-15.7l4.1,4.1
		l-0.2-11.3l-6.5-12.8L234.1,17l-0.9-6.5L226,4.6l-14.2-0.8L206.6,8.1z M63.3,100.2l-2.9-0.1l1-2.5L63.3,100.2z M66.6,96.3L63.8,96
		l3.5-3.8L66.6,96.3z M147.1,168.8l-1.8-2l0.1-4.6l1.8-2.1L147.1,168.8z"/>
</g>
<g id="prop_2_18_3" transform="translate(519, 1205)">
	<rect x="1" y="-14" class="st0" width="371" height="287"/>
	<title  style="display:none">Leaves 3</title>
	
		<image style="overflow:visible;enable-background:new    ;" width="370" height="286" xlink:href="../../_common/prop_sprites//backleaves_2_18_3_leaves_3.png"  transform="matrix(1.003 0 0 1.003 -5.493917e-02 7.102011e-02)">
	</image>
	<path class="st1" d="M147.1,10.4l-5,7l-11.4-6.7l-36.3,2.5L82,18.4l19,2.8l-14.8,3.4L80,28.4l3.4,1.9l-11.1,9.8l-9,18.5l0.8,3.5
		l24.2,2.5l-3.2,8.6L76.6,75l-7.8-6.7l-14.5-0.4L44.4,73L24,91.7l-7,12.7l16.5-8.7l-10,12l-2.2,6.6l4.2-1.3l-1.6,3.7l-0.9,10
		l1.6,12.5l-8.4,6.2l-4,9.2L3,169.3l7-6.3l4.3,20.5l2.6,7.7l1.8-7.3l2.8-1l-1.3,5.3l3.1,13.8l6.9,11.7l11.5,10.6l4.3-11.7l4.2,7.5
		l7.5,7.3l9.4,4.8h9.8l1.3-16.5l6.8-4.3l-3.9,7.1L81,238.6l4.2-2.2l-0.8,8l1.4,6.1l7,0.9l10.4,4.9l8,10.4l2.3-6.4l16.2,25l0.6-24.8
		l4-3.6l1.7-7.1l4.5,5.3l2.6,8.6l1.4-3.6l12.6,13.9l13.6-21.6l10.1,9.9l2.3-9.5l2.4,16.9l2.4,5.6l9.6-11.3l7.5,6.8l12.9-21.6
		l10.7,10.9l1.6-9.7l1.9,13.2l3.2,9.5l9.4-10.5l3.1-5.9l-0.7-16.2l11.6,4.7l0.5-9l2.6,1.8l0.8-4.1l5.9,6.4l8.3,4.9l13.5,5.1l5.7,0.6
		l0.4-25.3l15,4.4l-3.3-8.8l9.7,12.3l6,4.8l2.7-18l-2.4-7.1l-6.8-9.3l11.8-1.7l-1-3.4l5.9,5.6l2.6-9.2l1.7,16.8l3.1,5.7l11.4-13.1
		l1.3-5.1l-1.5-14.2l11.9,4.2l1.8-8.8l-0.4-10l3.6,3.1V168l-3.8-10.7l5.3,3v-6.1l-3.7-8.3l-7.3-8.3l-12.5-5.7l-1.8-6.3l-5.8-4.3
		l-7.8-0.4l8-8.4l4-6.1l-0.4-15.2l11.8,5.8l1.7-9.6v-9.8l3.5,3.8l-0.2-12.5l-2.4-5.7l5.3,5.3V58l-8.6-13l-13-7.2l-1-6.4l-5.9-5.3
		l-13.5-0.9l-3.8,2.5l-9.8-10.1l-6-3.2l-9.9-1.5l-7.6-8.7h-13.1l-6.9,2.9l-3.1,6.1l-6.4-0.6l-7.8,1.5l-8.9-6.4h-17.4l-5.6,4.2
		l-12,4.6l-2.9-6.2l-9.1-4.4L182.6,5l-6.1,3.8l-8.1-4.6h-8.8L147.1,10.4z M328.7,120.1l-10.8-16.5l6.6,5.4l2.1-8.8L328.7,120.1z
		 M82.4,206.1l-3,4.2l-0.8-7L82.4,206.1z"/>
</g>
<g id="prop_2_18_4" transform="translate(5, 1733)">
	<rect x="57" y="-25" class="st0" width="330" height="292"/>
	<title  style="display:none">Leaves 4</title>
	
		<image style="overflow:visible;enable-background:new    ;" width="329" height="291" xlink:href="../../_common/prop_sprites//backleaves_2_18_4_leaves_4.png"  transform="matrix(1.0032 0 0 1.0032 -2.866243e-02 3.237197e-02)">
	</image>
	<path class="st1" d="M170.8,5.9l-2.2,2.8l-1.4,5.6L152.4,21l-2.1,3.9l-11.4,1.2l-26.3-12.8l-8.3-1.3L93,13.4l-7.8,7.1L84,25.2h-9.3
		l-7.5,7.2l-4,7.7v3.3l3.3,5.5l-4.8,12.3h-1.4l-6.2,6H37.5l-12,7.8l-5.3,8l6.2-1.1L17,95.5l4.3-1.1l-3.9,6.3l-2.5,7.8l-7,9.2l-3.7,8
		v6.5l4.7-3l-2.7,10.4v5.9l3.5-3.1l-1.2,8.8l1.8,10.1l12.2-4.5l-2.2,12.6l-9.3,9.4l7.4-0.4L7.3,191.1l5.5-1.1l-4.4,4.9l-5.2,12.8
		l13.2,0.8l-4.9,5.2l-4.2,8v9l3,11.6l6.6-5.1l8.2-11.4l-3.1,9.1l14-3.6l1.4,24h4.8l20.8-8.9l7.6-8.1l0.5,5.3l2.4-2.4l1.6,8.2
		l11.2-3.9l-1.1,8.1l1.2,11l11.6,14l2.6-6.6l2.3-16l1.9,8.6l10.1-9.9l13.8,22l6.1-7.4l10.4,11.6l3.1-7.3l1.8-15l1.7,9.2l10.7-9.6
		l13.7,20.8l11.9-12.6l1.9,2.5l1.3-6.8l5.9-6.9l1.1,7.1l4,3.6l1.3,25l4.9-9.3l11.5-16.5l2,6.8l5.4-7.7l6.1-4.4l9-2.9l4.9-0.7
		l0.6-14.6l3.6,2.9l0.9-13.8l-2.3-10.6l-2.5-3.3l7.1,4l1.3,17h9.8l9.4-4.8l7.5-7.3l3.8-7.8l3.1,6.9l2.3,4.8l10.9-10.9l6.3-11.5
		l3.1-13.6l-1.3-6.7l3.9,2.7l0.1,6.3l2.9-3.7l4.6-24l7.3,5.9L318.2,156l2-5l0.3-12.1l-2.3-15l-3.1-5.6l4.5,1.1l-3.4-5.5l-11.3-10.4
		l17.9,6l-11.2-12.6l-20.7-13.5l-5.5-2.4l-1.9-6.9L275,61.4l16.1,9.8L283,57.1l-18.9-20.4l-9.3-5l-13.5-0.5l-8.2,6l-2.6-1.5l-4.1-8
		l-1.3-6.4l-8.9-9.9l-8.6-4.2h-7.5l-4,2.1l-7-6.1l-12.4,0.1L170.8,5.9z M254,216.9l-3.9-5.7l4.6-2.9L254,216.9z"/>
</g>
<g id="prop_2_18_5" transform="translate(2152, 328)">
	<rect x="122" y="-10" class="st0" width="240" height="242"/>
	<title  style="display:none">Leaves 5</title>
	
		<image style="overflow:visible;enable-background:new    ;" width="239" height="241" xlink:href="../../_common/prop_sprites//backleaves_2_18_5_leaves_5.png"  transform="matrix(1.0042 0 0 1.0042 2.091960e-03 -2.101547e-03)">
	</image>
	<path class="st1" d="M84.2,8.2l-5.8-3h-8.2l-7.4,3.1l-5.5,5.3v7.5l-11.9,9.1l-4.1,11.1L40.9,45l-9.6,8.3l-4.6-1l-7.9,2.1L10,62.1
		l-1.1,7.6l1.4,5.9L3,87.4l0.8,17.3l5.2,8.1l0.8-7.8l1.5,4.8l6.3,11.9l0.8-4.8l5.9,8.8l6,5.8l3.6-4.4v17.8l5.6,8l5.2,2.6v8.7
		l5.5,7.8l6.5,4.7l6.2-0.2l6.2-1.4l10.7,5.5l16.7-1.1l8.2-5.5l-7.4-1.1l17.5-8.9l-8-0.9l5.8-1.9l10.5-10.6l-11.8-6.3l8.9-5.8
		l2.7,1.9l14-0.5l9.7,4.5l-2.2-6.4l14.2,8.5l-1.5-5.6l3.3,1.5l0.8,4.5l2.4-2.8l3.1,1.3v9.6l-3.5,5.2l-5.8,5.8l-7.6,14.8l3.9-2.5
		l-0.9,9.8l3.3,26.1l4.9,8.9l1.9-9.1l4.4,6.2l12.5,7.8l6.4,3l-3.7-9.4l0.9-6.2l6.6,5.7h4.4l15.7,21l-2.5-31.4l6.7,4.5l-0.9-9.1
		l8.3-7.8l4.5-11.6l0.6-14.1l9.8,6.6l3-17.9l-2.1-13.7l-5-10.9l-4-4l2.7-1.1l5.3,6.4l-1.4-8l-7.8-17.8v-2l7.5,1.1l-18.3-8.6
		l-6.3-11.8l-8.5-10.4l-6.7-4.9l-2.9-0.5l3.6-2.4l-6.2-3.2h-7.9l-2.4-3l23.9-7.1v-3l-4-6.4l-10.9-14.5l-9.1-5.4l3.8-1.3l-6.6-3.4
		l-15.4-1.5l9.3-3.3l9.9-1.8l-11-3.5L132.9,16l-11.7,6.7l-1.6-1.7l-4.9-8.8l-11.5-7.1l-12.4-1L84.2,8.2z"/>
</g>
<g id="prop_2_18_6" transform="translate(1205, 1205)">
	<rect x="42" y="-18" class="st0" width="338" height="238"/>
	<title  style="display:none">Leaves 6</title>
	
		<image style="overflow:visible;enable-background:new    ;" width="337" height="237" xlink:href="../../_common/prop_sprites//backleaves_2_18_6_leaves_6.png"  transform="matrix(1.0034 0 0 1.0034 -6.984262e-02 9.922323e-02)">
	</image>
	<path class="st1" d="M216.8,5.9l-21,12.5l-4.1,3.8L176.3,19l-25.5,1.7l-0.6,4.3l3.6,0.9l-5.7,2.3l-8.4,6.1l-14.4,1.2v3.9l4.5,1.2
		l-5.6,1.4l-9.3-4.1L100.7,39l-3.9-2.1l-1.6-2.7h-9.5L75,39.5l-4.1,9.7h-4.6l-7.8,4.9L53.2,65L52,75.9l2.3,4.3H49L38.5,91.7
		l-13.7,4.8l10,3.4L26,101l-6.8,6.5l-8.3,12l11.8-2.3l-9,4.1l-4.5,4.2l-4.1,11.1L4,149.3h1.8l10-6h7.8l-4.2,4.5l-3.1,11.9v6.8l3-2.4
		v5.9l3.1,8.8l1.2,11.2L20,205.4l0.8,0.8l8.9-4.5l4.3-9l5.7-5.2l11.7-6.6l-2.4,9.3h0.8l12.6-4.9l6.4-7.4l2.2,1.3l1.4,6H74l7.6-10
		h0.6l8,7.2v2.6l3.9,4.7l3.2-7L95,198l10.7,7.9l3.3,3.8l5.7,12l1.8-11l1.5,6.8l3.9,5.2l15.3,9.8l1.5-1.4l-3.5-6.1v-3.3l6,10.3
		l6.7,3.2l10,2.1l11.3-0.6l-6.9-9.7l-2.3-6.9l0.8-0.9l7.8,4h15.9l-1.3-1.4l13.5-6.1h26.5v-2.6l10.7,2.3l-2.1-10.1l1.2-1.2l10.5,5.3
		l14.6,1.1l11-5.4l0.7-3.4l4.6,9l2.9,3.2l7.4-2.6l13.2-0.1l9.6,5.1l-1.1-8l27.2,15.3L322,202.1l1.1-6.9l-2-5.2l0.5-0.4l0.4-0.5
		l4.4,1.4l8.1,7.3l-1.1-19.2L329,170l8.4,1.4l-4-5.6l-20.7-15.2l-8.4-4.3h-1.8l-1.8-0.1l3.9-2.9h-3.3l-2.3-8.4l4.5-3.3l-8.3-19.4
		V111l-4.1-5.8h0.6l6.5,1.9v-1.4l-4.9-19l-11-10.7v-2.6l-7.2-6.3l-8.8-4.3l6.5-2.7l-5-2.7l-11.9-2.2l-4-0.1h-4.1l8-5.8l-6.7-2.1
		l23.7-17.9l-23.3,1.2l-6-4.3h-6.3l2.2-4l6.4-3.3l5-1.5l-14-6.6L223.1,10l5.2-6.8l-2.6,0.1L216.8,5.9z M296,143.4l-1.9-1.9l6.6,1.1
		L296,143.4z"/>
</g>
<g id="prop_2_18_7" transform="translate(1553, 1205)">
	<rect x="-32" y="-30" class="st0" width="340" height="228"/>
	<title  style="display:none">Leaves 7</title>
	
		<image style="overflow:visible;enable-background:new    ;" width="339" height="227" xlink:href="../../_common/prop_sprites//backleaves_2_18_7_leaves_7.png"  transform="matrix(1.0034 0 0 1.0034 -7.640953e-02 0.114)">
	</image>
	<path class="st1" d="M127.2,10.4l-4.7,7.4l-11.7-7.1l-34.1,1.6l-14.2,5.5l18.8,3.6l-15.1,3.2L60,28.4l3.2,1.7L51.8,40.7l-7,14
		l-3,2.4l-13,4.3l-11.5,6.1l-7.5,6.8l17.8-2.1l-11,5.9l-7.4,7.5l5.2-0.6l-5.3,6.2l-3.6,10.5L3,118l1.2,3.2l24.3-4.1l-0.8,15.1l8-5.4
		l-11.1,12.9l-2.4,5.5h18.6l5-3.9l0.7,2.8l10.8-0.6l-1,2.8h4l-2,5.3v15.6l3.8,13.4l2.1,2.1l21-12.3l4.6,13.6l6.1-7.3L91,189l-1,10.4
		l16.4-7.5l4.9-5.8l3.8-10.5l7.6,8.9l3.1-2.7l-1.7,8.6l8.5-3.3l-11.8,10.1l-4.1,6.6l17.8,1.5l7-3.3l8.6-7l2.6,12.4l9.1-4.6l7.7-6
		l-0.7,5.6l12.3-11l-0.3,5.2l8.3-8.6l-0.5,8.1l1.9,5.5l2.9-3.9l-0.1,4.5l4.3,8.4l16.3,16.5h2.5l10.6-21.6l11.6,8.7l1.5-8.4l2.9,13.9
		l4.1,7.4l9.5-14.9l0.8-9.6l-2.9-9.5h0.3l12,3.7l-0.8-19l4,2.8l-0.7-5.9l-1.6-4l2.2-3.5l7.1,7l19.9,9l6.2,0.4l0.3-25.2l14.5,3.9
		l-2.7-9.6l7.6,11.1l8.1,7l2.6-18.4l-4.2-9.5l-5.5-6.7l12.8-1.7l-4.4-10.8l-5-6.8l5.6,1.7L321,104.9l6.6,1.3l-5.6-8l-12.4-6.6
		l16.9-5.6l-15.1-20.8l14.1-5.7l-7.5-5.2l12.8,3.4l8.8,0.5l-7.1-14.5l-6-5.5l-12-3.3l8.2-8.8L312,19.3l-6.8-1.4l4.7-2.5L293,11.5
		l7.5-2.7L292,6.2h-7.3l-11,3.2l-10.5,9.9l-10,0.7l-6.8,8.7l-8.4-8.5h-8.5l-1.2-3.8l-8.7-8l-9.4-1.5L200,8.1l-5.2,3.5l-12.5,4.8
		v-2.8l-5.5-5.3L168,5.2h-6.2l-6.1,4.1l-5.4-4.8l-10.7-0.4L127.2,10.4z"/>
</g>
<g id="prop_2_18_8" transform="translate(374, 997)">
	<rect x="67" y="-69" class="st0" width="239" height="184"/>
	<title  style="display:none">Leaves 8</title>
	
		<image style="overflow:visible;enable-background:new    ;" width="238" height="183" xlink:href="../../_common/prop_sprites//backleaves_2_18_8_leaves_8.png"  transform="matrix(1.0047 0 0 1.0047 -5.585621e-02 7.257104e-02)">
	</image>
	<path class="st1" d="M153.8,6.9l-6.7,4.6l-3,7.5l-7.4,0.3H130l-6-5h-5.5l-12.4,6.2l-3.8,9.8h-4.6l-6.4,3.9l-17.5-7.8l-12-0.6
		L75.4,37l-13.2-3.9l-8.8-0.3l3.1,4.1l-7,0.1l-9.8,3.4L26,49.8l-2.8,4.3l19.3,14.5L32,78.4l9.4,2.8l-18.6,0.5l-4.7,2l14.8,14
		L16.3,107l19.3-0.2l-14.8,5.5l-5.6,4.8l4.1,1.3l-5.1,3.9l-5,8.6l-5,14.2l-0.5,7.2h24.6L26,166.4l8.3-3.2L24.1,172l-6,7.8l18.5,1.7
		l7-3.3l8.6-7l2.6,12.5l9-4.7l7.7-6l-0.6,5.6l12-11.1l-0.5,5.6l8-6.8l5.2-11.6l-0.7-11.9l16,16.4h2.5l10.6-21.6l11.6,9l1.2-9.1
		l3.5,16.1l3.4,5.4l10.1-15l0.4-9.3l-2.3-9.4l7.8,16.9l1.3-14.5l2.3,0.4l2.6,10.8l5.1,6.1l0.5-4.5l7.3,7.7l20,9l6.6,0.5l-0.1-25.3
		l15.1,4.1l-3.3-9.5l9.2,13l6.8,4.1l2.7-17.9l-4.5-9.4l-4.9-6.9l8.5-0.8l4.3-0.8l-5.1-10.6l-5-6.8l5.6,1.3l-11.8-13.3l6.6,1.3
		l-4.4-7.7l-13.3-6.4L198.9,66l-0.8-3.5l24.8,0.8v-6L218,43.4l-5-8.5l-6.4-5.5l5.2-0.1l-6-5.7l-14.9-6l18.9,0.2l-8.1-5.5L189.8,8
		l-12.6-1.9l-4.9-1.9L162.5,4L153.8,6.9z"/>
</g>
<g id="prop_2_19_1" transform="translate(692, 666)">
	<rect x="-58" y="-106" class="st0" width="474" height="321"/>
	<title  style="display:none">Leaves 1</title>
	
		<image style="overflow:visible;enable-background:new    ;" width="473" height="320" xlink:href="../../_common/prop_sprites//leaves_2_19_1_leaves_1.png"  transform="matrix(1.0024 0 0 1.0024 -7.508828e-02 0.1109)">
	</image>
	<path class="st1" d="M267.1,7.4l-10.3-3.3l-9.6,2.1l-10.4,7.4l-4.6,10.1l-2.6,4.2l-2.3-1.7l-2.4,3l1.8,3.6l-10.1-5.1h-18l-8,5.3
		l-10.8,11l-13.6-9l-14.3-6.4L132.7,29l-11.9,2.3l-12.2,6.8l-4.7,3.9l15.6,3.4l-10.3,3.5l-5.1,4.8l-18,25.7l2.2-5.3L86.4,72
		L63.2,85.3l-6.4,5.6l-15.2,1l-22.8,12.5l8.1-1.1l-7.5,18.4l-1.2,9l4.3-5.5h2.8l-6.1,9.5l-2.9,9.9v14.1l2.9,13.4l10.5-6.8l-0.4,10.5
		l-11.5,5.4l8.9,1.6l-10.1,6.1L6.3,202.1l5.3-0.3l-9.1,11.8l7.5,7.6l3.5,9.1l-0.8,12.2l6.5-4.2l-2,23.7l-2.2,7.6l16.4-20.1l6-1.2
		l5.3-4.2l0.6,7l-3.7,9.5l16.1-8.4l6.1-5.6l0.5,16l3.7,9.7l5.4,9.2l7.6-8.7l3.2,11.3l6.5,9.6l9,5.5l5.3,1.3l8.7-20.9l1.1-6l4.5,6.8
		l11.3-17.5l0.9-6.2l-0.9-6.5l3.1-11.1l8.3,7.9l6.8,1.4l10.9-26.7l4.1,6l7.3-11.4l7.5,3.8l6.3,6.7l3.7,9.2l3.7-7.3l12.8,27.9
		l3.6-23.8l5.5-5.8l1.2-4.8l2.3,0.7l4.2,12.8l6.5-8.9l4.5-9l0.9-6.8l6.6,7.3l-1.3-17.8l2.8-6.7l3.3-2.7v4.5l5.9,9.2l7.1,6.9
		l-1.3-8.6l3.4,6.9l15.8,7.8l2.5,8.1l0.4,12.5l11.9,18.8l3.7-6.4l1.9,7.6l5.1,9.8l3.3,8.4l4.1,0.1l5.8-2.6l5.8-5.8l-0.1,5.6
		l12.3-13.4l-5.5,14.5l0.1,7.4l3.8-3.6v10.1l4.8,12.3l9.6,12.7l16.6-18.9l8.4,11.6l3.8-8.2l-0.6,14l2,8.5l12.6-10.8l3.1-7.8V290
		l11.4,6.2l2.8-10.9l0.4-7.8l3.7,3.3l-0.1-16.1l4.1,4.6V260l14.1,5.9l10.5,9.5l5.9,9.2l2.9-6.3V272l-4-7.1l0.4-11.9l2.1-9.9l6.1,8.7
		l4-13.1l-0.4-11.3l8.1,2.9l-2.2-14.8l3-17.9V189l5.5,5.4l6-17.8v-6.4l-2.7-6.4l-0.3-12.1l-6.6-11.5l7.5,1.4l-4.1-5.9l-9.7-9
		L439,116.2l0.1-8.4l4.1,4.4l-0.8-11.6l-6.5-12.8L424,79.6l-2.6-9.1l-7.5-4.4L402.5,65l-6.1,5.2l-7.9-3.9l-6.6-0.1l-18.4-21.7
		l-5.9-2.6l-6.9-1.7l15.1-4.6l-18-9.6l-31.4,0.2l-5.8,3.8l-4.8-5.6l-11.2-7.1l-1.3-8.1l-8.4-5.3L272.8,3L267.1,7.4z"/>
</g>
<g id="prop_2_19_2" transform="translate(1205, 882)">
	<rect x="-13" y="-8" class="st0" width="414" height="309"/>
	<title  style="display:none">Leaves 2</title>
	
		<image style="overflow:visible;enable-background:new    ;" width="413" height="308" xlink:href="../../_common/prop_sprites//leaves_2_19_2_leaves_2.png"  transform="matrix(1.0027 0 0 1.0027 -6.093544e-02 8.164836e-02)">
	</image>
	<path class="st1" d="M104.7,7.9L85.8,20.7l16.7,2.3l-10.2,4.4l-4.9,5.3L75.3,53.3l-3.1,8.9l-1.8,12l8.6-4.7L78.9,83l-16.2,8.3
		L54,99.7l-4.1,5.8l7.3-1.4l-6.5,12.8l-13.5,3l-13.8,9.4l16.7,3.6l-11,3l-5.1,4.8L7.3,165.9L3.7,181l5.5-2.7h3.2l-1.3,11.8l3.3,12.9
		l6.4-8.1l1.3,5.9l0.2,14l-4,8.7v7.4l2.1,4.7l8.7-12.1l8.7-5.9l13.3-5.3l3.8-4.1l-1.8,5.1l2.8-1.5l2.4,7.1v13l12,19.4l3.9-6.9
		l10.1,26.1l3.8-0.1l8-4l8.1-9.3l3.8-13.6l8,8.7l7.1-12.4l2.5-9v-17l-4-7.8l3.5,0.3l2.6,6.4l1.6-6.9l-2.8-20.7l11.5,24.5l3.7-23.8
		l5.5-5.8l1.2-4.8l2.3,0.7l4.2,12.8l6.5-8.9l4.5-9l0.8-7.2l6.2,7.8l-0.1-10.9l5.1,5.5l2.6-14.8l4.7-5.4l0.1,4.8l5.9,9.2l7.1,6.9
		l-1.7-8.9l3.1,6.6l16.2,7.8l7.1,7.5l4.6,12.8l4.2-5l0.3,8.9l6.8,9.7l11.2,9.3l0.9-15.8l3.8-4.7l3.6,9.2l12.4,9.8l-1.9-5.4l7.3,5.2
		l0.2,8.2l-4.1,8.8l-7.9,12.1l-2.9,9l-1.5,9.9l12.3-12.8l-5.1,15l-0.2,7.2l3.8-4.2l0.2,11.3l13,22.3l3.3-0.1l14.8-17.7l8.9,12.1
		l3.3-8.7L314,301l1.8,7.6l12.3-11.5l3.1-7.8l0.4-11.3l11.6,6l1.6-6.3l6.7,9.8l2.7-6.5v-5.9l-3.2-5.9l0.3-14.1l2.6,1.2v-8.6l5.6,8.1
		l2.1-8.5l2.4-2.5l5.1-9.9l4.3,8.1l6.3,7.3l8.7,5.1l10.6,0.4l2.1-19.1l0.4-9.6l5.7,5.5l6.2-17v-6.4l-2.5-7.4l-0.3-12.1l-6.6-11.5
		l7.5,1.4l-4.1-5.8l-8.7-8.4l-23-12.8l-2.5,1.9l3,4l-11-1.4v-3.7l-8-15.5v-7.7l-7.3-26l-9.2-8.2l15.7,2.6l-2-3.8l-8-10.8l-25.6-15.2
		l-19,0.4l-9.2,1.8l1-14.8l-6.4-13.7l3.3-6.9l-3.5-7.4l-9-7.9h-9.4l-4.5-6.5L259,9.9l-13.7-1l-9,2.5l-2.4,3l-11,5.7l-1.9-2.4
		l-0.7-6.5L211.9,6l-11.8-1.1L194,9.6l-7.8-3.4h-7l-8.5,4l-7.8,6.6l-26.1-13l-10.1-0.6L104.7,7.9z"/>
</g>
<g id="prop_2_19_3" transform="translate(1832, 5)">
	<rect x="-50" y="-70" class="st0" width="469" height="313"/>
	<title  style="display:none">Leaves 3</title>
	
		<image style="overflow:visible;enable-background:new    ;" width="468" height="312" xlink:href="../../_common/prop_sprites//leaves_2_19_3_leaves_3.png"  transform="matrix(1.0025 0 0 1.0025 -7.695145e-02 0.1154)">
	</image>
	<path class="st1" d="M253.8,4.8l-4.5,2.5V11l-3.5,4l-9.8,3.6l-5.7,4.7l-6.8-5.2l-31.2-4.2l-18.1,5.4l14.6,7.8l-10.2,0.1l-8.2,4.5
		l-19.2,15.9l-6.2,9.6l-30,2.1L98,69.4l9.9,1.8l6.8,3.1l-5.8,0.5l-8.8,4.5L88.4,93.7L80,107.4l-13.3-0.6l-8,4.2l-2.6,7.7l-2.3,2.8
		l-11.4,5.7l-5.7,7L31,145.6l-1,10.2l5.2-4.7l-4.6,20.2l3.2-2.9v19.4l-8.8,1.6l-6.6,4.3l7.1,0.7l-8.7,5.6L7,213.9l4.6-0.1l-7.2,7.6
		l-0.7,4.8l6.4,7.1l3.5,9.1L12.7,254l6.6-3.7l-2,23.7l-2.3,6.9l16.5-19.4l6-1.2l5.3-4.2l0.6,7l-3.8,8.8l16.3-7.7l6.2-6l1,18.8
		l8.3,17.1l8.4-8.9l2.7,10.6l5.2,8l5.2,4.6l6.6,4.2l3.8-0.7l3.3-9.1l6.1-12l1-5.1l4,6.2l11.7-17.9l0.1-12.2l2.4-10.4l0.5,7.9h3.1
		l9.4,4.8l6.3,6.7l3.9,8.6l3.8-6.7l12.1,27.7l4-23.6l5.5-5.8l1.3-4.8l3.9,4l2.3,10.5l5.8-7.4l6.3-13.3l3.2,8.8l0.3-6.5l2-1.2l1-13.6
		l3.3,8.1l3.5,0.4l4.7-2.6l-0.7,10h3.3l9.4,4.8l6.3,6.7l4.1,8.8l3.6-6.7l12,27.6l4-23.7l5.5-5.8l1.6-5.2l3.8,4.8l2.2,10.2l6.8-9.4
		l4.5-9l1-7.4l5.4,7.3l0.7-9.9l-2.1-5.5l2.6-5.2l1.3,4.8l8.6,21.8l4.2,0.3l9.1-5.8l5.1-6.5l4.1-8.5l1.1-6.7l7.8,9.3l2.6-3.3l1.3,7.9
		l7.2,15.4l5.3,6.9h2.7l15.3-17.7l8.2,11l3.9-8.6l-0.6,14.8l2.1,8.5l11.8-9.8l4-7.5l0.1-13.5l11.1,6.5l3.3-13.3l0.1-6.1l3.5,4.1
		v-16.9l4.2,5.5v-10.3l15.1,7l8,7.2l7.6,10.5l1.8-5.3l0.4-6.8l-4.8-11.8l3.6-16.6l5.4,6.5l4.4-11.4l-0.1-11.7l7.6,2.6l-2.6-13.5
		l-2.2-6l-15.4-23.5l-11.8-6l15.6-2.5L435,135.3h-2.3l0.3-11.2l7.6,4.6l-1.2-17l-13.6-29.9l-10.7-7l15.6-1l-15.4-13.4L390,52.2h-7.3
		L355.9,62l-13.1-17.2l-7-4.1L320,40l-8.1,2l2.4-3.5l-2.9-2.5l-1.8,1.2l-3.3-8.6v-3.5l-2.8-5.4l-8.7-8.3l-6.4-3.2h-8.2l-3.9,2.1v-2
		l-5.6-4l-9.9-1L253.8,4.8z M45,188.3l-3.2-0.1l1-1.8l3.3-1.1L45,188.3z"/>
</g>
<g id="prop_2_19_4" transform="translate(761, 5)">
	<rect x="-28" y="-89" class="st0" width="418" height="350"/>
	<title  style="display:none">Leaves 4</title>
	
		<image style="overflow:visible;enable-background:new    ;" width="417" height="349" xlink:href="../../_common/prop_sprites//leaves_2_19_4_leaves_4.png"  transform="matrix(1.0026 0 0 1.0026 -4.013536e-02 4.791734e-02)">
	</image>
	<path class="st1" d="M287.3,6.5l1.8,2.2l-12.3,0.2l-10,3.5l-5.1,3.7l-2.9-1.9h-9.6l-5.9,3.1l-6.7-5.1l-7.8,0.1l-7.6,2.7l-3.8,3.4
		l-3,11.4l-11.8,8.5l-4.4,11.5l-6.8-5.9l-3.2,1.3l2.3,4.8L180,46.2h-8.4l-10.5,2l-5.2,4.1l-8.1,9.4l-8-1.1l4.5-1.5v-3.9L113.8,57
		l-11.3,4.3l-2.3,2.8l7.2,1.3L97.6,72l-5.3,6.4v3.4l-6.2,5.9l-3.6,7l-2.4,18.7l7.3-2.4l-2.3,5.4L69.8,115l-20,6.2l-7.4,3.5l-13,12.3
		l16.2,0.2l-8.9,5.7l-3.4,3.9l-10.9,23l-2.2,10.5v11l5.3-4.1h2.7v5.9l-9.9,4.7l9,2.3l-9.9,4.6L6.6,219.6l5.1-0.9l-8.8,11.5l7.2,7.9
		l3.5,9.1l-1.2,12.6l6.9-4.6l-3.9,30l16.1-18.8l6-1.2l5.3-4.2l0.6,7l-3.3,9.2l17-8.8l0.8,15.3L53,308.3l1.4,11.5l8.1-15.7L62,318.5
		l1.3,8.3l3.4-5l1.3,6.4l8.3,10.8l12.5,10.9h3.1l8.4-19.9v-2.9l11.3,8.1h1.6l0.6-7.5l3.8,14.1l4.5,5.7l9.2-15.8v-7.2l-3-9.8V314
		l12,2.4v-13.1l-2-5.1l4.2,2.5l-2.3-7l-3.3-9.5l5.9,4l-2.9-10.3l-8-9.9l8,4.1l6.3,6.7l3.7,8.9l3.8-6.8l12.1,27.8l4.1-24l5.5-5.8
		l1.2-4.8l2.3,0.7l4,13.7l6.7-9.8l4.9-9.1l0.8-6.5l5.9,7.6l-0.3-11.5l-4.3-15.2l-6.1-13.8l7.3,5.1l1.1-8.5l3.8,14.1l4.3,6.7
		l9.4-16.8v-7.2l-3-10.5l12,2.4v-13.1l-2.1-5.6l2.9,1.8l3.6,10.4l4,6.3l13.7-11.2l9-12l0.8-5.7l3.1,4.2l1.3-7l-0.3-14.7l8.4,16
		l0.9-8.1l-0.9-11l1.7-6.1l5-4.7l0.8,6.1l4.9,8.5l2.9,20.6l4.6-11l2.2-0.4l-3.8,9.7v5.3l4.2,9.9l9.4,11.8l3.8-14.7l5.6-4.8v5.6
		l2.7,6.1l6.3,7.3l2.5,15.3l-10.5-0.5l-5.9,2.5l-8.4,8.4l-3.2,8.5l-4.4,20.8l0.1,11.3l0.8,8.8l8.4-17.3l-1.3,15.8l2.3,7.3l2.8-4.4
		l3.1,9.5l7.2,8.4l14,10.8l10.3-23l11.9,8.8l0.6-9.8l3.1,11.4l4.7,10.3l8.6-13.7l1-8.9L364,283l12.8,2.7v-13.1l-2.5-5.4h1.9l2.2,2.9
		l0.6-3l9.1,8.1l7.3,10.1l3-4.4l0.1-7.1l-4.9-11.9l2.8-16.7l6.4,8.2l3.7-13.1v-11.5l7.5,2.4l-2.6-13.5l-2.2-6l-11.9-18.4l7.1-13
		l0.9-8.6l3.3,4.8l0.8-8l-1.6-19.4l3.3,4.3l6.3,14.8l0.9-9.5l-2.8-21.8l-5.8-20.2l-2.7-5l-6.6-8.2l-6.9-3.3h-7l-12.9-29.5l-4.8-4.3
		l-8-4.1l16.9-0.1l-8.9-9.2l-9-5.9L338,40.2h-9.7v-2.7l-7.9-11.3h7.2l-4.8-5.3l-9.4-7.5L289.1,2.5L287.3,6.5z"/>
</g>
<g id="prop_2_19_5" transform="translate(1633, 646)">
	<rect x="73" y="-140" class="st0" width="372" height="328"/>
	<title  style="display:none">Leaves 5</title>
	
		<image style="overflow:visible;enable-background:new    ;" width="371" height="327" xlink:href="../../_common/prop_sprites//leaves_2_19_5_leaves_5.png"  transform="matrix(1.0029 0 0 1.0029 -2.941789e-02 3.334330e-02)">
	</image>
	<path class="st1" d="M125.5,9.5l-16.7,12.9l7.4-2.4l-2.9,12.2h-9.7l-4.8-7.3l-7-3.7H76.3L71.6,23l-2.8,2.8l-15.2,7.5L42,42.7
		l-3.3,4.4l18.7-4.6l-13,9.2l-4.5,6.1H45L40.2,66l-2.4,15.3l-12.3,5.4L12.1,99.1l16.7,0.3l-9.8,6.3l-3.7,5L4.5,135.5l-1.3,18.9
		l7-4.7l1.9,3v7.6l6.6,13.6l4.1-9.8l5.3,14.7v6.2l-2.2,9.8l4.4,10l7.9-15.1L37,201.9l4.1-3.9l-0.3,6.8l2.6,9l7.1,12.7l5.3,6.5
		l16.6-19.3L81,226l3-8.2l0.2,16l1.4,5.8l13.3-11.4l2.5-5.3l0.6-14l10.6,6.2l3.6-10.2l0.1-9.1l3.3,4.7l-0.2-17.6l3.9,5.3l0.6-10.5
		l-6.6-14.3l-8.6-5.3l-4.9-4.1l-0.3-5.6l-2.1-2.1l-0.1-14.9l-3.5-6.9l2.4-0.2l3.7,7.3l1.2-8.2l-2.9-19.6l8.5,2.5l-4.6-3.9l4.1-6.6
		v4.7l3-2.5l6.7-12l0.9,6.8l8.8-13l0.6,7l2.1,7.4l7,10.5l-5.4,13.3l13.9-9.4l-7.3,12.2l-1.2,7.1l4.2-2.9l-0.7,15.9l8.1,20.4h2.2
		l18.7-14.5l1.2,2.9L149.9,170l8.3-3.4l-2.1,13.3l0.6,14.9l3.7-6.5l2.4-0.3l-3.8,7.6l0.7,21.2l6.4,12.9l2.8,4.1l8.3-8.4l2.2,9.7
		l2.8,6.1l6,6.7l0.6,8.9l3.4-3.8v6.4l3.5,11.2h2.9l8.2-4.9l0.8,12l2.4,7.2l13.3,11.4l1.4-4.6l-0.4-19l3.6,9.7l8.1-11.2l6,17.8
		l3.4-8.8l0.2,11.1l5.3,8.5l13.2,11.5l0.1-14.1l4.8-6.4l2.5,7.5l13.9,11.9l-3.3-7.9l4,5.1l15.2,4.7l10,6.4l8.4,9.6l1.6-5.9V317
		l-5.9-10.2l-0.1-18.9l7.7,7.3l2.3-12.8L323,270l8.1,2.8l-0.8-6.9l9.3,9.3l7.7,13.2l3.1-7.1l0.4-5.7l-2.9-10.5l4.3-17.6l5.5,8.8
		l5.8-11.7l0.9-12.6l8.1,5.3l-2.1-14.5l-3-10.3l-9.3-17.8l-4.9-6.5l-9.4-4.8l15.9-1.5l-11.9-10.7l-8.3-3.9l-18.1-5.1h-11.6l-0.3-9.1
		l6.2,5.2l4.1-15.7l-0.6-9.6l-4-8.3V117l-3.3-6.4l-4.8-7.3l7.9,1.7l-12.6-12.5l-1.4-9.3L288,57l-12-7.8l17.4-0.2l-15.6-12.6l-26-8.2
		h-9l-17.8,7l-17.9-17.1l-3,1.1l2.6,5.1l-11.6-5.1h-18.6L163.9,4.4l-3.6,2.2l2.1,4.2l-12.7-6.6h-17.4L125.5,9.5z"/>
</g>
<g id="prop_2_19_6" transform="translate(746, 365)">
	<rect y="-87" class="st0" width="402" height="280"/>
	<title  style="display:none">Leaves 6</title>
	
		<image style="overflow:visible;enable-background:new    ;" width="401" height="279" xlink:href="../../_common/prop_sprites//leaves_2_19_6_leaves_6.png"  transform="matrix(1.0028 0 0 1.0028 -7.134216e-02 0.1025)">
	</image>
	<path class="st1" d="M166.8,9.6L154.4,8l-7.2,3.4l-9.6,11.1l-0.8,7.2l-2.9,6.5l-1.8-1.2l-2.9,2.4l3.1,4.3l-10.6-1.9l-11.3,0.4
		l-6.7,2.3L99,46.7L88,61.6l-26-9.3H51.8l-19,6.2l-7,3.6l-13,12.1l17,0.2l-8,4.1L18,81.7L5.2,108.4l-1.9,20l8.3-4.6l0.6,12.3
		l6.4,11.3l4.4-8.5l3.4,10.1l-15.9,21l7.2-4.4l1.7,20.1l2.3,8l2.1-6.8l2.1-0.7l0.1,18.5l4,10.3l1.7,13.9l5.2-3.2l4.4,4v8.6l3.2,9.4
		l4.3,6.5l5.3,3.2l14.7-15.2l7.1,1l14.8-10.3l4.7-7l1.1-5.4l3.8-3.4l0.4,4.6l3.6-3.7v9.9l1.3,4.8l13,2.7l6.8,4.2l5.2,8.2l2.7-3.8
		v-4.1l17,25v-23.4l3.8-4.8l1.9-7.3l5.4,7.4l2,7l7.1-16l1.1-11.4l6.6,5.1l-1.2-7.7l-2.7-6.7v-4.8l4.3-8.1l1.9,5.6l5.3,5.8l9.2,6.5
		l-3-7.1l4.8,5.1l13.5,3.2l10.3,5.2l11.4,10.7l0.3-10.9l-7-13.2v-16.2l6.6,6.4l2.2-12.9l-3-11.8l6.3,0.9l6.9,8.5l0.4,13.9l4.1-6.4
		l1.4,1.2v8.2l10.7,18.3l0.5-10.6l2.2-1.3l-0.2,12l5.2,7.1l-2.2,15.8l9-11.8l1.8,1.3l-3.3,11.1v7.8l4-4.2v7.2l7.4,15.3l10.5,11.3
		l14.9-20.3l8.6,10l3.3-8l0.1,13.8l3.2,9.3l11.9-12.4l1.6-6.2v-13.9l11.4,5.5l1.9-9l0.1-11l3.4,3.8l-0.1-9.2l16.8,5l8,4.7l10.3,9.8
		l2-8.7l-8.2-14.3l-0.1-17.2l7.7,6.9l1.7-9.3l-0.1-6.4l-3-9.4l9,2.4l-5.2-13.6l-2.1-27l6.9,3.9l2.3-14.9l-0.4-8.9l-5.2-9.6v-6.5
		l-10.4-13h6.5l-4.8-5.3l-10.2-6.5l-21.9-7.2l-2.1-8.1l5.5,3.3v-6.4l-4.8-8.5l-6.9-8L335,51.3l-2.8-7.7l-5-3.2l-13.9-1.2l-7.8,7
		l-7.4-1.7l-7.8,0.4l-22-17.4l-13.5-1.6l14.3-7.4L250.9,13l-30.1,4.2l-7.8,6l-5.2-4.9l-12-4.7l-2.2-6.9l-6.8-3.5h-13.3L166.8,9.6z"
		/>
</g>
<g id="prop_2_19_7" transform="translate(1205, 565)">
	<rect x="-68" y="-138" class="st0" width="418" height="307"/>
	<title  style="display:none">Leaves 7</title>
	
		<image style="overflow:visible;enable-background:new    ;" width="417" height="306" xlink:href="../../_common/prop_sprites//leaves_2_19_7_leaves_7.png"  transform="matrix(1.0027 0 0 1.0027 -6.349982e-02 8.646964e-02)">
	</image>
	<path class="st1" d="M227.8,4.8l-4.5,2.5V11l-3.5,4l-9.8,3.6l-5.1,5l-7.4-5.5l-31.2-4.2l-17.9,6l14.4,7.2l-10.2,0.1l-8.2,4.5
		l-18.9,15.7l-10.3,16.3l9.8-0.2l-5,11.3l-17,1.5L85.5,86.5l13.3,2.7l3.8,1.8l-5.3,0.2l-9,4.2l-13,17.3L61.5,112l-1.4,2.3l-6.4-7.4
		l-12.9-0.2l-8,4.2l-2.6,7.7l-2.3,2.8l-11.4,5.7l-5.7,7L5,145.5l-1,10.2l5.2-4.7l-4.6,20.2l3.4-3l-0.9,15.5l1.7,6.3l11.7-4.7l-2,5.1
		L18,207.8l10.4,17.5l4.1-8.4l2.8-18.8l1.4,11.1l11.4-12.4l10.2,22.5L51.2,230l8.9-3.9l-3.8,3.7l-3.1,7.4L52,252.6l3.9-1.2L54,264.8
		l12.7,5.3l6.3,6.7l3.4,8l4.1-6l11.9,26.9l4.2-22.9l5.5-5.8l1.8-5.6l3.5,5.4l1.7,10.4l9.4-12.8l3.1-12.9l4.1,8.4l3.2-6.6l7.9,16.1
		l4.7,12.2l4.1-23.9l5.5-5.8l1.5-5.4l4.1,4.9l1.2,10.8l7.4-10.4l4.9-9.5l6.2,15.5l3.6-18l0.1-4.6l5-5l3.2-6.1l3,4.5l1.6,10.7
		l7.7-10.6l5-11.2l5.9,9.3l7.8,8.6l14.1-21.2l10.1,11.1l2.4-9l0.9,14.8l2.5,8.1l8-7.7l5.7-8.6l0.1-16.2l6.1,9.2l2.5-4.7l3.8,4.6
		l3.8,12.4h1.5l2.6,7.3h4.4l8.7-5.9l2.1,2.1l4.3-7.5l1.1,7.5l8.5,19.6l4.9,0.1l9.3-5.9l5.3-8.4l1.7-3.8l8.3,17.1l6.9,7.6l16.1-18.7
		l9.1,12l4-8.8l-1.2,15.3l2.1,7.1l12-9.9l4.2-7l0.1-13.5l10.8,6.6l3.9-12.8l-0.5-6.5l3.7,4.3v-16.9l3.9,4.9v-11.7l-6.9-13.2
		l-9.7-5.2l-3.5-5.4v-4.2l-7.7-7l3.3-6.4l-2.3-18.2l5.1-14.3l4.6,8.9l6.9-12.6l0.1-10.5l8.3,4.5l-1.9-17.2l-13.6-29.9l-10.7-7
		l15.6-1l-15.4-13.4L364,52.2h-7.3L329.9,62l-13.1-17.2l-7-4.1l-16.2-0.6l-7.2,2.3l1.9-3.8l-2.9-2.5l-1.8,1.2l-3.3-8.6v-3.5
		l-2.8-5.4l-8.7-8.3l-6.4-3.2h-8.2l-3,1.7l-6.5-5.6l-9.9-1L227.8,4.8z M323,87.9l-1.8,1.2l-2.5-4.9l4,0.4L323,87.9z"/>
</g>
<g id="prop_2_19_8" transform="translate(786, 1983)">
	<rect x="28" y="-154" class="st0" width="306" height="278"/>
	<title  style="display:none">Leaves 8</title>
	
		<image style="overflow:visible;enable-background:new    ;" width="305" height="277" xlink:href="../../_common/prop_sprites//leaves_2_19_8_leaves_8.png"  transform="matrix(1.0034 0 0 1.0034 -2.284689e-02 2.512525e-02)">
	</image>
	<path class="st1" d="M116.8,4.8l-4.4,3.8l-0.3,3.5l-3.3,2.7l-11.6,4.6l-6.9,8l-4,8.3L85.9,43l5.7-5.3l-3,10.4l-1.2,7.4l4.3-3.8
		L90,57.9l-10.8,9l12.1,0.3l0.1,3.1L89,72.1l-26.3-10l-10.6-0.3L27.6,70L12.2,83.4l17.5,0.4L17.1,92L4.2,120.6l-1.2,17l8.4-4.8v10.9
		l6.6,12.9l4.6-8.9l3.2,9.4l-9.6,6.3L5,179.8l17.6-4.4l-8.4,7.2l-3.7,7.3l-5.4,26.6l2.6,18.8l4.9-6h2.7l2.3,9.5l9.1,10.8l2.2-9.5
		l6.6,10.5l2.8,8v11l5.3,8.8l4.8-14.9l6.1-9.7l11.2-12.1l1.2,3.1l3.4-6.4l2.3-9.8l-0.5-7.8l6,3.6l7.9,12l3.4-7.5l2.7-10.5l-0.1-9.7
		l-7.1-9.3h3.2l4,6.5l1.4,5.5h3.9l7.6-3.9l6.3-7.2l3.9-7.7l1.6-8.8l8.3,8.7l7.1-14.1l2.3-11.5l-1-14.3l-4-6.8l2.8-0.4l3.5,7.2
		l1.1-7.7l-2.6-21.3l5.8,4.3l4.9,13.7l11.1-18.3l3.2,18.1l3.6-0.4l6.2,21.3l5.5-5.3l3,28.8l5.9,0.8l9.1-3.5l10.8-8.7v7.1l3.2,14.4
		l4,6.5l19.8-12.8l0.5,19.1l2.2,8.1l3.9-7.4l0.2,14.1l2.3,10.8l4.8,9.5l8.5,9.7l6.8-9.3l4.3,10.3l9.7,8.7l8.8,3.3l5.4-0.2l5.3-28.3
		l4.1,5.5l8.6-20.7l-2.3-11.1v-12.5l-5.2-10.2l8.1,1.8l-8.7-11.5l-7.9-6.5l0.9-7l-2.2-11.8l-3.4-5.2l1.3-12.7l7.4,4.6l-1.2-17
		L279,93.8l-10.7-7l15.6-1l-15.4-13.4L243,64.2h-7.7l-9.1,3.9l-10,3.1l0.8-7.8l6.3,3.7l-17.5-22.3l-7-4.1l-24.1,1.2l2.6-3.4
		l-2.9-2.5l-1.8,1.2l-3.3-8.6v-3.5l-2.8-5.4l-8.7-8.3l-6.4-3.2h-8.2l-3.9,2.1v-2l-5.6-4l-9.9-1L116.8,4.8z"/>
</g>
<g id="prop_2_20_1" transform="translate(2015, 646)">
	<rect x="24" y="18" class="st0" width="300" height="367"/>
	<title  style="display:none">Trunk 1</title>
	
		<image style="overflow:visible;enable-background:new    ;" width="299" height="366" xlink:href="../../_common/prop_sprites//trunks_2_20_1_trunk_1.png"  transform="matrix(1.003 0 0 1.003 5.488748e-02 -4.488037e-02)">
	</image>
	<path class="st1" d="M101.1,11.3l-3.6-4.1l-3.7,0.2l3.3,7.3l6.4,6l3,5.7L103,39.3l5.3,11.4l4.6,33.2l0.9,22.5l-13.3,12.3l-5.4,8.8
		l-10.7-1.3l-35.5-11.9l-3.6-4.6l-6.6-13l0.4-11l2.3-8.8L39.9,75l-3.6,4.2L31.8,78l-8.5-11.9l-5.7-1.2l0.2-4.1l-2.4,0.1l-1,2.9
		l-5-1.5l-6.6-9.5L3,57.3l8,15.6l8.4-0.8l2.8,2.4l11.2,19.6l-1.7,7.1l-16.1-8.7l-1,1l15.9,12.7L45.1,122l5,1.2l32,19.7l42.2,19.7
		l3.8,7.3l10.4,29.9l2.9,19.7l-4.2,12.7h-5.8l-4,4.2l-1.8,10.5l-4.9,15l-10.9,14.5l-0.1,6.5l2.6,8.8l-10.5,14.8l-11.4,12.3
		l-12.5,5.7l-4.7,8.7l-6.7,3.1l-22.2,14.2l18.8,4.6l-7.6,7.4l24.8,4.4l65.1-13.9l39.2,1.5l47.2-3.1l20.1,2.2l3.4-1.5l-29.5-20.6
		l-17.1-35.6l8.7-73.2l-1.4-14.3l22.9-22l9.3-12.4v-6.6l14.5-14.2l5.4-2.7l10.7,3.4l14.1-2.2l6.8-7.8l-1-1.1l-7,4.9l-10-0.2
		l-17.3-5.3l-8,0.2l-4.8,4.8l-7.9,2.7h-20.3l-1.4-7.2l-7-7.5v-7.8l11.6-22.9L238,87.7l10.1-7.8l14.9-2.2l8.6-2.4L284,61l7.1-5.9
		l-1-1l-14.4,9.2l-6.5,5.6l-21.6,4.5h-11.7l-8.4,9.1l-15.6,22.9L193,127.2l-10.6-12.5l-6.1-12.6l4.6-33l-2.1-6.8v-6.8L189,45.3
		l10.4-26.4l0.5-8.8l-2.8,1L189,28.4l-0.8,6.4l-9.2,8.9l-9.3,7.1l1.5,13.4l-1.2,7l-5.9,8.2l-4.4,15.2l-5.6,10.7l-8,3.8l-4.5-7.8
		l-2-7.6l-4.5-7.6l6.3-12.4l-4-0.3l-5.4,5.2l-3.6-4.8l-9-18.1l-4.2-25.3v-5.1l-9.3-8.7v-5.9l1.6-6.5h-2.4L101.1,11.3z"/>
</g>
<g id="prop_2_20_2" transform="translate(402, 1502)">
	<rect x="52" y="49" class="st0" width="309" height="334"/>
	<title  style="display:none">Trunk 2</title>
	
		<image style="overflow:visible;enable-background:new    ;" width="308" height="333" xlink:href="../../_common/prop_sprites//trunks_2_20_2_trunk_2.png"  transform="matrix(1.0031 0 0 1.0031 2.022943e-02 -1.873990e-02)">
	</image>
	<path class="st1" d="M140.1,13.4l-2,6.3l-7.8,7.4l-0.2,5.5l-4.8,14.8l9.9,25.2L117,98.1l-11,0.8L64.3,83.6l-5.4-18.5l-14.1-9.9
		l-3.3-0.1l0.8,3.1L54,71.4l3.3,29.2l2.5,3l16.9,8l-4.3,7.8l3.6,0.4l4.1-3.6l4.8-0.4l12.7,11.9L67,154.1L52.9,143l-7.8-0.5l-9.7,2.8
		l-4.5-0.5L13,124.1l-4,0.8l11.3,18.7l12,16.6l10.3-6.1l25.6,22.3l16-9.3l7.1-0.6l9.1,19.5l7.2,30.2l-1.7,8.5l-8.2,5.2l-10.1,8
		L68.8,281l-9.7,3.4L48,285.3l-3.6,1.9l-1.3,7.1l-4.4,2.8l-11.9,3.4l-22.6,10v1.9l10.5,4l44.8,6.8l-4.3,5l3.8,2.3l10.3,1.8l36.8,0.8
		l37.6-10l30.3,2.2l20.3-3.3v-4.5l-29.9-21.8l-0.4-0.4l8.5-26.3l-1.3-6.6l-21.1-36.5l-2.8-7.8l3.1-13.7l7.4-2.1l18.5-0.3l16.3-2.9
		l25.3-0.9l12.3-29.6l28.6-9.7l26-0.1l16.5,9.5l4.2,0.4v-2.5l-12.7-7.8l-2.4-1.5l19.9-28.8l-3.1-0.3l-12.3,15.6l-9.3,5.8l-37.3,4.5
		v-7.3l-4.9,1.8l-9,12.4l-16.2,9.1l-2.8,5.2l-6,8.3l-44,1.1l-5.6-8.4l5.5-16.7l6.3-9.4l13.1-13.5h5.3l9,3.3l16.1-10.5l-3.8-0.9
		l-4.4,3.1h-7.6l-17.6-6.3h-5.4l-10.7,9.4l-13.4,1l-7-5.4l-4.5-10.1L151.8,80l-9.9-18.7l-7.9-20l-0.4-4.8l8.6-9.5l2.3-11l-1.6-12.9
		l-4.7-0.6L140.1,13.4z"/>
</g>
<g id="prop_2_20_3" transform="translate(5, 2035)">
	<rect x="43" y="92" class="st0" width="296" height="296"/>
	<title  style="display:none">Trunk Fat</title>
	
		<image style="overflow:visible;enable-background:new    ;" width="295" height="295" xlink:href="../../_common/prop_sprites//trunks_2_20_3_trunk_fat.png"  transform="matrix(1.0034 0 0 1.0034 0 -2.691325e-05)">
	</image>
	<path class="st1" d="M288.1,12.1l-18.7,23.1l-2.5,6.8l1.7,11.8l-21.4,27.1l-20,12.7l-20.5,10.2l-10.5,2.9L169,134.8l-2.1-2.5
		l-0.4-10.6l-2.5-8.3l5-10.9l-2-9.9l5.2-9.6l-1.2-2l-7.8,7.6l1.2,6.3l-5.5,6.5l-5.5-13.7l-1.4-17l-3.8-8l-8.9-8.8l11-11.9l-1.2-3.6
		l13.4-6.2l-1.2-1.3l-10,4.3l-4.7,0.8v5.9l-11.5,7.5l-2.8-2.4l-4.1-8.4l6.8-23l3.9-7.6l-7.3,1.4L123,29.3l-2.6-5.9l-4.8-5.1l2.1-6.6
		l-2.4-0.7l-2,7.1l6.1,10.2l-1.3,12.3l-2.3,6.4l12.1,13.7l3.8,7.1l-1.3,6.9L107.9,110l-5.8,0.3L76.8,99.8L33.3,63.1l-4.1-22.7
		L4.2,19l-1,1l13.4,19.7l5.3,15l5.1,49.6l19.1,20.9l12,10.7l16.7,8.2l6.9,1.8l-3.3,15.6l14,14.6L80,197l-23.8,32.7l-2.7,10.1
		l-6.9-4.1l-5.1,0.4l-10.4,15.8l2.7,1.3l-4,7.8L3.2,287.5l-0.4,3.1l51.3-0.9l6.7,4l30.2,2.5l39.8-1.1l22.1-5.8l32.9,3.1l33.8-2.3
		l7.9,1.2l17.2-4.1l11.9,5.3l6.3-4.9l7.7,1.6v-8.3l-26-28.4l-5.5-9.5l2.4-17.5l-19.9-28.1l-4.7-13.3l-4.3-0.6l-0.3-4.1l7.7-6.2
		l6.5-37.9l25.4-27.3l24-31.3l2.6-6.5l-5.2-20.9l0.5-8.5l21-34l0.8-3.9l-2.3,0.6L288.1,12.1z"/>
</g>
<g id="prop_2_20_4" transform="translate(1903, 1205)">
	<rect x="87" y="48" class="st0" width="214" height="342"/>
	<title  style="display:none">Trunk 3</title>
	
		<image style="overflow:visible;enable-background:new    ;" width="213" height="341" xlink:href="../../_common/prop_sprites//trunks_2_20_4_trunk_3.png"  transform="matrix(1.0034 0 0 1.0034 0.135 -8.441053e-02)">
	</image>
	<path class="st1" d="M119.8,14l5.5,21.7l-10.9,45.9l-3,4.7l-7.6,5.8L98,86.7L86.3,71.2L85,67.1l3.9-7.9l-7.1,0.4l-4.9-13.5
		l-3.3-5.5l0.5,6.1L78,64.5l0.2,8.4l-9,1.7l7.9,3.6h5.7L92.3,92l9.4,7.6l2.5,5.7l-0.3,20L91,136l-10.7,6.2l-5.6-2.1l-17.6-17.4
		l-8.9-12.3l-18.5-2.5l-3.7-1.3l-7.8-10.9l-5-10v-6.1l-9.5-9.3L4,97.6l16,13.5l5.5,11.6l3,3.4l17.8,7.4l23.2,28.7h1.8v3l11,14.9
		v22.6l-2.1,12.8L75.8,229l-19,25.9l-7.5,14l-3.6,27.4L39,308.8l-8.1,9.8l-11.6,8.5l-11,4.2l2.3,5.1l33.7,0.2l28.7,5.2h14l14-4.5
		l12.7-0.4l13.6-3.6l17.7,4l32.2,0.3l23.5-3.4l6.5,2.7h6.3l0.7-5.3L197.3,308l0.3-16.2l-4.4-8.6l-37.3-45.6l-1.8-6.2l3.4-10.3
		l-1.1-5.8l-12.2-30.2l2.5-3l9.4-5.4l8.3-9.9l10.9-21.4l10.7-1l17.5-9.3l-0.6-5.6l-12.1,5.8H185l-7.6-2.3l-7.9,5.2l-8.6,3.4v-21.9
		l6.8-10.7l3.5-10.2l13.8-0.3l1.3-1.9l-8.1-3.7l-1.8-3.3l25.3-34l-5.4-15l1.6-32.4l-3.6-2.6l-3.8,31.3l4,12.5l-44.5,42l3.6,10.3
		l-17.1,21.9l-9.2-33.9l9.7-42.6L123.2,2.9L119.8,14z"/>
</g>
<g id="prop_2_20_5" transform="translate(900, 1205)">
	<rect x="87" y="19" class="st0" width="271" height="387"/>
	<title  style="display:none">Trunk 4</title>
	
		<image style="overflow:visible;enable-background:new    ;" width="270" height="386" xlink:href="../../_common/prop_sprites//trunks_2_20_5_trunk_4.png"  transform="matrix(1.003 0 0 1.003 0.1009 -7.062680e-02)">
	</image>
	<path class="st1" d="M159.3,7.4l5.3,17.3l4.8,5.8l-1.3,6.2l-4,11.4l-8.7-3.3l-0.1,2.3l8.9,10.1l-2.3,6.5l-15.3,22.6l-7.6,5.2
		l-29.6-22.3H93.8l-3.7-1.5l-9.4-14.9L76,53.4l1.4,8L93,80.8l5.7,4.5l5.6-1.2l6,9.4l3.2,8.4l-0.1,5.7l-18.8,10.1l-5.8,7.6l-6.1,4.4
		l-11.9-0.2l-28.9-11.7l0.7,4.8l-0.4,2.7l-5,2v2.1l-7.5-1.4l7.6,9.3l-1.6,0.9l1.7,1.9l-2.9,1.4l18.4,11.8l15.4,12.2l4.9,7.4
		l5.8,20.7l0.3,20l-3.7,14.3l-20.4,21.6L47.3,260l-4.1,10.4v12.4l-2.2,7.9l-0.3,12.1l10.2,24.9l-7.3,13l-18.5,4.9l-6.5,4L2.9,368.9
		l25.1-0.2l13.3-2l37-0.1l8.8,1.6l-16.9,13.1l-0.9,3.7l2.2,2.3l53.4-6.8l4.8-8.2l3.6-0.1l6.8-4.2l7.9,6.9l43.7-0.1l2.8-1.6l-2.1-4.8
		l43.7-0.3l-8.6-5l-14.8-24.5l-13.4-9.8L186,297.7l2.3-8.6l-6-25.1l-8.2-22.2L163.8,229l-3.9-8.7l-2.9-21l10-19.6l9.8-15.7
		l20.8-19.6l5-6.9l12-7.8l5.4-5.7l5.2-20l4.6-6l26.7-15L271,72.4l-1.4-1.8l-49.9,18.1l-0.4-5.6l-3.8-12.4l6.3-10.4l0.1-2.6l-2.8-4.9
		l-9.2,18.7l-5.9-3l-0.8,2.7l9.5,10.5L214,90l-6,2l-6.6,18.3L184,124.1l-12.9,8.9l-22.9,2.4l1.3-18.7l3.6-4.1l19.3-39.9l10.7-10.5
		l-6.9-0.6l0.4-33.7l-5-3.9l0.4-12.5h-1.7l-2.1,6.3l-6.3-15.5L159.3,3V7.4z"/>
</g>
<g id="prop_2_20_6" transform="translate(786, 1602)">
	<rect x="68" y="43" class="st0" width="234" height="371"/>
	<title  style="display:none">Trunk 5</title>
	
		<image style="overflow:visible;enable-background:new    ;" width="233" height="370" xlink:href="../../_common/prop_sprites//trunks_2_20_6_trunk_5.png"  transform="matrix(1.0032 0 0 1.0032 0.1325 -8.355448e-02)">
	</image>
	<path class="st1" d="M181.3,5.7l5.1,11.3l-1,14.9l-2.9,14.9l-4.9,16.8l-4.3-5.9h-3.5l-7.9-4.6l-1.9,1.1l13.8,14l0.6,8l4.2,8.3
		l-1.1,6.9l-5.8,10.1l-3.9,2l-14.2-3.7l-28.4,4.7l-10.3-10L98.6,83.1l-6.1-6.4l-8.1-27l1.1-8.3l-6.1-4.9l-1.7,13.2l-11.8-7.9
		L60,32.4l-1.8-14.7l-2.4-7.6l-5.6,6.8l10,36.2l10.3,5.6l3.7,5l2.8,15l-2.6,5l17,31.6l0.9,18.7l5.4,11l-3.3,50.5l-41.2,66.2
		l-4.1,12.9l3.6,31.5l-32.6,29.5l-16.3,5.7l-0.2,1.8l38.5-0.8l36.8,2.2l3.3,2.8l0.3,7.9l-2.9,5.8l-14.8,8.4l0.3,1.4h5.6l14.4-5
		l27.4-4.1l1.7-6.9l3.5-3.7l9-0.3l12.2-5.5l10.8-1.7l27.5,5l16.8-2.4l13.8,1.3l0.1-1.3l-15.6-7.7l26.6-2.3l-11-8.3l-18.3-10.3
		l-9.5-11.2l3.9-7.5l2.2-10.6v-4.9L157,240.9l0.8-11.3l7.4-12v-29.1l9-10.1l3.3-6.5l0.4-10.9l54.6-39.3l0.6-4.3l-3.6-1.1l-15.5,6.4
		l-24.3,17.6l-3.9,0.1l1.6-10.2L195,110l1.3-8.3l-9.1-25.2l2.7-31.6l11.4-9.3l-3.9-0.7l-6.9,5.5l0.1-7.4l2.3-10.6l-1.4-7.8l-1.7-0.1
		l-5.9-11.3l-2.4-1.1L181.3,5.7z"/>
</g>
<g id="prop_2_20_7" transform="translate(544, 1846)">
	<rect x="59" y="16" class="st0" width="232" height="400"/>
	<title  style="display:none">Trunk 6</title>
	
		<image style="overflow:visible;enable-background:new    ;" width="231" height="399" xlink:href="../../_common/prop_sprites//trunks_2_20_7_trunk_6.png"  transform="matrix(1.003 0 0 1.003 0.1576 -9.137535e-02)">
	</image>
	<path class="st1" d="M40.6,6.7l5.6,23.8l-0.7,25.6l0.6,20.7l-3.5,0.4L40.3,84l-5.8,2.4L5,71.3l-2.9,3.9l14.1,9.6l4.6,6.6l14,7.3
		l4.4,6.6l16.7,41.3l18.7,70.3v14.5L69,251.2l3.3,8.6v6.5l-11.7,25.4l-1.3,5.5l2.2,4.3l-3.9,6.4l-4.4,12.5l3.2,11.1l-4.2,7l9.5,6.5
		l-1.3,4.4l-12.8,8.3l-14.1,5l-3.6,4.3v4.7l19,2.5l20.2-1.7l7.1,5.7l-0.3,5.4l-2.7,3.7l-16.3,10.5l0.2,2.3l7.5-0.4l26.5-5.1
		l31.2-4.6l21.6-9.3L138,375l0.9-1l16.8-3.2l40.7,3.2l13.3-1.8l16.5,2.8l6-1.8l-26-28l-9-3.5v-3.2l-6.9-29.4l6-17.9l-13.2-43.7
		l-10.7-41.3l-14.2-58.6l6.1-29.6l10.6-5.5l11.4-12.1l-4.9,0.9l8.1-6.2l-3.1-0.8l-6.7,4.3l-14.8,6.2l-10.6,2.4l-6.4-2.7l-5.7-4.8
		v-3.4l37.2-44.9l7.2-13.2l-0.4-2.5l-10.1,8.7l-5.1,3.5l-0.8-2.3l-3.4,4.1l-0.5-6.3l-28.1,28.4L122.8,85l-13.4-17.6l-3.1-11
		l-4.7-36.6l-1.8-0.7l-7.6,27.1L89,51.4l-10.9,8.8l-5.3-2.8l-8.3-8.7l-5.1-8.3L44.3,3.2l-2.5,0.4L40.6,6.7z"/>
</g>
<g id="prop_2_20_8" transform="translate(345, 1846)">
	<rect x="86" y="-87" class="st0" width="189" height="490"/>
	<title  style="display:none">Trunk Thin</title>
	
		<image style="overflow:visible;enable-background:new    ;" width="188" height="489" xlink:href="../../_common/prop_sprites//trunks_2_20_8_trunk_thin.png"  transform="matrix(1.0025 0 0 1.0025 0.2681 -0.1032)">
	</image>
	<path class="st1" d="M72.9,46.5l11.6,20l5.6,17.4L77.3,133l-5.9,11.7l-6,6.5l-20.7-9.4l-15.9-9.4l-13-10.4l-11.3-5.6l-0.8,7.4
		l18.9,23.5l-8.7-0.2l4.7,12.3l23,11.2l21,28.4l12.8,12.8l6.1,10.8l11,40.5l6.6,35.7L94.5,333l-3.3,6.4l-8.9,9.9l-8.5,13l-5.7,12.5
		L66.7,398l-10.9,22.8l-7.7,23.5L31,463l-0.6,2.7l3.1,3h15.4l-20.7,16.6l-0.5,2.3l22.1,0.1l7.9,1.7l10.1,0.1l15.2-9.9l8.1-5.9
		l17.4-3l34,2.3l19.6-1.9l-20.3-12.8l23-1.1l2.8-2.1l-21.3-9.1l-6.7-5.9l-4.5-14.3l-3.1-37.1l11.2-33.2v-9.4l-4.8-11.4l1-68
		l3.9-11.8l8-11.8l3.3-7.4l0.4-17.5l12.1-6.1l-2.6-8.8l-9.3-0.4l-7.9,2.2v-7.2l14.3-26l26.9-22.4l-1.8-5.3l-42.3,22.2l-5.8-1.3
		l-9.4,4.6l-5.7,0.7l-11-11.2l-6.4-9.3l-3.7-11.9v-21l4.2-13.8l3.8-4.5l5.9,5.6l11.4-5.6l6-4.9l-5.9-0.8l-6.7,5l-3.2-1.9l-4.8-4.1
		l2.1-4.4L126.5,76l-6.3-1.6l3.1-9.1l-1.8-1.1l-7.3,14.5l-8.6,9l-4.2,11.2l2.9-27.8L104,55.2l-3.9-9l-6.8,14l-16-27.9L76.5,4.9
		l-3.8-1.7L72.9,46.5z"/>
</g>
<g id="prop_2_21_1" transform="translate(1102, 1911)">
	<rect x="-39" y="-23" class="st0" width="81" height="72"/>
	<title  style="display:none">Boulder Round Small</title>
	
		<image style="overflow:visible;enable-background:new    ;" width="80" height="71" xlink:href="../../_common/prop_sprites//boulders_2_21_1_boulder_round_small.png"  transform="matrix(1.0132 0 0 1.0132 -2.793810e-02 3.142802e-02)">
	</image>
	<path class="st1" d="M26.9,4.8L3.3,33.2v2.5l4,14.9l0.4,4.5l32.8,16.4l33.6-11.9L80,53l-4.5-17.5l-15-19.8l-3.8-3.2L42,10L32,4.1
		L26.9,4.8z"/>
</g>
<g id="prop_2_21_2" transform="translate(894, 2271)">
	<rect x="-63" y="-60" class="st0" width="137" height="123"/>
	<title  style="display:none">Boulder Round Medium</title>
	
		<image style="overflow:visible;enable-background:new    ;" width="136" height="122" xlink:href="../../_common/prop_sprites//boulders_2_21_2_boulder_round_medium.png"  transform="matrix(1.0077 0 0 1.0077 -2.559012e-02 2.848783e-02)">
	</image>
	<path class="st1" d="M32.8,27.3L7.3,41.4L6.2,64.9l-1.3,6.4l-0.7,9.6L35,103.8l13.8-15.5l5.3-0.1l2,2.5l10.8,27.8l14.8-7.6l4.6,4.6
		v2.5l4.9,3.2l3.4,0.4l41.9-35.3l-1.1-8.8l-12.2-30.7l-2.8-4.4l-7-2.3l-2.1-7.4v-3.5l-4-2.5l-27.5-9l-4.3-7.9L69.9,7L51.8,3.2h-4.4
		L32.8,27.3z"/>
</g>
<g id="prop_2_21_3" transform="translate(1629, 984)">
	<rect x="-99" y="-96" class="st0" width="198" height="203"/>
	<title  style="display:none">Boulder Round Large</title>
	
		<image style="overflow:visible;enable-background:new    ;" width="197" height="202" xlink:href="../../_common/prop_sprites//boulders_2_21_3_boulder_round_large.png"  transform="matrix(1.005 0 0 1.005 6.342992e-03 -6.213287e-03)">
	</image>
	<path class="st1" d="M38.8,32.5l-9.4,10.2v4l8.5,14.1l-7.4-0.1L14.4,85.1L3.3,109l10.8,29.8l1.4,7.5l4.8,3.1l20.5,8.5l7.6,18
		l5.4,2.4l16.5,11.3l7.9-4.5l15.6,13.1h2.3l2.4,3h3.1l11.2-4.1l27.4-29l9.1,5l32.9-40.5l15.1-22.2l-8.1-31.6l-14.5-41.9l-6-3.7
		l-19.4-8.3l-13.6-7.5l-4.6-0.2l-17.8,9.9l-10.6-15.4l-15-7.4l-5-1.1L38.8,32.5z"/>
</g>
<g id="prop_2_21_4" transform="translate(721, 1502)">
	<rect x="-53" y="-32" class="st0" width="114" height="87"/>
	<title  style="display:none">Boulder Tri Small</title>
	
		<image style="overflow:visible;enable-background:new    ;" width="113" height="86" xlink:href="../../_common/prop_sprites//boulders_2_21_4_boulder_tri_small.png"  transform="matrix(1.0099 0 0 1.0099 -5.762516e-02 7.558580e-02)">
	</image>
	<path class="st1" d="M56.8,10.7L26.7,52.6L21.5,55l-7.3,0.4L3.2,71l10.6,12l35.1,3L95,86.2l18.9-2.8l-4.8-12.9l-5.9-1.2l-2.4-4
		L90.1,54.2L91,31.6L73.8,5.7l-3.3-2L56.8,10.7z"/>
</g>
<g id="prop_2_21_5" transform="translate(1030, 1602)">
	<rect x="-72" y="-48" class="st0" width="158" height="108"/>
	<title  style="display:none">Boulder Tri Medium</title>
	
		<image style="overflow:visible;enable-background:new    ;" width="157" height="107" xlink:href="../../_common/prop_sprites//boulders_2_21_5_boulder_tri_medium.png"  transform="matrix(1.0073 0 0 1.0073 -7.417858e-02 0.1087)">
	</image>
	<path class="st1" d="M47.5,30.2h-7.9l-4.6,5h-2.3l-12.9-7h-2.5l-3.2,7.5L3.2,74.1l10.4,25.6l1.7,2.2l12.1,2.4L46,103l15.4,3.6
		l69.4-5.6l13.5,1.1l8.5-7.1l4.3-11.7l-23.3-15l-7.6-3.5l2.3-9.1L97.1,4.2l-3.3,0.1L47.5,30.2z"/>
</g>
<g id="prop_2_21_6" transform="translate(1837, 1023)">
	<rect x="-100" y="-96" class="st0" width="232" height="151"/>
	<title  style="display:none">Boulder Tri Large</title>
	
		<image style="overflow:visible;enable-background:new    ;" width="231" height="150" xlink:href="../../_common/prop_sprites//boulders_2_21_6_boulder_tri_large.png"  transform="matrix(1.005 0 0 1.005 -8.014619e-02 0.1233)">
	</image>
	<path class="st1" d="M81.9,33.8L63,54.7L50.3,73.9l-4.6,1.3h-4.4L29.5,92.7L9.6,114L7,123.7l-3.8,7.7l3.5,3.9l7.1,4.2l3,3.6
		l29.8,5.1h10.6l13.2-3.1l15.4,3.3l89-2.5l1-1.4l28.2,1.9l27.5-6.2l-42.9-77.5l-11.8-3.3l-6.3-0.2l-23.7-54l-7-2l-1,0.2L81.9,33.8z"
		/>
</g>
<g id="prop_2_21_7" transform="translate(5, 339)">
	<rect x="-194" y="-194" class="st0" width="731" height="317"/>
	<title  style="display:none">Logo Large</title>
	
		<image style="overflow:visible;enable-background:new    ;" width="730" height="316" xlink:href="../../_common/prop_sprites//boulders_2_21_7_logo_large.png"  transform="matrix(1.0017 0 0 1.0017 -0.1035 0.2388)">
	</image>
	<path class="st1" d="M135.1,192.3h-5.8l-1.2,2l-5.2,0.4l5.3,4.9v1.6l-6.3,3.3l4.8,3.7l-5.3,2.8l5.5,0.5l-2.7,4.7l8,5.1l-1.2,5h6
		l2.5,3l-1.3,11.8l2.4,0.8l-4.5,7.4h6.6l6.3,3.9l1.3,4.1h5.9l1.8,4l0.1,8.2l1.9,2.5l-1.3,5.3h4.6l4.4-2.1l0.7,2.1l7.1,0.8l0.8,14.4
		l4,5.8h4.2l-2.5,6.1l11.5-8l2.5,1l1.2-3.1l41.9-30.7l33-28.3l1.2-3.2v-12.4l-5.1-18.9l14.9-7.4l3.5,3.9h6l15.3-4.2l2.4-10.3
		l3.5-4.7l6.3-2.6l11.6,16.8l3.3,0.1l1.1,2.5l39.1-16.3l10.2,1.6l3.1,2.6l32.2,6.4l62.1,31.2l-13.6,10.8l-1.8,7.2L474,277l2.2,4.1
		l7,3.3l3.2-2.6l18.3,31.1l4.7,3.6l-1.3-4.3l1.8,0.6l8.1-6.9l5.1-1.9l1.3-5.8l19.2-11.5l5.3-7.8l5.1-2.6l1.2-5l8.9-6.1l1.2-3.9
		l4.4-0.6l0.6-5.6l3.6,1.1l2.1-2.5l1.4-5.4l3.5-1.1l3.1,1.1l1.2-5l6.2,1.2l-1.4-10.6l10,2.5l1.5-11.5l3.6-3.6l-3.5-9.9l5.7,1.9
		l-1.4-16.2l4.8-5l-4.6-7.9h8.3l-2.5-8.1l36.8,0.4l18,8.5l6.9,5.2h8.6l2.8-4.5l6.4-21l3-2.3l-8.2-25.1v-5.4l-2.7-3.2l-3.3-8.5
		l8.3-35.5l3.7-2.6l-1.1-1.9l5.4-17l5.2-5.3l11.5-8.6l7-2.3v-3.8h2.9l3.6-8l3.5-29h-8.5L704,4l-10.4,6.6L659.8,26l-32.1,14l-5.2,0.2
		l-0.8-2.3L586.4,45l22.8-11.8v-5.6l-3-4.2l-7-2.4l-52.4,25l-2.4-3.1l-52.7,6.6l-5.5,2.7l-4.5-4.5l-2,0.5l-4.6-7.2l1-2.8l-50.4,4.3
		l-3.5,3l-1.1-3l0.3-6.7l-0.2-1.8l-50.5,10.5l-2.4,3.2l-0.1-3.2l-52.8-3.8l-2.4-0.6l-2.8,2.4l-13.5-1.8l-1.2-1.7L228,41.2l-15,8.3
		l-7.3-2.2l-26.2-3.1L96.8,5l-7.1,2.4l-4.6,3.5l-1,9.2l65.5,32.7l-7.3,4.4l-0.9,3.8h-2.8l-0.3-2.5l-13.9-2.7l-2,2.8l-2.6-4.9
		l-13.4-5.4l-9-1.1l-1.5,4.6l-2.6-6.5L74,34.9L51,20l-3.7,1l-0.6-2.9l-17.4-5.8L10.5,3.2l-3.7,2L2.5,4.6l9.1,34.1l1.2,1L27,81.6
		l2.2,0.8l-1.1,1.7l4.1,8l14,47.6l5,10.2v2.9l5.8,13.8l3.9,0.6l-2.4,2l4.9,21.4l4,6.1l18.7-16.4l17.2-13.2l1.6-4.1l1.3,2.2l16-7.8
		l16.5,12.6l22.4,11.4l28-9.2l0.9-4.4l7.4,4.6L170,180L135.1,192.3z M528,178.6l2.6,1.6l-23.4,19.3L476,184.8l10.8-2.8l8-8.4
		l4.9-7.9l10.1,7.6L528,178.6z M264.3,176.1l-4.5,2.4l2.7-3.3h1.8V176.1z"/>
</g>
<g id="prop_2_21_8" transform="translate(5, 666)">
	<rect x="-194" y="-194" class="st0" width="677" height="294"/>
	<title  style="display:none">Logo Medium</title>
	
		<image style="overflow:visible;enable-background:new    ;" width="676" height="293" xlink:href="../../_common/prop_sprites//boulders_2_21_8_logo_medium.png"  transform="matrix(1.0018 0 0 1.0018 -0.1034 0.2384)">
	</image>
	<path class="st1" d="M482.8,163.1l9.2,3.9l-21.8,18.4l-30.6-14.1l6.7-1l6.3-3.2l10.5-13.7l9.3,7.9L482.8,163.1z M153.7,167.7
		l-38.5,12.9l3.8,5.6l-6.1,3.2l3.8,2.9l-3.9,3l5.1,0.4l-2.8,5.2l7.3,3.5l-1.2,4.9h5.9l2.3,4.3l-1.1,9.7h2l-3.6,7.8l9.8,1.5l3.2,5.7
		h5.5l2.9,12.9l-0.8,5.4l8.9-1.3v2h5.8l1.2,4.5v7.6l2.9,6.9h5.2l-2.6,6l10.7-7.8l2.5,0.9l1.2-2.9l39.4-29l30.3-25.8l0.3-14l-4.7-18
		l13.7-6.3l3,3.4l4.7,0.3l14.9-4.5l0.7-3.9l3.9-9.2l6.6-3.1l9.8,14.2l4,2.1l1.3,1.8l35.7-14.6l7.8,0.4l6.2,3.3l28.7,5.7l57,28.5
		l-13.2,11.4v8.2l5.1,31.3l2.2,5.5l6.6,3.2l3.5-2l16.9,28.9l4,2.1l-1.2-3.2h1.9l7.7-7h3.4l2.9-6.9l19.1-10.5l2-6.3l5.1-1.8l1.8-6
		l8-4.5l1.2-5h3.6l1.2-4.7l4.2,0.2l2.3-7l6.5,0.3v-5l6.2,1.4l-0.9-10.4l9.3,3.6l1.4-12l3-2.2l-3.5-9.5l5.5,1.2l-1.8-11.4l1.9-5.1
		l3.2-2.4l-5-7.9l8.8-0.2l-3.1-7.1l33.5,0.4l15.8,6.9l8,5.8h8.3l2.9-4.5l5.7-20l2.3-1.4l-7.5-22.7v-6.4h-1.9l-3.8-10.2l7.8-32.3
		l2.9-1.6v-4.2l4.2-14.2l10-9.3l12.9-6.4l-1-2.8h1.9l2.9-4.5l4.7-29.5L653.1,4l-36.3,18.3l-34.7,14.1l-1.3,1.9l-5-0.4l-0.1-2.4
		L541.6,42l22.6-11.2l0.6-4.1l-3.9-5.4l-7.3-0.4l-47.4,21.8l-1.6-2.7l-48.9,6.5l-5.6,2.2l-3.4-4.4l-2.3,1.6l-4.3-7v-3.8l-45.5,4.4
		l-4.1,3.5l-0.4-10.9l-46.5,9.5l-1.3,2.9l-2.5-2.6l-50.3-4.3l-2.6,2.8l-12.4-1.8l-1.2-2.2l-63.8,2.8l-12.9,7.2l-3.6-2l-25-2L89.8,5
		l-7.4,2.2l-4.1,5.3l0.3,6.1l60.8,30.8l-8.6,4.5l0.5,2.3h-3v-1.8L115,52.3l-1.4,1.6l-2.8-4.1l-15-5.5h-5.5l-1.4,3.6L87.1,43
		l-40-23.8l-3.6,1.6l-0.8-4.3l-16.9-5.7L10.9,3.2H8.8L5.9,5L2.5,4.7l7.8,30l2.3,4l12.7,37l2.6,0.3l-1.4,2.3l16.9,52.2l4.3,8.3l0.5,4
		l5,12l3.5-0.7l-2.3,2.8l5.1,20.9l2.9,4.6l32.3-26.6l2.4-4.7l1.3,2.1l15.2-6.9l14.5,10.9l19.4,10.1h5.5l22.5-8.2l0.9-3.4l6.8,4.2
		L153.7,167.7z M244.9,163.9l-4.9,2.3l3.5-4.7L244.9,163.9z"/>
</g>
<g id="prop_2_21_9" transform="translate(1205, 5)">
	<rect x="-194" y="-194" class="st0" width="617" height="268"/>
	<title  style="display:none">Logo Small</title>
	
		<image style="overflow:visible;enable-background:new    ;" width="616" height="267" xlink:href="../../_common/prop_sprites//boulders_2_21_9_logo_small.png"  transform="matrix(1.002 0 0 1.002 -0.1035 0.2384)">
	</image>
	<path class="st1" d="M431.1,147.1l18.3,5.3l-20.9,16.9L401.6,157l9.2-2.7l4.9-4.6l6.4-9.7L431.1,147.1z M115.8,162.4l-11.9,2.5
		l4.4,3.5v1.7l-6,3.9l4,1.5l-2.9,3.3h4.4l-2.9,4.9l6.4,3v4.5h4.9l2.3,4.2l-1.3,8.8h2.1l-4.3,7.2l7.4-0.2l5.4,5.8l4.9,0.7l2.5,12
		l-1.1,4.7l6.6-1l7.1,2l2.2,13.8l2.3,3.4h3.9l-2.3,4.9l9.2-6.3h3.1v-1.9l61.5-48.2l3.5-4.1v-9.3l-4.1-18.1l12.1-5.7l3.7,3.3h3.8
		l12.8-3.6l4.2-11.8l6.1-3.6l10.2,14.7l5.1,1.3l31.6-12.8l9.4,1.5l2.6,2.1l26.7,5.3l52,25.9l-11.8,11.3v8l5.5,31l6.9,4.5l2.9-2.9
		l15.3,26.6l4.1,2.6l-0.6-2.9l7.8-6.2l4.7-1.2v-3.5l4.5-4l11-6.2l4.5-4.2v-2.9l5.1-2l2-5.7l6.8-3.2l1.3-5.1h3.8v-4l5.4,0.2l1.2-6.7
		l6,0.5l0.3-4.2l5.9,1.5l-1-10l7.9,2.8l1-10.4l3.9-1.7l-3.6-9.2l4,1l-0.5-14l3.8-2.8l-3.5-7h8.1l-3.8-5.3l1.1-1.8l29.3,0.3l16.7,6.5
		l6.6,5.5h7.2l2.1-5.4l5.2-17.3l2.4-0.8l-7.1-21.1v-5l-2.4-1.6l-3.1-8.9l7.1-30.1h3l-1.1-2.9l5.1-15.1l9.3-8.2l11.2-5.1v-2.6
		l1.3-0.1l2.8-5l4.2-26.5L594,4.3l-9.1,5.7l-53,23.1l-2.4,2.6l-3.9-1l-0.3-2.5l-30.7,6.3l20.1-9.6v-7l-7.7-3.5l-44.2,19.9l-4.8-1.2
		l-41.2,5.2l-6.8,2.2l-2.4-3.3h-2.1l-3.6-5.5l0.3-3.8l-43.4,4.6l-1.5,2.2l-1.9-2.9l1.1-1.7l-1.3-5.1l-42,9.3l-1.9,2.4v-2.1
		l-46.8-4.2l-2,2.1l-11.6-1.3l-1.3-2.1L191.3,36l-11.2,6.3l-6.3-2L152,38L82.8,5.1l-6.4,1.2l-4.3,3.5l-0.3,7.5l54.8,28.2l-5.8,2.9
		l-2.2,2.8l-7.6-3.1l-7.7,0.5l-2.5-3.3l-13.5-5.1h-3.9l-2,3.5l-0.1-3.2l-3.5-3.1L43.2,17l-2.9,1.1v-2.5l-11.5-3.5l-19.9-9L5.9,5
		L3.3,4l0.1,5l6.5,22.8l12.8,37.1l2.3,0.9l0.2,3l18.4,54l0.6,4l4.7,11.1h3.5l-2.8,1.9l5.8,21.4l2,1.2l30.9-25.2v-2.9l2.9,1.1
		l12.3-5.9l14.3,10.5l19.1,9.4l22.4-7.4l2.1-3.8l6.1,3.9l-21.7,5.6L115.8,162.4z M223.3,149.9l-3.8,1.4l1.9-3.1l2,0.1L223.3,149.9z"
		/>
</g>
<g id="prop_2_21_10" transform="translate(5, 5)">
	<rect x="-194" y="-194" class="st0" width="746" height="324"/>
	<title  style="display:none">Logo Xlarge</title>
	
		<image style="overflow:visible;enable-background:new    ;" width="745" height="323" xlink:href="../../_common/prop_sprites//boulders_2_21_10_logo_xlarge.png"  transform="matrix(1.0016 0 0 1.0016 -0.1034 0.2384)">
	</image>
	<path class="st1" d="M6.8,5.2H2.5l8.9,33.5l2.5,2l-0.8,2.2l14,39.8l3.1,0.7l-1,1.7l18.1,58.5l4.9,9.5v2.5l6.3,15.3l4.2-0.8
		l-3.4,2.8l5.8,23.5l3.2,4.8l37.9-31.1v-3l2,1.2L125,161l16.6,12.6l21.1,10.8l6.3-0.5l24.4-8.9l0.6-3.4l8.2,4.7l-27.4,6.9l-36.4,13
		h-6.1v2H126l5.3,6.6l-7.4,4.8l4.8,3.4l-4.9,2.1l6,0.9l-2.7,5.1l8.2,5.2l-1.9,4.4h5.1l4.1,3.8l-1.3,11.7h2l-4,7.8l8.5,1.5l4.4,2.9
		l1.2,3.8l6.6,0.4l2.8,13l-0.5,7.8l10.1-2.4v2.2l7,0.2l0.7,15.3l4.6,6.6l3.6-0.3l-1.9,5.5l10.3-7.4h3.6v-2l38.6-28.1l38.1-32l2.3-5
		v-9.6l-5.6-21.6l15.5-7.6l4.3,5.1l20.3-5.4l5.3-14.2l8-3.6l4.8,8.6l6.7,8.4h3.2l1.7,3l39.5-16.7l8.9,1.3l6,3.3l31.7,6.2l63,31.8
		l-14.1,11.6l-1.4,5l6.6,41l2.8,4.6l3.4,1.2l3.2,2.8l3.8-3.1l18.7,32l4,2.2l-1.3-4.2l4.2,0.6l5.8-6.1l5.7-1.6l1.8-7.2l20.9-12.2
		l2.8-6.6l5-1.9l2.9-6.9l4.5-2.3l4.5-4.1v-3.7h4.9l0.6-4.5l5.5-0.6l2.4-8.1l6.4,0.8l1.2-5.8l7.3,2.5l-2.1-9.4l2.2-2.8l8.2,3.9
		l1.3-13.4l3.3-2.5l-3.2-10.1l5.2,1.3l-1.4-14.1l2.5-4.7l2.7-1.6l-4.5-8.8l9.4,0.1l-4.2-8.1l31.8,0.1l3.5-1.4l20.5,9.5l7,5.4
		l8.3,1.1l3.3-3.3l7.9-25.3l2.2-0.8l-8.2-25.1v-5.6l-2.7-3.2l-3.4-9.4l8.3-35.6l3.8-2.6l-1.1-1.9l5.3-17.5l10.2-9.7l14.6-8v-2.8h2.1
		l3.2-6L745.8,7L718,4.1l-9.1,5.3l-0.9,2.8l-1.6-0.8l-29.3,13.7L641.6,39l-1.6,4.2l-2.4-3.4l-2.4,1.6l-1.6-2.6L598.9,45l22.6-10.9
		l1.3-4.3l-3.3-5.9l-7.6-2.8L557,46.5l-1.7-2.7l-53.6,6.7l-5.5,2.8l-4-4.6l-2.1,0.7l-4.9-7.1l0.1-3.6l-51.6,4.9l-2.3,2.8l-1.5-2.4
		l0.2-6.2l-1.7-2.8l-49.7,10.3l-2.3,3.1l-1.7-2.8l-56-4l-3.4,2.1L302.8,41l-2.1-1.7l-67.9,2.9l-15.6,8.1l-6.4-2.1l-28-3.3l-84-39.8
		l-8.9,3.4l-3.7,3.7v8.5l66.1,33.7l-8.1,4v2.8h-1.7l-6.5-3.3l-12.1-0.4l-2.9-4l-20.1-5.7l-3.4,4.7l-0.7-4.4l-4.1-3.7l-17.1-9.1
		L51.3,20.6l-3.6,0.9l0.5-2.9L28.8,12L10.4,3L6.8,5.2z M514.8,173.4l8,4.6l19.2,5.8l-24.2,20.3L486,188.9l10.5-2.8l6.2-6.4l7.7-10.9
		L514.8,173.4z M270.4,180.4l-5.1,1.9l2.3-3.9L270.4,180.4z"/>
</g>
<g id="prop_2_21_11" transform="translate(2079, 1023)">
	<rect x="-103" y="-160" class="st0" width="105" height="162"/>
	<title  style="display:none">Face 1</title>
	
		<image style="overflow:visible;enable-background:new    ;" width="104" height="161" xlink:href="../../_common/prop_sprites//boulders_2_21_11_face_1.png"  transform="matrix(1.0072 0 0 1.0072 0.1248 -8.080472e-02)">
	</image>
	<path class="st1" d="M69.8,4.3l-7,6.6l-5.5,1.3L50,18.6L38.5,37.7l-6.9,24l-7,10.2L20,84.4l-4.5,2.9l-1.2,3.2l3.2,3.6l-1.2,3.3
		l-4.8-3.1l-6.2,7l-0.4,3.3l10.4-1.6v3.1l-2,1.2v4.8l-2.3,1.4l-6.6-7.1l-0.1,4.4l5.9,6.8l0.1,1.8l-6,6.9v3.3l6.2,5.1l-3.1,11.8
		l2.9,7.2l6.7,8l87.8,0.4V3L69.8,4.3z M4,118.9h2.5l-1.4-2.6h-2L4,118.9z"/>
</g>
<g id="prop_2_21_12" transform="translate(623, 997)">
	<rect x="-194" y="-193" class="st0" width="194" height="195"/>
	<title  style="display:none">Face 2</title>
	
		<image style="overflow:visible;enable-background:new    ;" width="193" height="194" xlink:href="../../_common/prop_sprites//boulders_2_21_12_face_2.png"  transform="matrix(1.0052 0 0 1.0052 1.295311e-03 -1.315563e-03)">
	</image>
	<path class="st1" d="M86.8,4.8l-10.4,3l-9.4,1l-4.7,3.1L37,23.3l-8.7,8.1L21,42.5L17.1,57l0.1,23.5l8,28.9v7.6l3.5,6.7l3.5,2.6v2.7
		l-3,2.5l1.3,12.5l-5.1,5.1l-10,2.9l-8.7,9.4l-3.5,5.3l0.1,28.4L194,195l-6.1-12.2v-6l3.1-4.3l0.1-14.8l-2.3-10.4l-7.4-13.6
		l-0.6-9.4l-7.9-13.4l7.1-12.4v-4.6l-3.3-2.8l0.4-16.1l-4.9-11.3v-5.8l-5.4-17l-9.3-14.3l-9.8-9.3l-21-10l-8-1.4l-6.4-2.7L86.8,4.8z
		 M137.8,17.4l5.6,4.1l9.7,5.5l7.8,11.2l5.4,12.4l1.1,13.2l-2.9-12.3l-3.2-6.2l-1.9-1.2l-3.9-8.4l-12.1-12.3l-26-12.2l-12.6-3
		l12,1.1L137.8,17.4z M80.1,17.2l-15.8,4.1l-15.5,13l-11.9,21l-0.6,5.2l2.9,3.2l1.9,12L34.3,82v5.9l-4.9,4.5l-0.9,4.8L28.8,80
		L25,77.3L23.7,67l-0.4-13.5l3.7-12l8.2-11.1l10.6-6l22.1-7.2l4.9-0.1l12.3-4L80.1,17.2z M155.6,45.2l3.1,1.8l4.2,11.3l0.7,11.6
		l-2.2,0.8l-4.1-10.6v-4l-4-7.8l-3.5-2.5l-2.4-6.4L138,27.6l11.6,9L155.6,45.2z"/>
</g>
<g id="prop_2_21_13" transform="translate(721, 1599)">
	<rect x="-113" y="-87" class="st0" width="48" height="89"/>
	<title  style="display:none">Vacuum</title>
	
		<image style="overflow:visible;enable-background:new    ;" width="47" height="88" xlink:href="../../_common/prop_sprites//boulders_2_21_13_vacuum.png"  transform="matrix(1.0136 0 0 1.0136 0.1811 -9.720021e-02)">
	</image>
	<path class="st1" d="M9.4,7.1l-4.6,6.7v8.4l3.8,6.5l9.7,10.7l2.1,3.8h-2.9l-0.6,3.9L6.5,47.2L4.3,57.3v23.4l1.2,8.9l35-0.2l5.8-2.3
		l1.8-2.2l-5.3-6.3l-4.7-2.2l0.4-18.7L36.1,47h-5.5L23,3.2h-6.2L9.4,7.1z M23.3,38.1L12.6,26.7l-3.3-6.4v-5l2.2-4.7l5.3-3.3L19,7.2
		L23.3,38.1z"/>
</g>
<g id="prop_2_21_14" transform="translate(1837, 984)">
	<rect x="-154" y="-25" class="st0" width="130" height="27"/>
	<title  style="display:none">Broom</title>
	
		<image style="overflow:visible;enable-background:new    ;" width="129" height="26" xlink:href="../../_common/prop_sprites//boulders_2_21_14_broom.png"  transform="matrix(1.009 0 0 1.009 -7.845366e-02 0.3834)">
	</image>
	<path class="st1" d="M119.4,6.8l-13.2,2.7l-4.6,4.2v2.7L4.2,23.2L3,25.3l1.3,1.5l98.2-6.2l1.2,5l2.9,1.4l13.3-0.5l9.7-1.1l-0.1-4.1
		l-1.9-2.3l1.1-1.6L126,9.2l2.1-2.3l-2.2-0.4l0.3-3.3L119.4,6.8z"/>
</g>
<g id="prop_2_21_15" transform="translate(1158, 365)">
	<rect x="-122" y="-119" class="st0" width="35" height="121"/>
	<title  style="display:none">Broom Push</title>
	
		<image style="overflow:visible;enable-background:new    ;" width="34" height="120" xlink:href="../../_common/prop_sprites//boulders_2_21_15_broom_push.png"  transform="matrix(1.0099 0 0 1.0099 0.3314 -9.491786e-02)">
	</image>
	<path class="st1" d="M19.2,103.7l-12.5-0.1l-3.2,12.8l3.4,2.5l1.4-1.8L8.1,120h24.8l2-5.9l-1.2-9.7l-10.8-0.6l6-100.1l-1.8-1.3
		l-1.9,1.4L19.2,103.7z"/>
</g>
<g id="prop_2_21_16" transform="translate(1716, 283)">
	<rect x="-135" y="-30" class="st0" width="58" height="32"/>
	<title  style="display:none">Dusters</title>
	
		<image style="overflow:visible;enable-background:new    ;" width="57" height="31" xlink:href="../../_common/prop_sprites//boulders_2_21_16_dusters.png"  transform="matrix(1.0209 0 0 1.0209 -9.625683e-02 0.1757)">
	</image>
	<path class="st1" d="M24.7,13.2l-8.9,0.1L8.1,16l-3.5,3.1l1.1,10.3l5.5-0.1l-1.5,2.6l43.9-0.1l4.2-1.4L54,24.9l4,1.6L55.8,17
		l-5.1-4L44,13.5l4.5-2.8l-1-1.8l-12.9,7L17.8,3.2l-1.3,2.3L24.7,13.2z"/>
</g>
<g id="prop_2_8_1" transform="translate(2311, 5)">
	<rect x="-35" y="-61" class="st0" width="75" height="142"/>
	<title  style="display:none">Forest Lamp Standing</title>
	
		<image style="overflow:visible;enable-background:new    ;" width="74" height="141" xlink:href="../../_common/prop_sprites//lighting_2_8_1_forest_lamp_standing.png"  transform="matrix(1.0085 0 0 1.0085 0.1862 -9.803488e-02)">
	</image>
	<path class="st1" d="M21.3,6.8l-3.5,3.4l0.1,2.7L22,9.2h6.9l5.5,5.7l-3,7.3h-3l-3.1,3.1v4.6L17,41.4l1,6.3l6.6,11.1l7.6,3.3v4.6
		l-2.7,10l-2.5,4l4.2,20.5l-2,6l1.1,19.1l-7,8l-6.4,3.9l2.9,1.6l12.9-0.8l2.1,1.9l18.7,0.1l-1.9-2.8H61l-1.1-2.8l-6-2.8l-10.1-8
		l-4.1-6.4l-0.9-6.7l4-6.9L40,92.7l-1.8-3.3l3.2-10.5l-1.2-6.3l2.3-6.9l5.8-6.2l0.5-3.2l8.6-9.8l1.9-5.2L56,27.7l-3.4-4l-1.2-3.5
		h-1.8l-1.2-5.9L41.8,11l-9.1-7.6L21.3,6.8z"/>
</g>
<g id="prop_2_8_2" transform="translate(1102, 1993)">
	<rect x="-37" y="-37" class="st0" width="75" height="75"/>
	<title  style="display:none">Forest Lamp</title>
	
		<image style="overflow:visible;enable-background:new    ;" width="74" height="74" xlink:href="../../_common/prop_sprites//lighting_2_8_2_forest_lamp.png"  transform="matrix(1.0135 0 0 1.0135 0 -2.691325e-05)">
	</image>
	<path class="st1" d="M36.2,9.2l1,3.5l-4.8,5.5h-1.9L28,24.1l-4.9,3.2l-6.9,10.8v4.3l15.5,15.9l6.6,4.1L49,58.1l14.6-12.5l-1-12.4
		l-7.3-10.1v-2.5l-12-3.7l0.1-3.6l-4-3.6l-0.3-3.4h-1.9L36.2,9.2z"/>
</g>
<g id="prop_2_3_1" transform="translate(2194, 1023)">
	<rect x="-46" y="-86" class="st0" width="97" height="140"/>
	<title  style="display:none">Drape</title>
	
		<image style="overflow:visible;enable-background:new    ;" width="96" height="139" xlink:href="../../_common/prop_sprites//decoration_2_3_1_drape.png"  transform="matrix(1.0082 0 0 1.0082 0.1047 -7.243232e-02)">
	</image>
	<path class="st1" d="M29.5,9.1l1.8,3.2l-1.2,1.8l-7.4,2.1h-7.4l-7-3.3L7.8,5.7L5.6,4.4L3.8,5.7l-0.6,25L16,98.9l1.9,13.1l0.4,19.6
		l3.6-3.4l15-8l18.7-7.1l5.5,6.7l9,7.1l15.7-0.2l6.7,13.6l4-6.9l-0.2-6.2l-9.2-10.6L74.7,88.2L60.3,63.6l-11-14.4L35.2,19L34.5,5.9
		l-2.9-3l-2.5,0.3l-1,2.8L29.5,9.1z M33.3,9.4v1.9l-1.8-1.1l-1-4H32L33.3,9.4z M7.1,12.9H5.3L5.2,8.1l0.7-1.4l1.2,3.1L7.1,12.9z"/>
</g>
<g id="prop_2_5_1" transform="translate(402, 1452)">
	<rect x="-17" y="-24" class="st0" width="39" height="40"/>
	<title  style="display:none">Shrub Small</title>
	
		<image style="overflow:visible;enable-background:new    ;" width="38" height="39" xlink:href="../../_common/prop_sprites//foliage_2_5_1_shrub_small.png"  transform="matrix(1.026 0 0 1.026 6.575675e-03 -6.436088e-03)">
	</image>
	<path class="st1" d="M3.8,23.7l4.6,9.4l4.6,5.7h8.2l6.3-2.8l8-7.2l3.2-6.1v-2.3h-4.8l-3.1,2.3L38,6.2h-4.5l-14.3,8.1L13.6,3.1
		L9.9,13.3L4,3.6L3.8,23.7z"/>
</g>
<g id="prop_2_5_2" transform="translate(404, 2346)">
	<rect x="-23" y="-28" class="st0" width="45" height="42"/>
	<title  style="display:none">Shrub Medium</title>
	
		<image style="overflow:visible;enable-background:new    ;" width="44" height="41" xlink:href="../../_common/prop_sprites//foliage_2_5_2_shrub_medium.png"  transform="matrix(1.0235 0 0 1.0235 -1.701044e-02 1.821336e-02)">
	</image>
	<path class="st1" d="M4.3,16.3L9.9,27l-4.7-1.4l2.9,9.1l4.4,4.2l8,2.6l10-0.1l6.8-3.8l6.7-7.5V24l-8.4,6.1l6.5-12.4l-5.8-0.4
		l2.5-3.4l0.4-4.6L28,14.9L27.7,14L23.9,4l-5.2,6.3l-3.6-7.5l-3,5.7l-3.3-3L4.3,3.1V16.3z"/>
</g>
<g id="prop_2_5_3" transform="translate(129, 2341)">
	<rect x="-27" y="-37" class="st0" width="60" height="51"/>
	<title  style="display:none">Shrub Large</title>
	
		<image style="overflow:visible;enable-background:new    ;" width="59" height="50" xlink:href="../../_common/prop_sprites//foliage_2_5_3_shrub_large.png"  transform="matrix(1.0182 0 0 1.0182 -3.765193e-02 4.433585e-02)">
	</image>
	<path class="st1" d="M42.8,4.4l-5.1,4.8l-7.8-4H25l1.3,6L25,13.4l-4.7-5.7l-1.9,3l-1.1,11.1L10,14.1l-0.1,11l-5.7-7l1.5,9.3
		l-2.6-1.2l0.5,9.1l5,8.4l5.9,6.3h10l4.3-3l14,0.5l8.6-3.4l-2-3.7l4-2.2l-5.1-4.4l9.1-6.9L54,25l5.7-3.8h-8.2l1.4-2.9l-0.4-8.4
		l-5.3,5.4H45l2.4-12L42.8,4.4z"/>
</g>
<g id="prop_2_5_4" transform="translate(1030, 1911)">
	<rect x="-19" y="-52" class="st0" width="62" height="61"/>
	<title  style="display:none">Grass Thick</title>
	
		<image style="overflow:visible;enable-background:new    ;" width="61" height="60" xlink:href="../../_common/prop_sprites//foliage_2_5_4_grass_thick.png"  transform="matrix(1.0165 0 0 1.0165 -4.098081e-03 4.138909e-03)">
	</image>
	<path class="st1" d="M18.4,11.9l-2,9.1l-1,10l1.1,11.6L10.7,34l-7.8-1.7l4.5,6.9l5.2,14.5l5.6,5.6l9.8,1.8l0.9-4.3l9.9-6.1l4.9-7.7
		l10.7-10.2l8.9-5.7L54,28.3L40.2,34l-8.6,5.5l-9,8.3l1.8-8l0.8-37.5L18.4,11.9z"/>
</g>
<g id="prop_2_5_5" transform="translate(451, 1452)">
	<rect x="-21" y="-16" class="st0" width="40" height="37"/>
	<title  style="display:none">Flower</title>
	
		<image style="overflow:visible;enable-background:new    ;" width="39" height="36" xlink:href="../../_common/prop_sprites//foliage_2_5_5_flower.png"  transform="matrix(1.0266 0 0 1.0266 -1.918010e-02 2.072991e-02)">
	</image>
	<path class="st1" d="M16.3,7.8V10L7.8,9l-4.9,3.9l2.7,6.4l5.6,2.9h3.3L13,25.7l-0.8,6l2.6,3.1l5.6-3.8l3.8,3.4l7.8,2.3l1.1-3
		l-0.2-6.1l-4.3-7.3l4-0.6l6.6-8.3l0.4-3.3L28,8.2l-3.3-3.8l-4.1-1.2L16.3,7.8z"/>
</g>
<g id="prop_2_5_6" transform="translate(5, 2341)">
	<rect x="-58" y="-2" class="st0" width="114" height="53"/>
	<title  style="display:none">Trunk Side</title>
	
		<image style="overflow:visible;enable-background:new    ;" width="113" height="52" xlink:href="../../_common/prop_sprites//foliage_2_5_6_trunk_side.png"  transform="matrix(1.0107 0 0 1.0107 -0.1029 0.2225)">
	</image>
	<path class="st1" d="M51.8,6.4L17,5l-5.8,5.6v2.6H8.4L4.2,24.5l2.1,2.1L3,30.1l12.7,19.1L26,52.4l69.2-0.9l7-5.3h2.7l7.5-7.7l-4-12
		l1.1-4.2l-6-5.1L96.9,7L87,8.8L72.3,9l-1.6-2.9l-7.9-2.8h-7L51.8,6.4z"/>
</g>
<g id="prop_2_5_7" transform="translate(1030, 1820)">
	<rect x="-46" y="-25" class="st0" width="95" height="81"/>
	<title  style="display:none">Trunk Ground</title>
	
		<image style="overflow:visible;enable-background:new    ;" width="94" height="80" xlink:href="../../_common/prop_sprites//foliage_2_5_7_trunk_ground.png"  transform="matrix(1.0114 0 0 1.0114 -3.677467e-02 4.314358e-02)">
	</image>
	<path class="st1" d="M8.8,25l-5.2,5.7l-0.2,7.1l5,7.6l-3,4.6l4.4,8.3l4.6-0.8l4.9,6.4v6.3l-3.5,0.2l1.3,4.3l-0.8,4L55.1,81
		l40.3-5.5l-7.9-7.8l-2.5-5l-8.4-11l-3.6-7l0.3-7L63,25.3L59.2,24l-5-5.3l-9-14.4l-5.6-0.1L8.8,25z"/>
</g>
<g id="prop_2_5_8" transform="translate(1030, 1720)">
	<rect x="-56" y="-28" class="st0" width="107" height="90"/>
	<title  style="display:none">Root Large</title>
	
		<image style="overflow:visible;enable-background:new    ;" width="106" height="89" xlink:href="../../_common/prop_sprites//foliage_2_5_8_root_large.png"  transform="matrix(1.0102 0 0 1.0102 -3.951014e-02 4.698815e-02)">
	</image>
	<path class="st1" d="M91.7,14.2h-9.4l-6,8.3v3.8l-7.1,9.3L63,38.2l-5.2-0.1l-3.4-7L43,28.4l3.1,5.9L38.4,37l-4.7,0.2l2.7,3.1
		l-2.3,4.1l3.7-0.6L33.3,49L33,53.6l2.6-1l-3,3.2l6.8,2.8l-2.1,1.6L22,62.9l-5,5.6l-9.3,2.7l-5.2,4.2l1.6,2.7l7.7-3.1L28,75.7
		l5.9,2.6l7.7-0.1L37,82.5l6.2-0.4l-2.8,2.5l5.4,3.8l5.8,0.3l2.4-2.4L53.9,90l6-1.1l4.2-5.9l0.6,4.2l4.2-6.5l14.3-0.3l5.6-6.9
		l5.5-2.3l11.6,6.4l1.4-0.9l-4.2-9.1L95.4,66l-12.7,1.5l-0.5-3.3l5.9,0.3l-4.4-3.2l3.7-0.1l2.1-3.4L84,53.6l1.7-2.7l-5.1,2.2l-1.7-1
		l2.8-3.3l-6.9,0.5l14-11.3L89,24.7l3.8-5.5l6.1-0.9l4.4-7.4l0.5-7.7l-3,0.3L91.7,14.2z"/>
</g>
<g id="prop_2_5_9" transform="translate(721, 1698)">
	<rect x="-25" y="-17" class="st0" width="55" height="73"/>
	<title  style="display:none">Root Small</title>
	
		<image style="overflow:visible;enable-background:new    ;" width="54" height="72" xlink:href="../../_common/prop_sprites//foliage_2_5_9_root_small.png"  transform="matrix(1.0156 0 0 1.0156 7.993435e-02 -6.011445e-02)">
	</image>
	<path class="st1" d="M45,4.9l-0.7,0.6v3.3l-7.8,15.9l2,3.7l-5.6,5.8L25,36.6l-4.6,10.1l-0.2-4L15,48.6l1.5-4.7l-2.3,1.5l-5.6,9
		l-1.4-2.2H5.3v5.6l-2,2l4,6.4l5,2l6.1-1.3l3.4,3l18.7,1.4l-1.3-2.1h2.1l8.1-7.3l-1-2.7l5.3-1.3l-3.9-1.6H47l-2.8-0.1v-2h-5v-0.5
		l2-11.8l5.3-5.6l0.3-20.6l1.6-7.3l-2.9-4.2L45,4.9z"/>
</g>
<g id="prop_2_5_10" transform="translate(1147, 1720)">
	<rect x="-19" y="-53" class="st0" width="42" height="130"/>
	<title  style="display:none">Vine Big</title>
	
		<image style="overflow:visible;enable-background:new    ;" width="41" height="129" xlink:href="../../_common/prop_sprites//foliage_2_5_10_vine_big.png"  transform="matrix(1.0093 0 0 1.0093 0.3096 -9.922490e-02)">
	</image>
	<path class="st1" d="M15.2,4.5v4.4l3.6,3.6l0.5,2.5l2.4,2.4L21,20.2l-4.5-5.1l-5.3-0.5l1,3.4l4.5,5.6l3,0.6l0.1,3.1l4.6,7.9
		L23,42.6l-3.8,7.5l-1.9,1.1l-5-5L7,45.5l1.1,7.9l2.3,2.8h3.9l-1.8,3.5l0.2,4l5.1,6.1v4.6l-7.1,8.7l-2.3,0.1l-4.5,3.6l-1,5.9
		l2.8-0.5l4.4-5l1.8,5.3l10.7,12.8l0.6,6.3l-4.3,4.5l-3.2-3.8l-6.5-0.8l1.7,6.3l4.5,2.7l-3.2,7.1l2.1,2.4l4.7,0.3l-1.3-5.8
		l11.9-10.9l2.8-0.1l5.6-7l0.2-2.3h-6.1l-3.5,3.1l-1.7-5.3l-3.2-3.6l1.7-2.7v-3.4l-3.5,1.3l-1.2,1.7L15.8,89l-0.1-3.8l6.9-7.1
		l0.4-4.5l3.5-0.4l6.4-5.3l0.4-2l-8,0.3l-3.4,3.1l-3.4-5.5l0.5-4.7l6.4-9.3l3.1-6.9l5.5,0.4l7.6-4l0.1-3.3l-8.3-1.8l-5.6,0.6
		l-5.6-8.6l3.2-8l-3.3-4.6l1.3-4.3h-2l-0.7-2.2L17,2.6L15.2,4.5z"/>
</g>
<g id="prop_2_5_11" transform="translate(845, 1502)">
	<rect x="-15" y="-32" class="st0" width="30" height="70"/>
	<title  style="display:none">Vine Big Small</title>
	
		<image style="overflow:visible;enable-background:new    ;" width="29" height="69" xlink:href="../../_common/prop_sprites//foliage_2_5_11_vine_big_small.png"  transform="matrix(1.0175 0 0 1.0175 0.246 -0.1044)">
	</image>
	<path class="st1" d="M12.6,4.8l2.5,4.9l-1.9,4.6l-2-1.9l-4.6,0.3l1.2,4.4l4.1,0.9l1.5,4.6l-1.6,7.2l-5.5-2l-3.5,2.8l5.3,3.3
		l5.4-0.6l5.4,5.5v5.8l-5.9,6l-1.8-5.2l-4.2-2l-2.7-0.3l1.2,5.7l4.9,2.8l-2.6,3l1.1,3.9l5,2.9l1.6,3.5l-3.8,5.6h3.9l4.5-2.8l0.8-4.9
		l-1.3-4.6l-2.4-2l0.1-1.7l4.6-4.8l1.9-4.1l0.1-4.6l3.1-0.4l3-4.7v-7.1l-4.9,2.3L22,36.5l-5.4-4.9l-1.4-2.4l1.4-4.9l-1.2-4.8
		l0.6-5.4l1.8-3.1L18,7.3l2.1-2.9l-1.4-2l-3.3,2.7l-2-2.2L12.6,4.8z"/>
</g>
<g id="prop_2_5_12" transform="translate(345, 1787)">
	<rect x="-20" y="-24" class="st0" width="41" height="49"/>
	<title  style="display:none">Vine Big Curl</title>
	
		<image style="overflow:visible;enable-background:new    ;" width="40" height="48" xlink:href="../../_common/prop_sprites//foliage_2_5_12_vine_big_curl.png"  transform="matrix(1.0225 0 0 1.0225 4.913926e-02 -4.105980e-02)">
	</image>
	<path class="st1" d="M22.5,7.9L22.3,12l-6.7-0.8l-2.8,1.7l-4.6-2.6l-5.4,1l3.3,3l4.1,0.9l-1,6.6l1.4,4l-0.9,4.5l1.3,1.6l2.2-6.4
		l-1.7-2.7l2.9-0.3l-0.2-1.6l-2.4-0.7v-4.4l2.9-1.7l4.9-0.7l3.2,2.4l0.7,3.5l-1.1,2.9l-6-3.5L15,20.2l2.5,3h2.7l-1,2.8l2.5,2.4
		l5.4-0.1l0.3,3.9l-5.6,2.4l-3.5,2.9L18.2,47l3.5,2.2l3.3-0.6L22.4,43l0.8-5.3l6.9-4.1l5.4-0.1l4.3-3.5l0.4-2.5l-5-0.4l-4.7,2.8
		l-1.4-3.4l-4.8-2L24.2,23l4-4l3.7,0.4l3.9-2.1l0.3-2.5L30.4,15l-1.2,2h-1.6l-2.2-4.9l2.8-2.5L27.6,4h-3.2L22.5,7.9z"/>
</g>
<g id="prop_2_5_13" transform="translate(1158, 496)">
	<rect x="-16" y="-46" class="st0" width="34" height="116"/>
	<title  style="display:none">Vine Thick Dark</title>
	
		<image style="overflow:visible;enable-background:new    ;" width="33" height="115" xlink:href="../../_common/prop_sprites//foliage_2_5_13_vine_thick_dark.png"  transform="matrix(1.0104 0 0 1.0104 0.3291 -9.548360e-02)">
	</image>
	<path class="st1" d="M21.3,6.9l-0.9,3.2l-2.3-2.9l-5.3-2.3h-2.3l0.6,5.6l2.3,2.8l4.1,1.1L15.8,20l-0.7,6l-5-1.9L7,24.2l0,3.2
		l3.3,4.2l4.2,0.9l3.1,7.3L10.5,39L6,41.4l5.8,5.1l5.4,1.7L9.1,65.7l-5,4.2L3.6,81.8L5,84.4l2.6-4.5l2.8-5.8l4.9,7.2l-5.1,6.1v4.9
		l4.4-0.7l4.3-4l0.8,1.8l-4.4,2.4l-4.5,7.9l2.9,0.4l5.3-3.3l0.9,3.4l-1,10.6l3.3,5.6l2.2-7.3v-6.6l-0.2-6.2l4.5,1.5l4.7,0.2v-2.8
		l-3.7-3.8L25.1,91l-1.3-4.1L16.3,71l0.3-3.9l3.4-8.2l2.8,2.5l5,1.8l-1.1-5.5l-4.8-3.5l2.7-3.9l1.4-4.5l-5.4-13.4L20.4,27l4.8,1
		l4.5-3.2l-0.4-3.2l-4.6-0.4l-3.1,0.3l2-9.6l3.4-0.7l2.5-5.4l-0.1-2.9l-4.8,0.4L21.3,6.9z"/>
</g>
<g id="prop_2_5_14" transform="translate(345, 1733)">
	<rect x="-12" y="-27" class="st0" width="47" height="44"/>
	<title  style="display:none">Root Dark</title>
	
		<image style="overflow:visible;enable-background:new    ;" width="46" height="43" xlink:href="../../_common/prop_sprites//foliage_2_5_14_root_dark.png"  transform="matrix(1.0224 0 0 1.0224 -1.627378e-02 1.736933e-02)">
	</image>
	<path class="st1" d="M35.2,9l2.3,2.4l-8,8.4l-2.4,4.5L16,24.5l1.2-4.2l-2.1-6.9l-4.7,5v5.5l-5.2,5.5l-3,7L5.9,43L9,43.8l5.9-9
		l4.9-2.3l7.6-0.6l1.3,3.1l5.1,2.3l6.7-0.2l-0.8-3l-4.5-4.4l-3-0.3l6.5-14.1l8-8L45,6.7l-4.9,2.7l-1.8-3.9l-3.5-2.4L35.2,9z"/>
</g>
<g id="prop_2_5_15" transform="translate(2325, 828)">
	<rect x="-21" y="-29" class="st0" width="55" height="71"/>
	<title  style="display:none">Root Dark Curl</title>
	
		<image style="overflow:visible;enable-background:new    ;" width="54" height="70" xlink:href="../../_common/prop_sprites//foliage_2_5_15_root_dark_curl.png"  transform="matrix(1.0159 0 0 1.0159 7.159221e-02 -5.537034e-02)">
	</image>
	<path class="st1" d="M20.3,8.1l-6.8,15.7l2.2,0.4l0.1,2.3l1.7,2.4l1.7-1.8l0.6-2.9l5.9,0.3l5.1,3.6l1.8,3.6L29,41.3l-3.8,6.4
		L16.8,43l2.7-4.9l6,0.5l0.2-2.2l-1.9-0.6l2.3-2.6l0.3-3.7l-3.7-0.3l-2.2,2.4l-0.9,2.7l-4.2,0.3l-4.8,8.6l-3.5-3l-4.7,0.2l2.4,4.1
		l4.3,1.6L17.8,57l-1.7,5v3.8l1.4,5.7l4.4-5.3l2-6.3l19.1-16l5.3,1.6l7.1,0.1l-5.7-6.2l-3.5-0.3l4.2-5.6l0.3-4.8L47.1,30l-3.6,3.6
		l-1.9-14.8L38.7,16l-13.8-2l4.5-8.1l-0.1-3.3L20.3,8.1z"/>
</g>
<g id="prop_2_5_16" transform="translate(1158, 622)">
	<rect x="-18" y="-13" class="st0" width="31" height="28"/>
	<title  style="display:none">Stain Small</title>
	
		<image style="overflow:visible;enable-background:new    ;" width="30" height="27" xlink:href="../../_common/prop_sprites//foliage_2_5_16_stain_small.png"  transform="matrix(1.035 0 0 1.035 -2.488646e-02 2.757527e-02)">
	</image>
	<path class="st1" d="M7.1,6.5l-2.8,4.3L4,19.3l4,5.4l4.9,2.9h7.6l5.7-3.4l3.1-4.4l0.6-5.5l-1.8-6.1l-4.8-4.4l-9.8-0.4L7.1,6.5z"/>
</g>
<g id="prop_2_5_17" transform="translate(199, 2346)">
	<rect x="-41" y="-19" class="st0" width="62" height="46"/>
	<title  style="display:none">Stain Medium</title>
	
		<image style="overflow:visible;enable-background:new    ;" width="61" height="45" xlink:href="../../_common/prop_sprites//foliage_2_5_17_stain_medium.png"  transform="matrix(1.0185 0 0 1.0185 -6.276838e-02 8.481608e-02)">
	</image>
	<path class="st1" d="M30.6,5l-6.2,7.1L23.1,18l3.1,7.4v4.8H31l2.6,3.2l4.6,1.8v6.5l2.3,3.3H46l2.3-3.5l-1-8.2l5-3.3l2.9-5.6v-7.1
		h2.9l3.1-4.4V7.2l-4-4l-5.8,0.4L48,7.1l-4.4-2.9l-8.9-1L30.6,5z M3,13.2L5,16l4.8,0.2l2.1-2.5l-0.3-3.3L9.3,7.9L4.4,8.7L3,13.2z
		 M57.2,40l1.7-1.1l-1.2-1.5l-1.5,0.3l-0.4,1.7L57.2,40z"/>
</g>
<g id="prop_2_5_18" transform="translate(1633, 565)">
	<rect x="-42" y="-31" class="st0" width="73" height="58"/>
	<title  style="display:none">Stain Large</title>
	
		<image style="overflow:visible;enable-background:new    ;" width="72" height="57" xlink:href="../../_common/prop_sprites//foliage_2_5_18_stain_large.png"  transform="matrix(1.0153 0 0 1.0153 -5.074979e-02 6.396284e-02)">
	</image>
	<path class="st1" d="M48.5,5l-4.3,5.5V18l-8-0.9l-1.9-3L30,13.6l-3.6-2.4h-3.9l-3.3,3.7v2.2l3.9,2.1l4.1,0.3L22.7,24l-8-0.2
		l-5.9,0.4L5,28l-1.7,7.1l1.8,5.1l5.4,4.1h6.6L19,42l2.1,4l8.1,3.2l10.1,0.3l8-2.8l3.5,3.5l5.6,0.2l3.1-4.4l-0.3-4.4L56,37.1
		l2.4-5.8l7.3-1.6l5.9-8.1l-0.4-7.9l-3.9-6.4l-5.6-2.9l-9-1.2L48.5,5z M65,45l-0.9,3l1.8,2.7l4.1,0.2l2.3-1.8l0.8-2.7L70.7,44
		L67,43.9L65,45z M40.3,52.9l1.1,3.8l4.3,0.8l3-0.8L50,53l-2.8-2.8l-3.6-0.5L40.3,52.9z"/>
</g>
<g id="prop_2_5_19" transform="translate(345, 2346)">
	<rect x="-28" y="-35" class="st0" width="49" height="41"/>
	<title  style="display:none">Mushroom Red Big</title>
	
		<image style="overflow:visible;enable-background:new    ;" width="48" height="40" xlink:href="../../_common/prop_sprites//foliage_2_5_19_mushroom_red_big.png"  transform="matrix(1.0225 0 0 1.0225 -4.103288e-02 4.911234e-02)">
	</image>
	<path class="st1" d="M17.8,4.9L9.4,9.2l-6.1,8.9L4,23.3l6.3,4.9l8,2.4v4.8l2.1,3.9L35.8,40l4.1-2.9L40,28l7-5.2l1.9-12.4L44.3,6
		l-14-2.5L17.8,4.9z"/>
</g>
<g id="prop_2_5_20" transform="translate(2325, 1022)">
	<rect x="-26" y="-20" class="st0" width="50" height="24"/>
	<title  style="display:none">Mushroom Red Group</title>
	
		<image style="overflow:visible;enable-background:new    ;" width="49" height="23" xlink:href="../../_common/prop_sprites//foliage_2_5_20_mushroom_red_group.png"  transform="matrix(1.0246 0 0 1.0246 -0.103 0.217)">
	</image>
	<path class="st1" d="M22.1,8.6l0.9,4.7l2.3,3.2l0.2,6.4l2.6,1.7l3.4-1.2l-0.2-5.7l3.9-1.9l2.6-4.9l-2.3-5.4L30,2.7l-4.5,0.5
		l-2.3,1.5L22.1,8.6z M37.2,6l1.3,5.2l3.6,3.1l-1,8.3l2.1,1.6l4.1-0.4L47.1,13l2.7-3.4l-0.4-4.9l-3.4-2l-6,0.1L37.2,6z M3.3,7.4
		L2.1,11l1.5,3.3L6,15.7v6.8l2.1,1l2.5-1.3v-6.1l3.1-1.5l1.3-3.3l-1.9-3.7L9,6.1L3.3,7.4z"/>
</g>
<g id="prop_2_5_21" transform="translate(721, 1781)">
	<rect x="-25" y="-39" class="st0" width="52" height="45"/>
	<title  style="display:none">Mushroom White Group</title>
	
		<image style="overflow:visible;enable-background:new    ;" width="51" height="44" xlink:href="../../_common/prop_sprites//foliage_2_5_21_mushroom_white_group.png"  transform="matrix(1.0209 0 0 1.0209 -3.397286e-02 3.929061e-02)">
	</image>
	<path class="st1" d="M3.5,15.1l-1.1,2.7l2.1,1.3l7.2-0.9L22,15.6l0.8,4.1l0.8,23.8l0.7,1.4l2.4-0.3V27.8l-1.3-12.2l1.2-2.3
		l10.3-5.9l4.2-2.5L42,2.6l-6.4,0.3L19.7,8.3L3.5,15.1z M29.3,26.2l-2.4,2.3l1,2.3l8.8,0.7l0.5,4.9l0.5,7.6l2.3,1.2l1.6-1.4
		l-0.2-12.3l9.1-3.6l1.5-2.3l-2.2-2.8l-10.2,0.8L29.3,26.2z M7.9,32.5l0.7,2.3l3.5,0.9v8.5l1.9,1.3l2.5-0.9l-0.9-7.7H20l0.7-2
		l-4.1-3.6l-6.5-1.1L7.9,32.5z"/>
</g>
<g id="prop_2_5_22" transform="translate(2325, 909)">
	<rect x="-36" y="-50" class="st0" width="61" height="57"/>
	<title  style="display:none">Mushroom White Big</title>
	
		<image style="overflow:visible;enable-background:new    ;" width="60" height="56" xlink:href="../../_common/prop_sprites//foliage_2_5_22_mushroom_white_big.png"  transform="matrix(1.0172 0 0 1.0172 -1.663228e-02 1.778296e-02)">
	</image>
	<path class="st1" d="M24.8,9.2L12,15l-1.9,2.6l2.3,1.9l8.9-0.1l10-2.4v8.8l-4.1,12.1l-7.4,7.2L8.5,50.6l-5.9,0.9v4.7L7.5,56
		l13.4-6.5l10.4-10.1l4.5-9.8l0.6-8.1l-0.7-6.6l18.8-6l6.2-3.5L61,2.9L44.3,3.7L24.8,9.2z"/>
</g>
<g id="prop_2_5_23" transform="translate(1135, 1860)">
	<rect x="-33" y="-32" class="st0" width="59" height="36"/>
	<title  style="display:none">Mushroom Blue Big</title>
	
		<image style="overflow:visible;enable-background:new    ;" width="58" height="35" xlink:href="../../_common/prop_sprites//foliage_2_5_23_mushroom_blue_big.png"  transform="matrix(1.0203 0 0 1.0203 -8.806674e-02 0.1451)">
	</image>
	<path class="st1" d="M7,11.3l-4.8,4.6L2.9,18l11.9,2.4L28,19.3l1.2,3.1v4.9l-2.9,6.9l2.7,2l7.5-1.4l-0.2-2.6l-2.5-3.7l-0.1-8.9
		l13.8-4.1l6.2-5.4L58.4,7l-0.1-3.4L38,3L20.6,6.1L7,11.3z"/>
</g>
<g id="prop_2_5_24" transform="translate(2325, 976)">
	<rect x="-39" y="-33" class="st0" width="70" height="36"/>
	<title  style="display:none">Mushroom Blue Group</title>
	
		<image style="overflow:visible;enable-background:new    ;" width="69" height="35" xlink:href="../../_common/prop_sprites//foliage_2_5_24_mushroom_blue_group.png"  transform="matrix(1.0174 0 0 1.0174 -9.994560e-02 0.1957)">
	</image>
	<path class="st1" d="M38.7,7.8l-7.4,3.8L29,17.8l11.4,2.4l3,1.7l5.4-2.8l2.5,1.1L50,31.5l-2,4.3l9.2,0.3l1.8-1.6l-3.4-5.3v-8.9
		l4.1-3.5l2.4-0.2l2.8-5.2L69,6.7l0.8-2.9L53.3,4.4L38.7,7.8z M3.4,15.8l2.2,2.1l0.7,3.4l4.1,3.4l2.4,0.4l-0.2,7.3l-5.1,1.5
		l-0.1,1.4l5.1,0.6l7.6-0.6L17.5,32v-5.6l9.7-0.8l6.6-3.4l0.1-1.6l-19.5-6.3L3,13.4L3.4,15.8z"/>
</g>
<g id="prop_2_5_25" transform="translate(2325, 666)">
	<rect x="-32" y="-36" class="st0" width="62" height="72"/>
	<title  style="display:none">Apple</title>
	
		<image style="overflow:visible;enable-background:new    ;" width="61" height="71" xlink:href="../../_common/prop_sprites//foliage_2_5_25_apple.png"  transform="matrix(1.0151 0 0 1.0151 4.049629e-02 -3.485910e-02)">
	</image>
	<path class="st1" d="M20,10.5v5.6l2,4.2l-2.6,1.9l-8.2,1.6l-5.8,5.8l-2.1,7.3l0.4,9.4L9,57l8.4,8.1l10.4,6.3l9.1-0.4l9.8-1.8
		l6.2-3.3l4.3-4.7l3.5-6.9L60.9,33l-3.7-7.7L51,18.1l-5.9-2.8L35,15.8l-7.2,3.4h-2l-1.1-2.9l0.8-4.2l2.9-6.3l-2.1-2.2l-3.1-0.3
		L20,10.5z"/>
</g>
<g id="prop_2_5_26" transform="translate(2325, 580)">
	<rect x="-33" y="-34" class="st0" width="60" height="76"/>
	<title  style="display:none">Acorn</title>
	
		<image style="overflow:visible;enable-background:new    ;" width="59" height="75" xlink:href="../../_common/prop_sprites//foliage_2_5_26_acorn.png"  transform="matrix(1.0147 0 0 1.0147 6.584574e-02 -5.191792e-02)">
	</image>
	<path class="st1" d="M36.2,11.1L26.1,10l-11,2.4l-6.9,6.1l-4.9,9.6v7.1l3.5,3.6l0.4,14.6l3,10.4l4.6,6.9l8.8,5h4.5l10-7.9l9.8-12.4
		l4.6-9.8l5-2.3l1.9-6.1l-1.2-4.7l-7.6-12l-10.1-6.8l0.3-2.6L45,7l-1.2-4.4L39,2.5L37,5L36.2,11.1z"/>
</g>
<g id="prop_2_23_1" transform="translate(2311, 157)">
	<rect x="-28" y="-53" class="st0" width="56" height="154"/>
	<title  style="display:none">Pillar</title>
	
		<image style="overflow:visible;enable-background:new    ;" width="55" height="153" xlink:href="../../_common/prop_sprites//temple_2_23_1_pillar.png"  transform="matrix(1.0079 0 0 1.0079 0.2834 -0.1025)">
	</image>
	<path class="st1" d="M3.6,4.1v2.6l2.2,3.8l8.2,2.9l3,9.6v113.5l-1.2,0.6l-2.5,5.3l-4.8-0.7l-4.2,4.2v4.9l5.4,3.1l3.8-1.8l29.7,0.4
		l4,1.5l7.3-4.1l0.8-5.1l-2.9-4.9l-5.5,0.5l-3.8-4.9V20l4.7-8.4l3.2-0.7l1.5-2.8l-0.7-4l-1.9-0.9L8,3.1L3.6,4.1z"/>
</g>
<g id="prop_2_23_2" transform="translate(2325, 748)">
	<rect x="-28" y="31" class="st0" width="56" height="70"/>
	<title  style="display:none">Pillar Broken</title>
	
		<image style="overflow:visible;enable-background:new    ;" width="55" height="69" xlink:href="../../_common/prop_sprites//temple_2_23_2_pillar_broken.png"  transform="matrix(1.0159 0 0 1.0159 6.199066e-02 -4.952954e-02)">
	</image>
	<path class="st1" d="M17.3,6.9v45.3l-1.9,1.1l-2.2,4.9l-4.7-0.5l-4.2,4.2l-0.1,4.8l6.1,3.2l3.5-1.8l30-0.1l4.3,2l6.7-3.7l0.8-5.7
		l-3.3-4.8L47,56.4l-3.7-5V21.5l-4-3.6l-1.6-6.2l-6.2-0.6l-2.5-6l-3,1.1l-4.2-3h-1.3L17.3,6.9z"/>
</g>
<g id="prop_2_23_3" transform="translate(271, 2341)">
	<rect x="-30" y="18" class="st0" width="64" height="33"/>
	<title  style="display:none">Piller Chunk</title>
	
		<image style="overflow:visible;enable-background:new    ;" width="63" height="32" xlink:href="../../_common/prop_sprites//temple_2_23_3_piller_chunk.png"  transform="matrix(1.019 0 0 1.019 -9.993486e-02 0.1953)">
	</image>
	<path class="st1" d="M6.2,8.9l1.2,5l-3.1,1.3l1,5.9l2,5.1h3.1l1.1,3.1l5.7,2.9l32.6-0.1l8.4-0.5l3.7-11.3l2.4-2.9l-3.6-10l-7.5-3.6
		H12L6.2,8.9z"/>
</g>
<g id="prop_2_23_4" transform="translate(1102, 2078)">
	<rect x="-37" y="-17" class="st0" width="75" height="69"/>
	<title  style="display:none">Head Small</title>
	
		<image style="overflow:visible;enable-background:new    ;" width="74" height="68" xlink:href="../../_common/prop_sprites//temple_2_23_4_head_small.png"  transform="matrix(1.0141 0 0 1.0141 -2.020446e-02 2.194736e-02)">
	</image>
	<path class="st1" d="M3,24.7l2.5,15.4v18.8l-1.4,7.5l2.3,2l34.4,0.8l27.9-0.5l1.9-1.3l-1.3-4.5l5.4-8.1l-4.3-3.3l1.1-7l-3.2-1.2
		v-2.9l5.3-3.9l-3.5-12.8l-1-9.3l-9-9.7L14.4,4.1L3,24.7z"/>
</g>
<g id="prop_2_23_5" transform="translate(1041, 2271)">
	<rect x="-56" y="-54" class="st0" width="125" height="106"/>
	<title  style="display:none">Head Big</title>
	
		<image style="overflow:visible;enable-background:new    ;" width="124" height="105" xlink:href="../../_common/prop_sprites//temple_2_23_5_head_big.png"  transform="matrix(1.0087 0 0 1.0087 -3.779858e-02 4.457912e-02)">
	</image>
	<path class="st1" d="M3,17.5l2.2,62.9l1.2,1.9l-2.3,2.8L3,99.8l5.6,4.9h102.3l5.1-6l3.5-7.7l-1.3-9.3l2-6.7l-2.8-5.6l6.2-4.8
		l0.2-8.8l-6.4-4.3l1.9-1.9l-4-3.7v-3.8l7.1-3l1.7-4.4l-4.8-9.4l-2-1.2v-8.7L112,3.8H14.6L3,17.5z"/>
</g>
<g id="prop_2_22_1" transform="translate(1553, 1443)">
	<rect x="-186" y="-183" class="st0" width="333" height="151"/>
	<title  style="display:none">Cloud White 1</title>
	
		<image style="overflow:visible;enable-background:new    ;" width="332" height="150" xlink:href="../../_common/prop_sprites//backdrops_2_22_1_cloud_white_1.png"  transform="matrix(1.0036 0 0 1.0036 -0.103 0.2276)">
	</image>
	<path class="st1" d="M217.8,9.7l-4.5,6.8l-1.3,7.7h-1.6L209,22l-9.8,0.9l-1-1.7l-7.8-4h-8.9l-12,9l-10.2,12.5v2.4l2.1,5.6
		l-1.3,16.5h-12.6L135.1,67l-7.5,5.3l-2.4,5.3l-1.2,9.8l-5.1,1.9l-4.6-5l-16.8-2.2L94,78.2h-6.4l-8.8,6.2l-3.5,4.3v7.5h-6.5
		l-6.3,3.8l-3.6,9.4l2.2,5.7l-2.3,3l-7.5,0.5l-2.4-2.4h-3.2l-9.7,6.1l-2.1-2.1h-6.3l-3.6,4h-3.3l-2.1,2.1l-11.2,1.2l0.9,1.4
		l11.7,1.4l6.8,5l9.3-1.1l5.7,2.1l4,3.5l19.9,5.6l8.3-1.1l7.7,3.9h13.7l4.4-2.3l19-4.9l81.7,5.6l27.3-4.3l41-0.2l29.5-6.9l5.1-3.3
		l10.4,1.2l16.1-2l0.9-2.1l-3.7-2.3l-11.2-11l-4-2l-1.2-5l-14.9-7.1l-6-12.3l-3.8-4.1l-6.2-1.1l-5,1.8l-4.7-5.1l2.2-3.6V60.7
		l-2.1-7.4l-4.9-3.9v-5.1l-2-1.2v-4.8l-5.5-3.8l-4.4-1.4l-2.4-7.4l-9-16l-4-4.5h-11.3L217.8,9.7z"/>
</g>
<g id="prop_2_22_2" transform="translate(2127, 1205)">
	<rect x="-127" y="-166" class="st0" width="241" height="140"/>
	<title  style="display:none">Cloud White 2</title>
	
		<image style="overflow:visible;enable-background:new    ;" width="240" height="139" xlink:href="../../_common/prop_sprites//backdrops_2_22_2_cloud_white_2.png"  transform="matrix(1.0049 0 0 1.0049 -9.135890e-02 0.1575)">
	</image>
	<path class="st1" d="M60.5,13.1l-8.9,9L48.3,29v6.1L46,40l1.4,7.1l5.5,5.6l3.9,2.3l-5.5,2.2v2h-6.8l-6.2,5.2l-5.4,9.1l-0.1,12.6
		l2.5,2.5v3.1L30.8,97l-11.6,3.3l-4.1,4.1l1.1,8.6l-10.9,6.2v3.8l16.9,7.2h18l2.2,4l6.3,3.3l23.4-1l16.1-5.7l4,3.6l32.2,2.7l4.9-2.2
		v-1.4l19.5-1.1l14-5.1l5.1,5.6l14.2,3.5l7.7-2.2h10.3l9.7-4.3l17-2.7h10.4l1.2-2h-1.6l-13.1-1.9l-11.5-5.1h-6l-5.9-4.4l-9.1,2.4
		l-1.9-1.1v-2.8l-5.9-3.1l-4.6,0.1l-3.8,2.8l-7.4-5.8l1.9-12.6l-0.2-2.2l-10-12.2l-7.9-2.2l-1.2-1.9h-10.5l-4.5,3.2l-2.9-2.4
		l-5.6,1.1l-2.6-1.7l2.6-7.2l-2.6-7.2l2.2-2.2V48.7l-3.7-8.2l-5.6-4.3h-7.2l-7.3,3.9l-5.2-5.5l3-2.9l2-10.9l-4.5-9.1l-9.7-6.5
		L76.8,5.3L60.5,13.1z"/>
</g>
<g id="prop_2_22_3" transform="translate(544, 2271)">
	<rect x="-184" y="-140" class="st0" width="340" height="123"/>
	<title  style="display:none">Cloud White 3</title>
	
		<image style="overflow:visible;enable-background:new    ;" width="339" height="122" xlink:href="../../_common/prop_sprites//backdrops_2_22_3_cloud_white_3.png"  transform="matrix(1.0036 0 0 1.0036 -0.1022 0.2833)">
	</image>
	<path class="st1" d="M83.4,10.2l-5.2,10.4v6.3L76,33.1l-7.3,4.4L54.2,37l-7.6,5l-3.4,7.3l3,14.4l-3.7,4l-2.3,4.5h-8.4l-7.6,2.1
		l-4,6.4l0.5,6L19,89.3l-8.7,4.1L5,98.2l0.9,2.5l6.8,2.3l36.8,2.2l7.7-2.3l4.1,4.3h3.5l2.4,6.6l7.5,4.2l12.6,2.5l32.4-1.2l8.9-2.2
		l2.8-2.3l26.3-0.1l11.4-5.3l4.2,1.1l10-4.7l8.9,2.4l65.5-3l5.5-1.2l3-4.2l10.9-0.6l1.2,2h6.3l7.9,5.5h25.2l7-4.2l-0.6-3.3h5.8
		l6.3-1.2v-2.6l-8.9-5.2h-7.1v-8.5l-4.7-10.2l-6.4-2.6l-8.5,1.2l-3.9-5.9l-6.3-3h-8.1l-1.3-6.8l-3.6-6l-9.2-6.3l-8.1-2.8l-13.6-0.6
		l-6.8,5.2l-9.4-2.1l-1.1-6.1l-7-9.4l-5.4-3.6h-17.9l-6.8-6.8l-8.9,1.3l-4.1,2.5l-4.4,7l-1,10l-8.4,0.3l-11.9,6.4L149,41l1.5-4.3
		l0.9-9.8l-2.3-7.7l-6.4-7.3l-8-3.7h-6.2l-8.3,6l-2.5-0.1l-8-5.9l-6.4-3H89.4L83.4,10.2z"/>
</g>
<g id="prop_2_22_4" transform="translate(827, 997)">
	<rect x="-109" y="-181" class="st0" width="187" height="186"/>
	<title  style="display:none">Sun</title>
	
		<image style="overflow:visible;enable-background:new    ;" width="186" height="185" xlink:href="../../_common/prop_sprites//backdrops_2_22_4_sun.png"  transform="matrix(1.0054 0 0 1.0054 -1.344076e-03 1.324410e-03)">
	</image>
	<path class="st1" d="M58.1,21.6l-14.5,8.7l-12.1,13L22,58.2l-6.6,21.5l0,18.2l3.4,18.3l5.9,15.1l8.7,13.5l10.7,10.6l12.3,6.8
		l11.5,6.1l13.9,4.6l13.5,1.3l12.9-1.3l12.4-2.7l14.9-5.7l15.5-11l12.2-13.3l8.4-13.8l4.4-14.4l1.3-19.2l-1.3-19l-5.3-14.4
		l-6.9-13.8L153.2,32l-12.8-8.9l-12.3-6l-14.3-4.2L99.6,12l-15.7,1.6L70,16.7L58.1,21.6z"/>
</g>
<g id="prop_2_22_5" transform="translate(1205, 283)">
	<rect x="-194" y="-162" class="st0" width="501" height="272"/>
	<title  style="display:none">Mountain</title>
	
		<image style="overflow:visible;enable-background:new    ;" width="500" height="271" xlink:href="../../_common/prop_sprites//backdrops_2_22_5_mountain.png"  transform="matrix(1.0024 0 0 1.0024 -9.599809e-02 0.177)">
	</image>
	<path class="st1" d="M235.3,33.6l-11.7,24.6l-11.2,31.6l-1.4,12l-2.9,3.4l-5.9,1.3l-6.6,6.7l-13.9-5.7l-19.1,5.8l-51.9,49.4
		l-12.6,16.4l-5.6,1.2l-8.4-6.1L71,182.5l-17.7-1.2l-24.5,31.1L8.1,250.1l-3.6,11.7l-1.5,10h495.2l-7.2-35.5l-12.7-13.7L466,201.7
		l-9.8-8.5l-8.8-10.9h-12.9l-9.8-5.2l-22.9-19.7l-22.1-24.9l-4.4-0.7L375,127l-13.4-32.3L356,86l-14.3,1.3l-6.4-4l-10.6-12.9
		l-8.4-15.8l-7-20.9l-1.8-14l0.9-6.3L296.9,11l-13.1-5.9l-34.6,21.6L235.3,33.6z"/>
</g>
<g id="prop_2_22_6" transform="translate(5, 1205)">
	<rect x="-194" y="-127" class="st0" width="504" height="237"/>
	<title  style="display:none">Tree Tops</title>
	
		<image style="overflow:visible;enable-background:new    ;" width="503" height="236" xlink:href="../../_common/prop_sprites//backdrops_2_22_6_tree_tops.png"  transform="matrix(1.0024 0 0 1.0024 -0.1022 0.2175)">
	</image>
	<path class="st1" d="M239.8,14.5l-0.6,2.7h-10.6l-6.3,5l-5.9-2.9l-5.2,4.5l-3.8,0.3l-2.3,4.3l1.2,6.5l-14.2,1.2l-4.7,3.1h-7
		l-5.6-2.1l-5.4-4.4l-2.8-4.8l-11.2-0.4l-2.1-3.7l-14.9-0.6l-7.1,6.2l-4.3,7.9l-3.9-4.1l-7.9-2.4l-4.9,5.3l-8,2.2L97.7,33l-7.9,0.8
		l-7.7-14.5l-4.6-0.1l-9.9,8.9L65,34.4l-6.2-1.1L46.5,36L45,32.2h-5.2l-5,4.8l-9.6,1.3L22,31.4l-4.2,4.9l-7.3-8.1H3.3L2.9,236.7
		l501.2,0.1l0.1-209.3l-3.3,1.8h-3.6l-4.4-4.4l-9.3-0.6l-3.6,4h-3l-3.2,2.6l-15.1-0.7l-3-7.2l-7.9-1.7l-4.5,1l-4.5-2.2l-4.5-4.2
		L422.1,20l-5.6-2.1l-3.3,1.2v5.1h-7.5l-3.4,1.3l-6.9-5.3H392l-2.8-3.5l-1.1-5.2l-3.9-0.6L379.5,7l-3.7,1.2l-2,4.5l-4.2,0.6
		l-5.8,5.5l-3.4,6.4L350,28.4l-15-0.2l-4.7,3v6.5l-11.9,4.4l-1.3,4.8l-5.9,3.2l0.3-6.6l-11.3-3.9l-7.5-9.9l-8.1-1.5l-5.2-7.8
		l-15-1.4l-3.4-3.3l1.6-3.2L259,9.1l-1.8-3.8h-6.9L239.8,14.5z"/>
</g>
<g id="prop_2_22_7" transform="translate(5, 997)">
	<rect x="-121" y="-133" class="st0" width="359" height="187"/>
	<title  style="display:none">Green Rect</title>
	
		<image style="overflow:visible;enable-background:new    ;" width="358" height="186" xlink:href="../../_common/prop_sprites//backdrops_2_22_7_green_rect.png"  transform="matrix(1.0033 0 0 1.0033 -9.837929e-02 0.1891)">
	</image>
	<path class="st1" d="M3.3,186.3h355L357.8,3.7L3.3,3.2V186.3z"/>
</g>
</svg>
