<?xml version="1.0" encoding="utf-8"?>
<!-- Generator: Adobe Illustrator 23.0.0, SVG Export Plug-In . SVG Version: 6.00 Build 0)  -->
<svg version="1.1" id="Layer_1" xmlns="http://www.w3.org/2000/svg" xmlns:xlink="http://www.w3.org/1999/xlink" x="0px" y="0px"
	 viewBox="0 0 2400 1200" style="enable-background:new 0 0 2400 1200;" xml:space="preserve">
<style type="text/css">
	.st0{display:none;fill:none;}
	.st1{fill:none;stroke:#FF0000;stroke-width:0.5;}
	.st2{fill:none;stroke:#FF0000;stroke-miterlimit:10;}
</style>
<g id="prop_3_22_1" transform="translate(5, 426)">
	<rect x="9" y="60" class="st0" width="598" height="264"/>
	<title  style="display:none">City Off</title>
	
		<image style="overflow:visible;enable-background:new    ;" width="597" height="263" xlink:href="../../_common/prop_sprites//backdrops_3_22_1_city_off.png"  transform="matrix(1.002 0 0 1.002 -0.1033 0.2342)">
	</image>
	<path class="st1" d="M435,5.3l-6.9,10.9h-9l-2.9,99.9l-15.5-1.4l-1-21l-45.5,0.7l-2.5-15.7l-27,0.4l0.4,29.8l-30.4,1.8l-2,17h-20
		l-1-74l-18.9-0.3l-0.5-12.7l-14.7-0.5l-0.3,5.5l-12,0.6l-0.8,6.4l-17.3,0.2l-7.2,83.7l-22.3,3.2l0.6,18.6l-22.2,2.2l-17.3-67.4H136
		l1.8,17.5l-16,2l1.6,79.9l-12.3,0.3l-3.2-26.3l-39,6.7l3.2,35l-33.3,2.8v14.3L4,226.9l5.3,34l585,1l0.3-151.3l-32.7-1l-1.2-22.5
		l-61.5-2l-0.7,17.5l-15.3,2.8l-7.8-91l-15.2-0.2l-4-9.3L435,5.3z"/>
</g>
<g id="prop_3_22_2" transform="translate(5, 700)">
	<rect x="9" y="60" class="st0" width="598" height="264"/>
	<title  style="display:none">City On</title>
	
		<image style="overflow:visible;enable-background:new    ;" width="597" height="263" xlink:href="../../_common/prop_sprites//backdrops_3_22_2_city_on.png"  transform="matrix(1.002 0 0 1.002 -0.1033 0.2342)">
	</image>
	<path class="st1" d="M435,5.3l-6.9,10.9h-9l-0.8,2.5l-2.6,96.4l-1.3,1.2l-13.7-1.6l-1-21h-44.3l-1.5-1.4l-2.2-13.6L327.1,79
		l-3.2,1.3l1.2,28.6l-30.4,1.8l-2,17h-20l-1-74l-18.5-0.1l-0.5-11.9l-14-1l-0.8,4.8l-12.5,0.7l-0.3,6.3l-18,0.3l-7.3,84l-22,2.9
		l0.6,18.6l-21.3,1L139,93.1h-2.8l2.4,17.2l-17.7,2.3l2,80.5H112l-3.8-26l-39.8,6l3.2,34.8L39,210.7l-0.2,15l-35.3,1l4.7,34l587,1.2
		L595,109.5l-32.9-0.3l-1-22.8l-62.5-1.7L497,102l-13.3,2.9l-8.5-88.7l-1.2-2h-13.8L457,7.7l-3-3.5L435,5.3z"/>
</g>
<g id="prop_3_22_3" transform="translate(5, 5)">
	<rect x="-194" y="-93" class="st0" width="998" height="411"/>
	<title  style="display:none">Ellipse</title>
	
		<image style="overflow:visible;enable-background:new    ;" width="997" height="410" xlink:href="../../_common/prop_sprites//backdrops_3_22_3_ellipse.png"  transform="matrix(1.0012 0 0 1.0012 -0.1036 0.2518)">
	</image>
	<path class="st1" d="M261.5,71.8l-102.2,43l-33.4,22.2l-31.7,31.5l-16.3,33.1v35.9l15.7,31.7l32.8,30.6l110.1,49.3l128.2,22.1
		l120.1,7.6l133.8-12.1L733.2,341l96-39.6l39.6-26.1l31.5-31.7l13.1-26.3l4.8-23.4l-5-25.2l-10-19.8l-25-26.7l-31.3-21.7L712.3,52.8
		L580,40.6l-109.7-4.3L371,49.6L261.5,71.8z"/>
</g>
<g id="prop_3_22_4" transform="translate(1582, 313)">
	<rect x="298" y="-5" class="st0" width="58" height="230"/>
	<title  style="display:none">Light Beam</title>
	
		<image style="overflow:visible;enable-background:new    ;" width="57" height="229" xlink:href="../../_common/prop_sprites//backdrops_3_22_4_light_beam.png"  transform="matrix(1.0051 0 0 1.0051 0.3535 -8.858649e-02)">
	</image>
	<path class="st1" d="M3,225.9l19,2.5L58.3,10.9l-51-3L3,225.9z"/>
</g>
<g id="prop_3_22_5" transform="translate(1445, 922)">
	<rect x="267" y="52" class="st0" width="85" height="171"/>
	<title  style="display:none">Building Small Off</title>
	
		<image style="overflow:visible;enable-background:new    ;" width="84" height="170" xlink:href="../../_common/prop_sprites//backdrops_3_22_5_building_small_off.png"  transform="matrix(1.0071 0 0 1.0071 0.2032 -0.1007)">
	</image>
	<path class="st1" d="M14.3,13.1L4.9,167.6l70.6,1.9l7.4-151.1L37,4.2l-4.3,0.1L14.3,13.1z"/>
</g>
<g id="prop_3_22_6" transform="translate(1540, 922)">
	<rect x="267" y="52" class="st0" width="85" height="171"/>
	<title  style="display:none">Building Small On</title>
	
		<image style="overflow:visible;enable-background:new    ;" width="84" height="170" xlink:href="../../_common/prop_sprites//backdrops_3_22_6_building_small_on.png"  transform="matrix(1.0071 0 0 1.0071 0.2032 -0.1007)">
	</image>
	<path class="st1" d="M14.3,13.1L4.5,167.6l70.9,2l7.8-151.5L37,4.2l-4.3,0.1L14.3,13.1z"/>
</g>
<g id="prop_3_22_7" transform="translate(1013, 5)">
	<rect x="224" y="-98" class="st0" width="118" height="361"/>
	<title  style="display:none">Building Off</title>
	
		<image style="overflow:visible;enable-background:new    ;" width="117" height="360" xlink:href="../../_common/prop_sprites//backdrops_3_22_7_building_off.png"  transform="matrix(1.0033 0 0 1.0033 0.3052 -9.948676e-02)">
	</image>
	<path class="st1" d="M4.8,11.7L6,358.8l109.1,0.5l0.7-345.5l-63-9.5l-9,0.1L4.8,11.7z"/>
</g>
<g id="prop_3_22_8" transform="translate(1205, 262)">
	<rect x="224" y="-98" class="st0" width="118" height="361"/>
	<title  style="display:none">Building On</title>
	
		<image style="overflow:visible;enable-background:new    ;" width="117" height="360" xlink:href="../../_common/prop_sprites//backdrops_3_22_8_building_on.png"  transform="matrix(1.0033 0 0 1.0033 0.3052 -9.948676e-02)">
	</image>
	<path class="st1" d="M4.8,11.7l0.9,346.7H115l0.9-344.6l-63-9.5l-9,0.1L4.8,11.7z"/>
</g>
<g id="prop_3_4_1" transform="translate(613, 820)">
	<rect x="66" y="41" class="st0" width="231" height="322"/>
	<title  style="display:none">Window Brick</title>
	
		<image style="overflow:visible;enable-background:new    ;" width="230" height="321" xlink:href="../../_common/prop_sprites//facade_3_4_1_window_brick.png"  transform="matrix(1.0035 0 0 1.0035 9.364091e-02 -6.715613e-02)">
	</image>
	<path class="st1" d="M151.1,6.9l-23.9,1.3V5l-18.5,1.4l-5.4,2.8h-10l-11.4,4l-7.1,4.7l-10.1,1L53.8,24L34.3,42.8L33,49.3l-5.7,2.9
		L20,63.7l-4.1,4.5h-5.5l-1-2.5l-5.2,11L3,82.9l4,8.8l24.7,12.8l0.8,0.7l-2.3,7.6l-0.9,152.9l-3.1,2.2l-4.4,9.8L21,312.3l5.2,2v7
		h11.5l7.5-1.3l0.2-12.2l1.9,10.3l16.3,1.4l2.6-3.6v-7.6h5.3l-1.2,7.1l4.4,1.7l12.4,1.4l8.1-1.4v-9.8h1.7l1.1,8.1l2.4,2.9h15.8v-11
		h3.7l2.4,8l4.2,2.2l10.9-1.1l3.8-3.4v-5.7h2.8l1.4,10h14.9l3.8-2l2.2-8h4.7l1.2,5h15v-5h2.9l0.6,8.5l17.5,0.6l0.2-9.6l1.9,7
		l2.7,2.7l8.2-1.4v-7.7l3.3-1.8l-1.8-35.5l-9-4.3l3.7-44.6l-1.4-6.4l-1.3-52l2.5-2.6l-1.5-5.4l0.6-46.8l5.9-11.7h8.2l-1.4-3.5
		l-1.3-13.2l-3.7-5.5l5.3-11.8l-1.2-3.8L213,45.6l4.5-8.8L204,24.3h-3.8l-3.2,5h-2.8v-7h-4.6l-7.9-5.7l-7.8-1.2l-1.7-2.6l0.5-7
		l-17-1.2l-3.3-1.4L151.1,6.9z"/>
</g>
<g id="prop_3_4_2" transform="translate(911, 426)">
	<rect x="65" y="38" class="st0" width="244" height="324"/>
	<title  style="display:none">Window Concrete</title>
	
		<image style="overflow:visible;enable-background:new    ;" width="243" height="323" xlink:href="../../_common/prop_sprites//facade_3_4_2_window_concrete.png"  transform="matrix(1.0035 0 0 1.0035 7.906590e-02 -5.953342e-02)">
	</image>
	<path class="st1" d="M65.3,12.1l-5.6,0.5l-56.4,58l3,4.1l1.9,4l25.1,30v212l1.9,3.6l179.6-1.6V112.5L243.6,70l-55.8-56l-6.1-2.7
		l-2.5-8.1h-111L65.3,12.1z"/>
</g>
<g id="prop_3_4_3" transform="translate(1688, 5)">
	<rect x="115" y="121" class="st0" width="149" height="124"/>
	<title  style="display:none">Vent</title>
	
		<image style="overflow:visible;enable-background:new    ;" width="148" height="123" xlink:href="../../_common/prop_sprites//facade_3_4_3_vent.png"  transform="matrix(1.0073 0 0 1.0073 -4.153376e-02 4.992134e-02)">
	</image>
	<path class="st1" d="M3.4,122.1l99.3-0.9l1.5,2.3l2.8,0.2l2.1-1.5l38.9,0.4L146.4,36l2.3-32.7L3.2,3.3L3.9,36L3.4,122.1z"/>
</g>
<g id="prop_3_4_4" transform="translate(1308, 922)">
	<rect x="132" y="131" class="st0" width="127" height="117"/>
	<title  style="display:none">Window Small</title>
	
		<image style="overflow:visible;enable-background:new    ;" width="126" height="116" xlink:href="../../_common/prop_sprites//facade_3_4_4_window_small.png"  transform="matrix(1.0083 0 0 1.0083 -1.977726e-02 2.145472e-02)">
	</image>
	<path class="st1" d="M3.8,6.7l0.5,109.1l121.6-0.2L125.4,5.9l-1.3-1.2l-119-1L3.8,6.7z"/>
</g>
<g id="prop_3_4_5" transform="translate(242, 974)">
	<rect x="100" y="86" class="st0" width="195" height="189"/>
	<title  style="display:none">Fan</title>
	
		<image style="overflow:visible;enable-background:new    ;" width="194" height="188" xlink:href="../../_common/prop_sprites//facade_3_4_5_fan.png"  transform="matrix(1.0052 0 0 1.0052 -7.728471e-03 7.954287e-03)">
	</image>
	<path class="st1" d="M3.3,13.8v157.1l11,12.8l162-0.5l14.7-13.7L191.2,19L175.9,3.2H13.6L3.3,13.8z"/>
</g>
<g id="prop_3_4_6" transform="translate(1205, 633)">
	<rect x="64" y="109" class="st0" width="234" height="150"/>
	<title  style="display:none">Fire Escape</title>
	
		<image style="overflow:visible;enable-background:new    ;" width="233" height="149" xlink:href="../../_common/prop_sprites//facade_3_4_6_fire_escape.png"  transform="matrix(1.005 0 0 1.005 -8.188452e-02 0.1279)">
	</image>
	<path class="st1" d="M19.3,7.1L8.1,19.7l-1.9,4.8l3.1,3.4v108.8l-4.5,2l-0.7,3.7l2.4,5.6l6,1.2l201.6,0.4l16-15.9l3.2-0.5V3.2h-214
		C19.3,3.2,19.3,7.1,19.3,7.1z M53.3,19.8h-29v-8.6h29V19.8z M85.3,19.8h-29v-8.6h29V19.8z M121.3,19.8h-33v-8.6h33V19.8z M157.3,20
		h-33v-8.8h33V20z M193.3,20h-32v-8.8h32V20z M229.3,20h-32v-8.8h32V20z M20.6,19.7h-3.7l4-5.6L20.6,19.7z M21.3,121.2h-2.4
		l-4.6,4.3v1.7h5v1.8l-7,5.3V27.2h9V121.2z M41.3,121.2h-17v-94h17V121.2z M53.3,121.2h-9v-94h9V121.2z M73.3,121.2h-17v-94h17
		V121.2z M85.3,121.2h-9v-94h9V121.2z M109.3,121.2h-21v-94h21V121.2z M121.3,121.2h-9v-94h9V121.2z M145.3,121.2h-21v-94h21V121.2z
		 M157.3,121.2h-8v-94h8V121.2z M181.3,121.2h-20v-94h20V121.2z M193.3,121.2h-8v-94h8V121.2z M217.3,121.2h-20v-94h20V121.2z
		 M229.3,121.2h-8v-94h8V121.2z M20.8,134.7l0.9-1.1l20.1,0.1l-1,0.9L20.8,134.7z M48.4,134.7l1-1.1l24.3,0.1l-0.8,0.9L48.4,134.7z
		 M84.4,134.8l0.8-1.2l24.5,0.1l-0.3,0.9L84.4,134.8z M112.6,135.3v-1.9l2.9-0.2L112.6,135.3z M121.9,134.6l0.9-1h23.3l-0.5,1H121.9
		z M149.3,137.3l-0.5-3.9l3.8-0.2L149.3,137.3z M158.7,134.6l1.3-1h21.8v1.1L158.7,134.6z M186.3,135.3l-1.5-1.9l3.8-0.2
		L186.3,135.3z M195.3,134.6l1.1-1.1l21.4,0.2l-0.3,0.9L195.3,134.6z M18,137.8l-0.2-1.1h22l-0.8,0.9L18,137.8z M45.3,137.6l1-0.9
		h27.5l-0.7,0.9H45.3z M81.3,137.7l0.8-1h27.7l-0.5,0.9L81.3,137.7z M119,137.8l0.9-1.1l25.9,0.1l-0.3,0.9L119,137.8z M155.6,137.7
		l1-1l25.6,0.1l-0.2,0.9H155.6z M192.6,137.6l1-1.1l24.2,0.2l-0.2,0.9L192.6,137.6z"/>
</g>
<g id="prop_3_4_7" transform="translate(911, 760)">
	<rect x="66" y="52" class="st0" width="239" height="322"/>
	<title  style="display:none">Fire Escape Stairs</title>
	
		<image style="overflow:visible;enable-background:new    ;" width="238" height="321" xlink:href="../../_common/prop_sprites//facade_3_4_7_fire_escape_stairs.png"  transform="matrix(1.0035 0 0 1.0035 8.340760e-02 -6.189482e-02)">
	</image>
	<path class="st1" d="M19.8,6.1l2.4,2.5v18.3L10.3,17l-4.9,2.1l2.3,4.5L7.5,125.1l-4.3,1.1l1.1,16.2l2.2,2.7l7.5,1.2l68.5,56v2h3.1
		l31.9,26.1v1.9h2.3l33.7,27.1v2l3.5,1.2l68,54.9l1.4,4.1l10.4-9.1L224.5,302v-9.8l14.2,11.4l-0.2-123.9L24.8,3.5L19.8,6.1z
		 M95.5,71.3v16.1L26.6,30.8L26.5,14L95.5,71.3z M22.5,36.8L22,82.2L11.5,74l0.2-46.3L22.5,36.8z M80.5,84.6v19.8L26.6,60.8
		l-0.1-20.6L80.5,84.6z M80.5,108.5v20.8h-1.2L26.5,86.1v-21l1.6,0.7L80.5,108.5z M164.3,127.8l0.1,16.6l-65-53.5V75.1L164.3,127.8z
		 M22.5,86.6v25.7h-2.9l-8,8.5l-0.1-43L22.5,86.6z M95.5,97.2v19.1h-1.1l-9.9-8.3V88.2L95.5,97.2z M80.5,133.9v18.5h-6.9L55,137.2
		l2.7-3.8l3.3-0.1l3.5-7.6l-0.3-1.8H38.8l-12.5-9.8v-24L80.5,133.9z M149.5,160.5l-3.5-2l-46-37.7l-0.6-20.4l50.1,41.2V160.5z
		 M95.5,120.6v21.8l-11-8.6v-21.7L95.5,120.6z M149.5,164.9v21.7l-50-40.6v-21.7L149.5,164.9z M27.7,133.2l-3.5,4.9l-6.7-6.1
		l1.7-2.3l1.6,1.8l5.1,0.2L27.7,133.2z M235.5,186.9v16.7l-68-56.4v-16L235.5,186.9z M95.5,152.4h-11v-15.1l11,8.6V152.4z
		 M164.5,153.9v18.5h-1.2l-9.8-8.2v-18.9L164.5,153.9z M61.9,159.5l-4.8,6l-14.6-12.3l4.2-5.8L61.9,159.5z M149.5,189.9v19.5h-6.2
		L125.2,195l7.1-6.1l3.1-6.2l-1.2-1.3h-25l-9.7-7.4v-24.7L149.5,189.9z M220.4,200.8l-0.3,17.8l-52.8-42.7v-18.5h1.1L220.4,200.8z
		 M95.5,170.9l-5.4-5.4l3.7-4.1h1.7C95.5,161.4,95.5,170.9,95.5,170.9z M164.5,198.5l-11-8.5v-21.8l10.9,8.6L164.5,198.5z
		 M80.4,184.1l-3.3-2.6l3.3-3.4V184.1z M97.5,191.2l-2.9,4.7l-10.2-8.8v-8.9l11.9,9.4L97.5,191.2z M220.5,222.9v21.7l-53-43.3v-21
		L220.5,222.9z M164.5,202.5v6.8h-11v-15h1.2L164.5,202.5z M235.5,212.7l0.1,18l-11.1-8.6v-17.9L235.5,212.7z M132.8,217.4l-5.1,5.3
		l-14.5-11.8l4.6-5.5L132.8,217.4z M220.3,247.9l0.1,20.1h-6.2l-16.8-14l5.5-6.1l3.5-6.3v-2.2h-26.8l-12.2-10.2v-12.9l3.1-5.9
		l-3.1-1.2v-3.9L220.3,247.9z M164.5,226.5l-3-2.5l3-2.7V226.5z M235.5,256.5l-11-8.5v-21.7l10.9,8.6L235.5,256.5z M168.9,246.7
		l-5.1,5.5l-10.3-8.1v-9.8L168.9,246.7z M149.5,240.7l-2.2-2.2l2.2-2.2V240.7z M235.6,267.7h-11.1v-16.6l11,9.7L235.6,267.7z
		 M203.2,274.9l-4.1,6.1l-13.7-10.8l4.5-6L203.2,274.9z M235.6,285.1l-4.5-3.6l4.3-4.1L235.6,285.1z"/>
</g>
<g id="prop_3_4_8" transform="translate(1502, 417)">
	<rect x="136" y="55" class="st0" width="70" height="329"/>
	<title  style="display:none">Ladder</title>
	
		<image style="overflow:visible;enable-background:new    ;" width="69" height="328" xlink:href="../../_common/prop_sprites//facade_3_4_8_ladder.png"  transform="matrix(1.0035 0 0 1.0035 0.378 -7.999071e-02)">
	</image>
	<path class="st1" d="M3.1,5.8v321.4l1.2,1.2l3.8-2.4v-41.5h56v40.7l2.8,1l2.2-2.2L69,6.9l-2.6-3.5h-2.3v22h-56v-22H5.5L3.1,5.8z
		 M64.1,71.4h-56v-41h56V71.4z M64.1,112.4h-56v-36h56V112.4z M64.1,154.5h-56v-37h56V154.5z M64.1,199.5h-56v-40h56V199.5z
		 M64.1,236.5h-56v-32h56V236.5z M64.1,279.5h-56v-38h56V279.5z"/>
</g>
<g id="prop_3_4_9" transform="translate(854, 1030)">
	<rect x="151" y="128" class="st0" width="42" height="128"/>
	<title  style="display:none">Chimney</title>
	
		<image style="overflow:visible;enable-background:new    ;" width="41" height="127" xlink:href="../../_common/prop_sprites//facade_3_4_9_chimney.png"  transform="matrix(1.0094 0 0 1.0094 0.3064 -9.974290e-02)">
	</image>
	<path class="st1" d="M6.3,21.5v1.7l4,0.3l-5.4,9.2v1.4L9.1,34l0.7,83.7l3.8,5.6l7.5,4.5h5.4l8.2-8.6l-0.8-9.1l1.9-1.5l-2.3-6.9
		l-0.1-10.4l2.4-1.1l-2.3-1.7l0.1-11.3l2-1.1l-2.2-0.9V62.6l1.9-1.3l-1.9-1.1V42.6l2.1-1.6l-2.2-0.8l0.6-16.5l7.2-0.2l0.5-2.1
		l-4.1-2.2L24.3,3.1l-1.6,0.1L6.3,21.5z"/>
</g>
<g id="prop_3_4_10" transform="translate(854, 820)">
	<rect x="173" y="134" class="st0" width="39" height="200"/>
	<title  style="display:none">Gutter Pipe</title>
	
		<image style="overflow:visible;enable-background:new    ;" width="38" height="199" xlink:href="../../_common/prop_sprites//facade_3_4_10_gutter_pipe.png"  transform="matrix(1.0058 0 0 1.0058 0.3901 -7.530919e-02)">
	</image>
	<path class="st1" d="M7.3,194.6l-3.1,2.7l0.1,1.8l34.6,0.2l-0.1-2.2l-3.5-2.5V3.2h-28C7.3,3.2,7.3,194.6,7.3,194.6z"/>
</g>
<g id="prop_3_4_11" transform="translate(1013, 376)">
	<rect x="175" y="113" class="st0" width="45" height="36"/>
	<title  style="display:none">Gutter Pipe Top</title>
	
		<image style="overflow:visible;enable-background:new    ;" width="44" height="35" xlink:href="../../_common/prop_sprites//facade_3_4_11_gutter_pipe_top.png"  transform="matrix(1.025 0 0 1.025 -4.991300e-02 6.254902e-02)">
	</image>
	<path class="st1" d="M23.8,5.9l-6,3.1l-6.1,6.7L8.4,21L6,30.7l-2,2.6l0.7,2.1l29.5,0.1l3-2.8l-0.3-2.5l1.1-2.5l6.7-0.1l0.1-23.7
		L30.4,4.3L23.8,5.9z"/>
</g>
<g id="prop_3_4_12" transform="translate(589, 1152)">
	<rect x="157" y="147" class="st0" width="52" height="42"/>
	<title  style="display:none">Gutter Pipe Bottom</title>
	
		<image style="overflow:visible;enable-background:new    ;" width="51" height="41" xlink:href="../../_common/prop_sprites//facade_3_4_12_gutter_pipe_bottom.png"  transform="matrix(1.0215 0 0 1.0215 -4.794290e-02 5.947670e-02)">
	</image>
	<path class="st1" d="M18.9,9.6L14.4,14L10,15.2H5.3l-1,3.5l1.9,8v14.5l31-0.6l6-3.1l4.4-6.4L51.8,5L42,3.2H22.8L18.9,9.6z"/>
</g>
<g id="prop_3_4_13" transform="translate(447, 974)">
	<rect x="118" y="85" class="st0" width="132" height="202"/>
	<title  style="display:none">Roof Side</title>
	
		<image style="overflow:visible;enable-background:new    ;" width="131" height="201" xlink:href="../../_common/prop_sprites//facade_3_4_13_roof_side.png"  transform="matrix(1.0058 0 0 1.0058 0.1222 -7.974732e-02)">
	</image>
	<path class="st1" d="M109.7,17.5l-0.4,6.9l-7.2,10.7L87.8,49.5l-11.7,8.7L71.4,58l7.1,12.2h1.9L73.7,82l-8.6,10.8l-14.3,11.4
		l-9.4,4.3l7,10.9l-3,9.6l-20,26.8L13,164.9l-9.9,0.6l1.1,5.4l8.9,12.8l2.4-0.6l18.7,18.1l7,0.6l0.1-2.6l24.5-10.8l12-2.4l4.4-2.1
		l12.6,1.2L110,193l2.4-7.8h3.5l9.5-66.5l-1.5-15.9l0.2-50.1l3.1-12l1.4-19.4l2.6-1l-4.9-10.6V6.2h-8.9l-5-1.9L109.7,17.5z"/>
</g>
<g id="prop_3_4_14" transform="translate(1333, 417)">
	<rect x="115" y="86" class="st0" width="159" height="199"/>
	<title  style="display:none">Roof Mid</title>
	
		<image style="overflow:visible;enable-background:new    ;" width="158" height="198" xlink:href="../../_common/prop_sprites//facade_3_4_14_roof_mid.png"  transform="matrix(1.0055 0 0 1.0055 6.169774e-02 -4.928505e-02)">
	</image>
	<path class="st1" d="M32.3,7.9L6.8,9.7L7,19.8l3.4,6.5L6.3,73l2.1,0.7l-2.1,37.2l3.7,10.6l-0.8,37.2l-5.5,28.7l8.4,9.2l17.7-6.5
		l23-1l27,3.8l32.6-7.2l13.6,0.4l28.3,12.2l3.4-1.9l-0.4-12.4l-6.1-27.3l-1.8-27.5l6.2-12.7l-0.9-19.8L150.5,69l2.8-14.7l-4.9-18.5
		l0.4-13.5l1.8-0.6l-0.1-18.1l-12.8,4.8l-10.5,0.3v2.7L106.8,10l-2.4-2l-7.1,2.3L46.8,8.4l-14-4.2h-0.5V7.9z"/>
</g>
<g id="prop_3_26_1" transform="translate(5, 974)">
	<rect x="-108" y="-106" class="st0" width="227" height="188"/>
	<title  style="display:none">Cleaner</title>
	
		<image style="overflow:visible;enable-background:new    ;" width="226" height="187" xlink:href="../../_common/prop_sprites//cars_3_26_1_cleaner.png"  transform="matrix(1.0048 0 0 1.0048 -4.239054e-02 5.118764e-02)">
	</image>
	<path class="st1" d="M67.2,7.1l-6.4,3.8l-18,1.2L11,21.7l-2.2,3.6l2.8,1.7l-4.3,6v66.6l5.2,5.4l-3.4,5.2H4.9l1.2,10.6l4.1,2.5v3.9
		H22l0.6,3.1l-1.6,0.4l-0.1,18.4l6.5,3.6l17.1,0.5v1.7l-18.6,1l-1.2,3.9h-6.9l-7.7,2.8l1.1,4L2.7,187l3.7-1.3l16.4,1.8l21.2-1.3
		l3.2-2.1l5.3,0.3l-7.8-22.2l-12-1.4l1.5-1.5l14.2-1.1v-5.1l5.9-0.3l0.1-2.5H57l1,12.6l3.4,7l-3.9,12.5h2.7l1.3,4.1l5.3-1.6l8.3-0.2
		l3.4-2.8l1.6,2.8l5.6-2l1.2,1.6l23.9,0.2l2.2,2.6l4.6-3.7l7.9,1.6l8.3-0.9l-5.2-10.7l1.3-0.5l3.8,7.4l7.8,4h8.5l7.6-4.9l3.2-8.3
		l0.6-7.2l6.4-0.1l3.4,1.7l9.8-0.2l2.4,9.8l5.6,8.4h15.3l6-4.8l4.2-10.3l1.8-11.2l-0.6-12.6l-6.3-7l9.7-0.3l2.8-3.1l0.9-5.6l1.7-1.1
		l2.9-56.6l-3-57.3l-4.9-7.2L181,4.1L67.2,7.1z M119.2,159.6l-4.7,0.1l-6.2-2.7l-1.5-1.8l11.6-0.5L119.2,159.6z M98.3,160.2
		l-10.4,1.4l0.2-3.9l13.5,0.1L98.3,160.2z"/>
</g>
<g id="prop_3_26_2" transform="translate(1333, 262)">
	<rect x="-123" y="-70" class="st0" width="220" height="145"/>
	<title  style="display:none">Truck</title>
	
		<image style="overflow:visible;enable-background:new    ;" width="219" height="144" xlink:href="../../_common/prop_sprites//cars_3_26_2_truck.png"  transform="matrix(1.0053 0 0 1.0053 -7.867096e-02 0.1195)">
	</image>
	<path class="st1" d="M75.3,4.7l-5.6,4.2l-0.6,5.3l-2.6,1.2L53,41.4l-1.1,3.8l-2.6,2.5l-15,3.5l-4,2.2l-3.7,7.4l-1.4,7.5l-5.4,1.1
		l-7.4,3.1l-5,5.3l-3.1,7.4v8.4l4.7,7.1l-2.7,2v3.4l2.6,1l5.1,14.6l-4.4,0.1l-3.4,7.1l1.6,1.9l11.3,1.8l1.3,4.1l2.4,4.8l3.8,2.1
		l13.8,0.1l3.1-2.7l1.3-6.2l43,1.8l32.9-2.3l2,4.3l6.1,4.2l16.1,0.7l4.3-5.4l1.3-9.8h5.7v-2l31.1,0.1l1.9,10.7l3.7,4.8l12.7-0.3
		l4.2-1.9l2.8-10.9l1-18.9l1.7-4.5h2.8l1.4-23.7l-1.1-27.8l-4.1-2.4L176.4,49l-2-5.3l-3-30.6l-4.1-6.7l-9.6-2.5l-72-0.5L75.3,4.7z"
		/>
</g>
<g id="prop_3_26_3" transform="translate(1563, 193)">
	<rect x="-111" y="-52" class="st0" width="214" height="110"/>
	<title  style="display:none">Car</title>
	
		<image style="overflow:visible;enable-background:new    ;" width="213" height="109" xlink:href="../../_common/prop_sprites//cars_3_26_3_car.png"  transform="matrix(1.0056 0 0 1.0056 -9.917911e-02 0.1934)">
	</image>
	<path class="st1" d="M91.3,6.1L80.5,11L55.3,36.7l-43,14.8l-5.9,6.7L4.1,72.7v8.8l4.5,3.4l-1.2,7.3H19l1.2,6.5l4,6.5l6.7,3.2
		l10.6-0.8l5.5-6l3.7-9.3l55.2-0.1v6.5l3.2,6.4l7.1,3.6l10.3-0.2l4.3-7.4l1.4-8.9h39.1l4.5,12.2l6.4,3.6l8.3,0.7l4-2.2l3.7-5.7
		l3.2-13l6.8-1.3l3.8-4.4l1.4-14L212,45.7l-3-7.5l-6.3-3.8l-7.6-2.4l-5-9.9l-7.4-8.2l-10-6.4l-11.6-4.3l-56.4,0.2L91.3,6.1z"/>
</g>
<g id="prop_3_27_1" transform="translate(1449, 626)">
	<rect x="-23" y="-24" class="st0" width="40" height="75"/>
	<title  style="display:none">Hydrant</title>
	
		<image style="overflow:visible;enable-background:new    ;" width="39" height="74" xlink:href="../../_common/prop_sprites//sidewalk_3_27_1_hydrant.png"  transform="matrix(1.0162 0 0 1.0162 0.1848 -9.801753e-02)">
	</image>
	<path class="st1" d="M21.1,6.1l-1.8,0.1v2.1l-5,7.3L13.4,19l-2.1,1.1L11,22.6l-1.7,0.6v2.3l2.8,2.3l0.1,10.9l-4.8-0.3l-0.1,5.3
		l-4,1l0.1,2.1l4,1l-0.1,4.3l4.8,0.2l-1.5,16l2.1,1.3l-3.4,2.5l0.2,2.3h28v-3.1l-2.7-1.9l3.6-0.8l0.4-2.5L36.3,65l0.1-10.4l2.9-5.3
		l0.1-7.6l-3-5.1l-0.1-9.4l2-0.6l0.2-2.1L36.8,24L36,21.6l-1.8-1.1l-0.6-4.2L28.9,9l-0.3-2.4L27.1,6l-0.9-2.1H23L21.1,6.1z"/>
</g>
<g id="prop_3_27_2" transform="translate(1205, 1118)">
	<rect x="-47" y="-43" class="st0" width="91" height="71"/>
	<title  style="display:none">Fence Side</title>
	
		<image style="overflow:visible;enable-background:new    ;" width="90" height="70" xlink:href="../../_common/prop_sprites//sidewalk_3_27_2_fence_side.png"  transform="matrix(1.0123 0 0 1.0123 -5.389876e-02 6.916969e-02)">
	</image>
	<path class="st1" d="M7.7,5.2l-3.1,5.5l-1.3,5.5h2v54.5l85.9,0.1V16.3l-68.6-0.2l-1.1-3.9l-3.2-6.8l-3.1-1.6L12,3.5L7.7,5.2z
		 M31.3,32.2h-1.6l-8.4-8.6l1.3-1.4h8.7V32.2z M42.3,24.6l-7.4,7.6h-1.6v-10h9V24.6z M54.3,32.2h-1.4l-8-8.5v-1.6l9.4,0.1
		C54.3,22.2,54.3,32.2,54.3,32.2z M65.3,25l-8,7.2h-1v-10h9V25z M77.3,31.1l-2.2,1.3L67.9,25v-2.6l9.4-0.2V31.1z M88.3,25l-8,7.2h-1
		v-10h9V25z M28.2,41.3l-6.8,5.8V27.4l6.9,6.2l-1.1,4.5L28.2,41.3z M88.7,47.3l-6-6.1l1.4-3.9L83,33.4l5.7-5.5V47.3z M42.3,46.6
		l-6-5.6l2-3.6l-2.1-3.6l6-5.6L42.3,46.6z M50,41l-5.2,5.6V27.8l6,6.4L50,41z M65.3,46.6l-5.5-5.3l0.2-8.2l4.6-4.9h0.7V46.6z
		 M73.9,41.2l-6.2,5.7V28.1l6.2,5.9l-1.1,3.7L73.9,41.2z M31.4,48.8l-7.6,0.1l5.8-6l1.9-0.1C31.4,42.8,31.4,48.8,31.4,48.8z
		 M41.2,49L34,48.9v-6l1.4,0.1L41.2,49z M54.4,48.6h-8.2l6.3-6.1l1.8,0.3L54.4,48.6z M64,48.8h-7.4l0.3-6.1h1.6L64,48.8z M77.6,49
		l-8.1,0.1l5.5-6.4l2.6,0.3V49z M87.4,48.9h-7.7v-6h1.8L87.4,48.9z M31.8,56.5l-10.5,0.1V52l10.5-0.1V56.5z M42.8,56.8h-2.1l-1.1-3
		h-1.8v3.1l-3.5-0.6l-0.6-4.5h9.1C42.8,51.8,42.8,56.8,42.8,56.8z M54.8,56.1l-10,0.4v-4.6h10V56.1z M65.8,56.5h-9v-4.6h9V56.5z
		 M77.8,56.5h-10v-4.6h10V56.5z M88.8,56.5h-9v-4.6h9V56.5z M30.6,65.1l-0.9-0.6l-1.3-4.1l-2.2,2.4L23,58.6l7.8-0.1L30.6,65.1z
		 M36.6,60.5h-2.1v-2l3.8,0.1L36.6,60.5z M40.9,62.1l-0.2-3.8l1.8,0.1V62L40.9,62.1z M53.4,64.6h-4v-2.1l2.1-3.9h1.9V64.6z
		 M65.2,61.6l-2.6-1.2V65l-5-5.4v-1.1h7.6V61.6z M76.5,65l-1.3-0.4L75,61.5h-2.2L69,64.8v-6.3h7.8L76.5,65z M88.1,60.5H86l-1.5,4
		l-3.5-6h7.1V60.5z"/>
</g>
<g id="prop_3_27_3" transform="translate(1519, 1103)">
	<rect x="-26" y="-31" class="st0" width="55" height="59"/>
	<title  style="display:none">Fence Mid</title>
	
		<image style="overflow:visible;enable-background:new    ;" width="54" height="58" xlink:href="../../_common/prop_sprites//sidewalk_3_27_3_fence_mid.png"  transform="matrix(1.0178 0 0 1.0178 1.846596e-02 -1.722342e-02)">
	</image>
	<path class="st1" d="M4.4,58.6l47.1,0.1l0.3-54.4L3.2,4.2l0.1,47.6L4.4,58.6z M15.3,20.2h-2.4l-7.6-7.4v-2.6h10
		C15.3,10.2,15.3,20.2,15.3,20.2z M26.3,13l-8,7.2h-1v-10h9V13z M37.3,20.2h-1.4l-7.2-7.4v-2.6h8.6C37.3,10.2,37.3,20.2,37.3,20.2z
		 M49.3,11.7L42,20.2l-1.6-0.4l-0.1-9.5l9.1-0.1v1.5H49.3z M26.3,34.6l-5.6-5.3l0.2-9.1l4.7-5h0.7V34.6z M11.6,28.8l-6.3,5.8V15.8
		l6.3,5.8L11,25.8L11.6,28.8z M34.3,28.8l-6,5.8V15.8l6,5.8V28.8z M49,34.3l-5.1-4.9l1-4.1l-1.1-4.9l5.3-4.1v18H49z M6.6,37l6.2-6.4
		l2.2,0.3v6L6.6,37z M24.7,37.1h-7.4l-0.1-6.7l1.9-0.1L24.7,37.1z M37.9,37.1H30l5.8-6.4l2,0.1L37.9,37.1z M47.6,37h-6.9l-0.1-6h1.1
		L47.6,37z M15.3,42.3l-2.8-1.1l0.8,3.3h-8v-4.9h10V42.3z M26.3,44.5h-9v-5h9V44.5z M38,44.4l-9.7-0.1v-4.7H38V44.4z M49.4,44.3
		l-8.9-0.1v-4.6l8.9,0.1V44.3z M9.8,48.5l-3.5,3v-4.8l7.4-0.1L9.8,48.5z M18.3,48.3v-2.1l2.8,0.1L18.3,48.3z M36.2,51.7L33.9,48
		l-3.3,4.6h-1.2v-5.9l6.7-0.1L36.2,51.7z M48.6,49.3L44,52.7l-2.6-0.2l-0.3-5.9l7.6,0.2L48.6,49.3z"/>
</g>
<g id="prop_3_27_4" transform="translate(1205, 793)">
	<rect x="-34" y="-155" class="st0" width="93" height="315"/>
	<title  style="display:none">Telephone Pole</title>
	
		<image style="overflow:visible;enable-background:new    ;" width="92" height="314" xlink:href="../../_common/prop_sprites//sidewalk_3_27_4_telephone_pole.png"  transform="matrix(1.0038 0 0 1.0038 0.3255 -9.574221e-02)">
	</image>
	<path class="st1" d="M21.8,4.7l-0.5,32.5h-4l-1-20h-9l-1.4,5.5v5.1l1.3,3.3l-1.9,1.2l1.2,4.9h-2L3.2,48.1l2.1,4l16.5,0.6l0.6,28.5
		l-5.6,0.2l-0.3-4.7l1-1.7v-4l-1.3-2.7l1.4-1.8l-1.2-5.4h-9L6,66.6v5.1L7.3,75l-1.9,1.2l1.2,4.9h-2l-1.4,11l2.2,4.1h16.9v217l5,1.4
		l20.1-0.9l4-1.6L50,96.2h37.8l4.5-1.2V83.6l-3.5-3l1.4-2.2l-1.7-4.7l0.9-6.5l-2.2-4.1h-6.3l-1.3,2.2l0.9,2.7v6.3L78.2,77l3.1,1.1
		l-1.2,3.1H50.3v-29h37.5l4.5-1.2V39.6L88.1,36l2.1-2.1l-1.8-3.5l0.9-7.3l-2.1-3.9h-6.8l-0.9,1.5l1.5,9.5l-2.8,2.3l3,1.8l-1.1,2.9
		H50.3l0.2-32.3l-2.7-1.7L23.7,3.8L21.8,4.7z"/>
</g>
<g id="prop_3_27_5" transform="translate(1434, 1103)">
	<rect x="-32" y="-49" class="st0" width="75" height="74"/>
	<title  style="display:none">Wire Loop</title>
	
		<image style="overflow:visible;enable-background:new    ;" width="74" height="73" xlink:href="../../_common/prop_sprites//sidewalk_3_27_5_wire_loop.png"  transform="matrix(1.0136 0 0 1.0136 -3.378222e-03 3.404002e-03)">
	</image>
	<path class="st1" d="M5.2,6.3v2.8L3.3,9.7l1.5,35.1l2.4,18.7l2.2,6.6l3.5,4l2.8-0.3l2.1-4.9L18.3,45l7.4,7.3l9.4,3.8l14.3,0.2
		l10-4.8l6.2-6.1l6-11.8l2.6-13.4l0.5-9.3L70.8,11l1.2,4.4l-2.3,14.4l-5.3,11.9L58,48.5l-8.7,4.8l-13.8-0.1l-9.2-4l-8-7.8l-2.2-26.7
		l-1.3-4.2l-5.9-0.2l1.3-6.4L8,3.2L5.2,6.3z M15.4,35.6l-3.5-8.1L8.4,13.2h4.5L15.4,35.6z M15.3,40.1l0.4,24.4l-0.9,6.8L13,71.1
		L10.4,66L8.3,52.2L6.3,26l0.1-10.3L10.1,30L15.3,40.1z"/>
</g>
<g id="prop_3_27_6" transform="translate(1688, 139)">
	<rect x="-28" y="-44" class="st0" width="79" height="44"/>
	<title  style="display:none">Wire Bundle</title>
	
		<image style="overflow:visible;enable-background:new    ;" width="78" height="43" xlink:href="../../_common/prop_sprites//sidewalk_3_27_6_wire_bundle.png"  transform="matrix(1.0153 0 0 1.0153 -9.523080e-02 0.1719)">
	</image>
	<path class="st1" d="M3.5,5.6l2.8,2.5l8.5,3.4l16.1,3.3l14.8,2l13.7,0.7l-2,5.4v9.8l5.9,4.2v4l2.8,2.8l3.5-2.6l0.9-6.2l1.6,3.2
		l3,3.9h3l1.1-3.7L79,27.6l-2.7-9L73,7.1l-2.3-0.6l-2,2l-2-0.9l-5.9,6.7L48,14l-16.3-2.1L16.4,8.6L7.1,4.9l-1.2-2L3.3,3.2L3.5,5.6z
		 M68.4,32.7l-2.9-2.9l-0.3-6.1l3.3-9.5L68.4,32.7z M63.1,32.9l-1.9-0.8L60,27.6l0.8-4.7l1.5-3.3l-0.6,5.9L63.1,32.9z M76.6,38
		l-1.2,0.1l-2.3-5l2.3-9.9l1.1,8.3L76.6,38z M66.5,39.5l-1-3.3l2.1-0.2L66.5,39.5z"/>
</g>
<g id="prop_3_27_7" transform="translate(5, 1186)">
	<rect x="-165" y="-62" class="st0" width="323" height="9"/>
	<title  style="display:none">Wire</title>
	
		<image style="overflow:visible;enable-background:new    ;" width="322" height="8" xlink:href="../../_common/prop_sprites//sidewalk_3_27_7_wire.png"  transform="matrix(1.0032 0 0 1.0032 -1.284130e-02 0.4873)">
	</image>
	<path class="st2" d="M182.3,8.6h-62.7L66.9,8.4L31.6,7.5L3.2,6.6l0.1-3l28.4,0.9l35.2,0.9l52.7,0.1h62.7l70.3-0.3
		c4-0.1,39-0.8,39.5-0.8c0.6,0,19.6-0.5,29.6-0.8l0.1,3c-3,0.1-29.2,0.8-29.7,0.8c-0.6,0-26.1,0.5-39.5,0.8L182.3,8.6z"/>
</g>
<g id="prop_3_27_8" transform="translate(1449, 756)">
	<rect x="-165" y="-62" class="st0" width="322" height="25"/>
	<title  style="display:none">Wire Hanging</title>
	
		<image style="overflow:visible;enable-background:new    ;" width="321" height="24" xlink:href="../../_common/prop_sprites//sidewalk_3_27_8_wire_hanging.png"  transform="matrix(1.0033 0 0 1.0033 -3.505303e-02 0.46)">
	</image>
	<path class="st2" d="M145.5,24.9L145.5,24.9l-34.8-2.3l-34.8-3.5l-40.6-6.5L2.7,6.2l0.6-2.9l32.5,6.4l40.4,6.5l34.7,3.5l34.6,2.2
		l37.9-0.5l28.7-1.2l31.2-2.7l30.9-4.5c0,0,27-4.7,27.2-4.7s16.1-3.5,16.1-3.5l3.8-0.8l0.6,2.9l-20,4.4l-27.3,4.8l-31,4.5l-31.3,2.8
		l-28.8,1.3L145.5,24.9z"/>
</g>
<g id="prop_3_27_9" transform="translate(1308, 793)">
	<rect x="84" y="190" class="st0" width="237" height="119"/>
	<title  style="display:none">Gear Side</title>
	
		<image style="overflow:visible;enable-background:new    ;" width="236" height="118" xlink:href="../../_common/prop_sprites//sidewalk_3_27_9_gear_side.png"  transform="matrix(1.0051 0 0 1.0051 -0.1002 0.1999)">
	</image>
	<path class="st1" d="M112.3,10.9L83.6,12L68.1,5.4L52.8,8.9L52.2,19l-11.1,3.7l-8.5,4.8L8.9,29.8l-5.7,8l4.4,19.9l6.3,0.5V60
		l-8.2,6.2L10.4,87l7.3,7l25.9-2.6l5.5,2.3l15.3,3.6l10.8-0.1l10.1,19.2l25.7,1.8l17.8-12.8l22.9-2.8l21.6-4.4l21.2,13.3l11-5
		l4.9-25.1l-0.9-4l3.3-2.8l20.7-5.2l3.4-22.9L235,35.7l-28.6-6.3l-0.4-8.3l-13.3-7.4l-31,1l-15.3-2.6l-3.2-7.9h-21.5L112.3,10.9z"/>
</g>
<g id="prop_3_27_10" transform="translate(1503, 5)">
	<rect x="103" y="102" class="st0" width="175" height="178"/>
	<title  style="display:none">Gear Big</title>
	
		<image style="overflow:visible;enable-background:new    ;" width="174" height="177" xlink:href="../../_common/prop_sprites//sidewalk_3_27_10_gear_big.png"  transform="matrix(1.0057 0 0 1.0057 4.309612e-03 -4.256958e-03)">
	</image>
	<path class="st1" d="M81.8,24.2l-14,4.5L51.5,13l-20,14.3l8.7,19.3L29.9,61.2H7.4L3,85.8l19.7,8.1l3.5,17.1L9.8,126.3l13.9,20.5
		l19.7-7.6l16.3,12.3l0.8,21.9l24,4l8.2-21.1l8.8-0.9l10-3.2l16.4,14.8l19.7-14.2l-9.2-20.4l4.9-7.3l3.7-7.3l22.5-0.7l4.3-23.3
		l-21.2-9L149,68.2l14.5-15.7l-12.8-20.3l-21.2,8.1l-14.8-8.9L114.6,9L91.3,3.6L81.8,24.2z M99.2,84.3l2.3,7.2l-2.2,7.6l-7.3,5.5
		l-7.8-0.2l-5.9-3.3l-3-5.9V88l3-5.8l5.5-3l9.3-0.1L99.2,84.3z"/>
</g>
<g id="prop_3_27_11" transform="translate(1308, 1049)">
	<rect x="132" y="132" class="st0" width="116" height="118"/>
	<title  style="display:none">Gear Small</title>
	
		<image style="overflow:visible;enable-background:new    ;" width="115" height="117" xlink:href="../../_common/prop_sprites//sidewalk_3_27_11_gear_small.png"  transform="matrix(1.0086 0 0 1.0086 4.347023e-03 -4.293213e-03)">
	</image>
	<path class="st1" d="M55.2,16.9l-9.1,3L35.4,9.8l-13.3,9.6L27.5,32l-6.3,9.2H6.4L3.8,57.3l13,5.5l1.7,11L8.4,84.1l8.4,13.4L30.3,92
		l10.5,8.9l0.9,13.8L57,117l5-13.2l13.3-2.4l9.8,9.2l13.1-9.5L92,87.5l5.5-9.3H112l3.1-15.6L101.6,57l-1.1-5.9L99.2,46l9.4-10.1
		l-8.3-13.5l-13.8,5.9l-9.7-6.8L76.6,7.1L60.3,4L55.2,16.9z M72,57.1l0.4,6.1l-3.1,7.4L63,74.7l-7.3-0.2l-6.4-3.3l-3-5.9v-7.2
		l2.9-5.6l6.6-3.3h8.3l4.8,2.9L72,57.1z"/>
</g>
<g id="prop_3_8_1" transform="translate(613, 426)">
	<rect x="28" y="-46" class="st0" width="288" height="384"/>
	<title  style="display:none">City Lamp Standing</title>
	
		<image style="overflow:visible;enable-background:new    ;" width="287" height="383" xlink:href="../../_common/prop_sprites//lighting_3_8_1_city_lamp_standing.png"  transform="matrix(1.0029 0 0 1.0029 8.024658e-02 -6.017893e-02)">
	</image>
	<path class="st1" d="M138.3,92.5l-0.3,4.6l-4.1,3.1l-6.7,1.6l-1.9,4.2l1.8,1.1l0.2,46.7l10.5,2.6l2.7,17.2v151.6l-7.5,5.3l-0.4,4
		l6,1.8l-0.2,3l-4.9,1.1l0.5,4.7l-4.3,4.3l2.1,20.3l-11.9,0.1l0.5,9.3l-2.1,5.3H177l0.2-14.2l-11.9-0.6l0.3-14.8l-3.7-1.7l-0.2-2.7
		l-3.9-2.2l-0.4-7.8l-2.8-0.2l0.5-4l3.8-1.2l0.5-4.3l-5.9-7.8l0.5-161.8l3.3-5.7l6.8-1.2l3.5-3.8l-2.2-4.1v-40.1h2.1l-0.7-4.7
		l-10-1.2l-3.2-2.6l-0.8-5l-4.3-0.9l0.3-6.2l-3.5-0.8l-2.8,1v5.5L138.3,92.5z"/>
</g>
<g id="prop_3_8_2" transform="translate(1205, 5)">
	<rect x="28" y="-46" class="st0" width="288" height="247"/>
	<title  style="display:none">City Lamp</title>
	
		<image style="overflow:visible;enable-background:new    ;" width="287" height="246" xlink:href="../../_common/prop_sprites//lighting_3_8_2_city_lamp.png"  transform="matrix(1.0037 0 0 1.0037 -3.530000e-02 4.115124e-02)">
	</image>
	<path class="st1" d="M142.3,91.2h-4v4.1l-1.9,3.6l-9.2,2.6l-1.7,3.2l2,12l-0.8,37.3l7.1,1.4l-9,9.5v17.8l9.9,10l10-0.3l2.1,5.5
		l2-5.5l12.4-0.3l7.1-6.7l-0.1-22.5l-7-6.8l0.1-2l2.7,0.4l3.5-3.8l-2.2-4.5v-40.1h2.1l-0.6-4.5l-11.1-1.6l-2.7-2.7l-0.3-4.8
		l-4.3-0.8l-0.2-6.2l-3.4-0.7l-2.4,1L142.3,91.2L142.3,91.2z"/>
</g>
</svg>
