<?xml version="1.0" encoding="utf-8"?>
<!-- Generator: Adobe Illustrator 23.0.0, SVG Export Plug-In . SVG Version: 6.00 Build 0)  -->
<svg version="1.1" id="Layer_1" xmlns="http://www.w3.org/2000/svg" xmlns:xlink="http://www.w3.org/1999/xlink" x="0px" y="0px"
	 viewBox="0 0 1200 1200" style="enable-background:new 0 0 1200 1200;" xml:space="preserve">
<style type="text/css">
	.st0{display:none;fill:none;}
	.st1{fill:none;stroke:#FF0000;stroke-width:0.5;}
</style>
<g id="prop_6_24_1" transform="translate(5, 347)">
	<rect x="-122" y="-92" class="st0" width="50" height="94"/>
	<title  style="display:none">Leaf</title>
	
		<image style="overflow:visible;enable-background:new    ;" width="49" height="93" xlink:href="../../_common/prop_sprites//npc_6_24_1_leaf.png"  transform="matrix(1.0129 0 0 1.0129 0.185 -9.792725e-02)">
	</image>
	<path class="st1" d="M27,15.3l-15.5-5.2l3.8,9l-6.8-0.4l5.1,5.7l-8.6,3.3l11.1,3.3L9.1,41l9.1-3v4.1l1.9,1.1l1.2-2h1.9v2h-2
		l-10,7.2v3.5l4.9,4.6l-1,1.7l3.3,1.6l-7.9,14.6L8,91.4l-2,0.1l-3.5-2.5l0.4,5h9.4l0.6-2.5l14.7-8.4l9.6,5.9l1.8,5l8.3,0.2l1-4.2
		l-2.6,1.5l-3.4-0.8l-1-8l-4.7-23l2.9-5.7l-10.7-9.9l3.5-2v-3.8l1.8-1.1l3,3.2l6.1,3.1l-4.9-8.3l11.6-2.5l-10.3-5.1l1.5-4l0.7-7.9
		l-3.8,0.7l-1-7.9l-2.2-5.2l-5.1,6.2L27,15.3z M19.3,56.5l-4-3.6l4.3-3.1L19.3,56.5z M35,56.4l-2-4l3,2L35,56.4z"/>
</g>
<g id="prop_6_24_2" transform="translate(5, 119)">
	<rect x="-124" y="-99" class="st0" width="54" height="101"/>
	<title  style="display:none">Maid</title>
	
		<image style="overflow:visible;enable-background:new    ;" width="53" height="100" xlink:href="../../_common/prop_sprites//npc_6_24_2_maid.png"  transform="matrix(1.012 0 0 1.012 0.1833 -9.757566e-02)">
	</image>
	<path class="st1" d="M24.9,7.9l-1.1,9.8l-3.3-0.3l1.1,3.3l1.9,2.5h5.8v2.9l-7.5,1.4l-2.5,1.9l0.3,9.5l-2.3,4.2l3.5,2l-8.2,0.1
		l-2.1,6.9l1,1L17,52l0.8,3.7l-7.6,15.7l-6,8.8v6.2l6,6l6.7-0.6l4.8,3.2l-0.9,2l-2.6,2.5l0,1.4h7l-0.1-5.7h2l0.1,5.7h10.2l-0.8-2.8
		l-4.3-0.6l-0.2-2l9.9-1.2l6.6,1.1l4.6-5L43,64.7l-1.8-12.2L40,49.2h3.3l1-2.7L42,40.7l-0.7-8.5L40,28.1l-5.1-2l4.6-4.9h2.2l2.6-1.7
		l2-8.7l-2.9-2.1l-0.7-4L29.4,4.3L24.9,7.9z M26.3,41.4L23.5,39l1.1-1.9l1.7,2.7V41.4z"/>
</g>
<g id="prop_6_24_3" transform="translate(5, 451)">
	<rect x="-115" y="-107" class="st0" width="34" height="109"/>
	<title  style="display:none">Butler</title>
	
		<image style="overflow:visible;enable-background:new    ;" width="33" height="108" xlink:href="../../_common/prop_sprites//npc_6_24_3_butler.png"  transform="matrix(1.0111 0 0 1.0111 0.3173 -9.796631e-02)">
	</image>
	<path class="st1" d="M19.3,5.4l-0.5,0.9L16.3,6v2.2l2,0.1l0,1.4l-5.7-2.6l-0.6,1.7l-1.2-2.1l-4,1.4l3.4,2.8l-3.1,3l5.2,1.3v6.9
		l3.8,2l1.2,3.2l-4.8,1.8L8.3,35l-5,15.3l7,2.9v4.6l2.3,2.3l2.5,17.5l2.3,28l-5.3,0l-2.9-1.1l0.2,2.6l2,1.9h18.2l3.2-1.7l1.1-3.8
		l-4.7,2l-4.2,0l1.3-17.1l0.3-24.2l1.3,2l2.5-9.3l-2.1-8.1l3-2.2l-5.7-15.9l-2.9-0.9l6.4-2.5v-4.9l3.5-2.4l-4.5-8.8l-5-2.3V6.1
		l-0.9-0.3l-0.2-1.6L19.3,5.4z M9,48.2l2.1-6.7l0.1,6.5L9,48.2z"/>
</g>
<g id="prop_6_24_4" transform="translate(5, 5)">
	<rect x="-127" y="-102" class="st0" width="57" height="104"/>
	<title  style="display:none">Worker</title>
	
		<image style="overflow:visible;enable-background:new    ;" width="56" height="103" xlink:href="../../_common/prop_sprites//npc_6_24_4_worker.png"  transform="matrix(1.0116 0 0 1.0116 0.1759 -9.604827e-02)">
	</image>
	<path class="st1" d="M26.3,11.1L22,13.4l3.7,4L25.1,22l3.6,2.2l-3.9,3l-2.9,0.5l-0.7,1.5h-2.6l-9.4,9.6v6.4l9,6.4l-2.3,2.6l3.2,3.5
		l-6.9,35.8l-2,3.3L7.6,97l-4.3,4.6L3,103.9l14.6-0.1l0.3-10.3l12.3-6.4l9.6-1.1l5.6,4.2l-0.9,3.3l1.4,1.3l-1.2,2.9l-0.5,6l12.4,0.2
		l-1-5.8l-5.1-4.3l4.2-19.4L51.8,51l2.4-8.8L50,34.7l-6.8-7.1v-3.2l3-1.1v-3.1h5v-2.9l-2-1.2v-5.5l-5.9-5.7l-14.1-1L26.3,11.1z"/>
</g>
<g id="prop_6_24_5" transform="translate(5, 230)">
	<rect x="-118" y="-105" class="st0" width="49" height="107"/>
	<title  style="display:none">Scientist</title>
	
		<image style="overflow:visible;enable-background:new    ;" width="48" height="106" xlink:href="../../_common/prop_sprites//npc_6_24_5_scientist.png"  transform="matrix(1.0114 0 0 1.0114 0.2268 -0.1033)">
	</image>
	<path class="st1" d="M17.3,7.2h-5.5l-3,2l4.6,1.3l-3.2,4.8l4.1,1.1l-1.7,3.1l7.1,8.1L10.8,34l2.5,6.9L9.1,93.2h5.4l-1,9l-2.2,1.2
		L5.1,102l-1.8,1.1l2.1,3.9h13.9v-3.6l3.1-10.2H27l1.1-3H30l1.3,9.5l-1.2,7.3l15-0.1l3.2-1.2v-1.3l-9.8-0.1l-2.7-2l0.7-9.1h4.9
		L40,87.7l-1.8-41.5h6v-5.9l-3.5-1.9l-6-8.1l-6-2.3l4.5-1.7l0.5-4.5l2-3l-2.5,0.1l-0.1-2.1l2.4-4.4l-3.1-4.7l-14-3.4h-1.2V7.2z"/>
</g>
</svg>
